<?xml version="1.0" encoding="UTF-8"?>
<svg width="65px" height="65px" viewBox="0 0 65 65" version="1.1" xmlns="http://www.w3.org/2000/svg" xmlns:xlink="http://www.w3.org/1999/xlink">
    <!-- Generator: Sketch 49.3 (51167) - http://www.bohemiancoding.com/sketch -->
    <title>Group 14</title>
    <desc>Created with Sketch.</desc>
    <defs>
        <rect id="path-1" x="0" y="0" width="65" height="65"></rect>
    </defs>
    <g id="Page-1" stroke="none" stroke-width="1" fill="none" fill-rule="evenodd">
        <g id="Group-14">
            <mask id="mask-2" fill="white">
                <use xlink:href="#path-1"></use>
            </mask>
            <g id="Mask"></g>
            <g mask="url(#mask-2)" fill="#FFFFFF" fill-opacity="0.7">
                <path d="M33.0416667,33.5833333 C31.6219687,33.5833333 30.2896568,33.2360086 29.0446909,32.5413486 C27.799725,31.8466886 26.800491,30.843306 26.046959,29.5311705 C25.293427,28.219035 24.9166667,26.6808824 24.9166667,24.9166667 C24.9166667,23.1524509 25.293427,21.6142983 26.046959,20.3021628 C26.800491,18.9900274 27.799725,17.9866447 29.0446909,17.2919847 C30.2896568,16.5973248 31.6219687,16.25 33.0416667,16.25 C34.4613646,16.25 35.7936766,16.5973248 37.0386425,17.2919847 C38.2836084,17.9866447 39.2828423,18.9900274 40.0363743,20.3021628 C40.7899063,21.6142983 41.1666667,23.1524509 41.1666667,24.9166667 C41.1666667,26.6808824 40.7899063,28.219035 40.0363743,29.5311705 C39.2828423,30.843306 38.2836084,31.8466886 37.0386425,32.5413486 C35.7936766,33.2360086 34.4613646,33.5833333 33.0416667,33.5833333 Z M33.0416667,29.0184478 C34.6142552,29.0184478 35.4005376,27.6512011 35.4005376,24.9166667 C35.4005376,22.1821322 34.6142552,20.8148855 33.0416667,20.8148855 C31.4690782,20.8148855 30.6827957,22.1821322 30.6827957,24.9166667 C30.6827957,27.6512011 31.4690782,29.0184478 33.0416667,29.0184478 Z" id="o"></path>
                <path d="M18.9583333,35.2083333 L9.64166667,23.4 L9.31666667,23.4 L9.31666667,35.2083333 L0,35.2083333 L0,0 L13.325,0 C17.5500211,0 20.9534593,0.875685687 23.5354167,2.62708333 C26.117374,4.37848098 27.4083333,7.29442404 27.4083333,11.375 C27.4083333,13.7944565 26.9027828,15.8527693 25.8916667,17.55 C24.8805505,19.2472307 21.0708333,21.775 18.9583333,22.2083333 L29.3583333,35.2083333 L18.9583333,35.2083333 Z M9.31666667,16.0333333 L12.675,16.0333333 C14.5166759,16.0333333 15.9159674,15.6361151 16.8729167,14.8416667 C17.8298659,14.0472182 18.3083333,12.8916742 18.3083333,11.375 C18.3083333,9.89443704 17.8479213,8.85625298 16.9270833,8.26041667 C16.0062454,7.66458035 14.5888985,7.36666667 12.675,7.36666667 L9.31666667,7.36666667 L9.31666667,16.0333333 Z" id="R"></path>
                <polygon id="E" points="42.25 30.3333333 65 30.3333333 65 38.1333333 51.5666667 38.1333333 51.5666667 43.6583333 63.05 43.6583333 63.05 51.4583333 51.5666667 51.4583333 51.5666667 57.7416667 65.5416667 57.7416667 65.5416667 65.5416667 42.25 65.5416667"></polygon>
                <polygon id="E" points="27.0833333 36.8333333 39.7810078 36.8333333 39.7810078 40.9133333 32.2833333 40.9133333 32.2833333 43.8033333 38.6926357 43.8033333 38.6926357 47.8833333 32.2833333 47.8833333 32.2833333 51.17 40.0833333 51.17 40.0833333 55.25 27.0833333 55.25"></polygon>
            </g>
        </g>
    </g>
</svg>