<?xml version="1.0" encoding="UTF-8"?>
<svg width="25px" height="25px" viewBox="0 0 25 25" version="1.1" xmlns="http://www.w3.org/2000/svg" xmlns:xlink="http://www.w3.org/1999/xlink">
    <!-- Generator: Sketch 49.3 (51167) - http://www.bohemiancoding.com/sketch -->
    <title>Shape</title>
    <desc>Created with Sketch.</desc>
    <defs></defs>
    <g id="Page-1" stroke="none" stroke-width="1" fill="none" fill-rule="evenodd" stroke-linecap="round" stroke-linejoin="round">
        <g id="Group-7" transform="translate(-599.000000, -703.000000)" stroke="#007AB9" stroke-width="1.5">
            <path d="M614.289813,725.629862 L614.301813,725.636862 C616.489793,727.029858 619.351765,726.715973 621.185813,724.881862 L621.959813,724.107862 C622.67963,723.387142 622.67963,722.219582 621.959813,721.498862 L618.698813,718.239862 C617.978093,717.520046 616.810533,717.520046 616.089813,718.239862 C615.744119,718.585983 615.275001,718.780467 614.785813,718.780467 C614.296626,718.780467 613.827508,718.585983 613.481813,718.239862 L608.263813,713.020862 C607.543997,712.300142 607.543997,711.132582 608.263813,710.411862 C608.609934,710.066168 608.804418,709.59705 608.804418,709.107862 C608.804418,708.618675 608.609934,708.149557 608.263813,707.803862 L605.003813,704.539862 C604.283093,703.820046 603.115533,703.820046 602.394813,704.539862 L601.620813,705.313862 C599.787098,707.148006 599.472852,710.009475 600.864813,712.197862 L600.872813,712.209862 C604.446226,717.499687 609.000787,722.055267 614.289813,725.629862 Z" id="Shape"></path>
        </g>
    </g>
</svg>