<?xml version="1.0" encoding="UTF-8"?>
<svg width="25px" height="25px" viewBox="0 0 25 25" version="1.1" xmlns="http://www.w3.org/2000/svg" xmlns:xlink="http://www.w3.org/1999/xlink">
    <!-- Generator: Sketch 49.3 (51167) - http://www.bohemiancoding.com/sketch -->
    <title>Shape</title>
    <desc>Created with Sketch.</desc>
    <defs></defs>
    <g id="Page-1" stroke="none" stroke-width="1" fill="none" fill-rule="evenodd" stroke-linecap="round" stroke-linejoin="round">
        <g id="Group-12" transform="translate(1.000000, -5.000000)" stroke="#FFFFFF" stroke-width="1.5">
            <path d="M14.2898133,27.6298623 L14.3018133,27.6368623 C16.489793,29.0298583 19.3517652,28.7159726 21.1858133,26.8818623 L21.9598133,26.1078623 C22.6796297,25.3871422 22.6796297,24.2195823 21.9598133,23.4988623 L18.6988133,20.2398623 C17.9780932,19.5200459 16.8105333,19.5200459 16.0898133,20.2398623 C15.7441187,20.5859828 15.2750005,20.7804672 14.7858133,20.7804672 C14.296626,20.7804672 13.8275078,20.5859828 13.4818133,20.2398623 L8.26381328,15.0208623 C7.54399691,14.3001422 7.54399691,13.1325823 8.26381328,12.4118623 C8.60993383,12.0661677 8.80441818,11.5970495 8.80441818,11.1078623 C8.80441818,10.618675 8.60993383,10.1495568 8.26381328,9.80386228 L5.00381328,6.53986228 C4.28309323,5.82004591 3.11553334,5.82004591 2.39481328,6.53986228 L1.62081328,7.31386228 C-0.212901983,9.14800577 -0.527148209,12.0094754 0.864813282,14.1978623 L0.872813282,14.2098623 C4.44622591,19.4996872 9.00078738,24.0552671 14.2898133,27.6298623 Z" id="Shape"></path>
        </g>
    </g>
</svg>