<?xml version="1.0" encoding="UTF-8"?>
<svg width="30px" height="28px" viewBox="0 0 30 28" version="1.1" xmlns="http://www.w3.org/2000/svg" xmlns:xlink="http://www.w3.org/1999/xlink">
    <!-- Generator: Sketch 49.3 (51167) - http://www.bohemiancoding.com/sketch -->
    <title>Group 2</title>
    <desc>Created with Sketch.</desc>
    <defs></defs>
    <g id="Page-1" stroke="none" stroke-width="1" fill="none" fill-rule="evenodd">
        <g id="Group-7" transform="translate(-569.000000, -503.000000)" fill="#E0E0E0">
            <g id="Group-8" transform="translate(569.000000, 503.000000)">
                <g id="Group-2" transform="translate(15.000000, 14.000000) scale(-1, -1) translate(-15.000000, -14.000000) ">
                    <path d="M5,10.8 C6.53846154,10.8 6.35191028,10.5414488 6.92307692,10.4 C7.28995566,10.3091429 6.92307692,14.8 6.15384615,18 C5.06574838,22.5264867 2.36013401,26.1431268 2.69230769,26 L5.38461538,27.6 C14.2307692,16.4 12.6923077,8.4 11.9230769,5.2 C11.0680252,1.64298468 8.35845635,0 5.38461538,0 C2.41077442,0 0,2.3281193 0,5.2 C0,8.0718807 1.24061551,10.8 5,10.8 Z" id="Oval-3"></path>
                    <path d="M21.9230769,10.8 C23.4615385,10.8 23.2749872,10.5414488 23.8461538,10.4 C24.2130326,10.3091429 23.8461538,14.8 23.0769231,18 C21.9888253,22.5264867 19.2832109,26.1431268 19.6153846,26 L22.3076923,27.6 C31.1538462,16.4 29.6153846,8.4 28.8461538,5.2 C27.9911021,1.64298468 25.2815333,0 22.3076923,0 C19.3338513,0 16.9230769,2.3281193 16.9230769,5.2 C16.9230769,8.0718807 18.1636924,10.8 21.9230769,10.8 Z" id="Oval-3"></path>
                </g>
            </g>
        </g>
    </g>
</svg>