<?xml version="1.0" encoding="UTF-8"?>
<svg width="50px" height="50px" viewBox="0 0 50 50" version="1.1" xmlns="http://www.w3.org/2000/svg" xmlns:xlink="http://www.w3.org/1999/xlink">
    <!-- Generator: Sketch 49.3 (51167) - http://www.bohemiancoding.com/sketch -->
    <title>002-curriculum</title>
    <desc>Created with Sketch.</desc>
    <defs></defs>
    <g id="Page-1" stroke="none" stroke-width="1" fill="none" fill-rule="evenodd">
        <g id="002-curriculum" fill-rule="nonzero">
            <circle id="Oval" fill="#324A5E" cx="25" cy="25" r="25"></circle>
            <path d="M39.488189,13.0708661 L39.488189,38.0314961 C39.488189,38.7401575 38.8976378,39.3307087 38.1889764,39.3307087 L35.9055118,39.3307087 L35.9055118,16.6929134 L29.8425197,10.6299213 L14.0944882,10.6299213 L14.0944882,8.34645669 C14.0944882,7.63779528 14.6850394,7.04724409 15.3937008,7.04724409 L33.4251969,7.04724409 L33.4251969,11.7716535 C33.4251969,12.480315 34.015748,13.0708661 34.7244094,13.0708661 L39.488189,13.0708661 Z" id="Shape" fill="#E6E9EE"></path>
            <path d="M33.4645669,7.04724409 L33.4645669,11.7716535 C33.4645669,12.480315 34.0551181,13.0708661 34.7637795,13.0708661 L39.488189,13.0708661 L33.4645669,7.04724409 Z" id="Shape" fill="#007AB9"></path>
            <path d="M29.8425197,10.6692913 L11.8110236,10.6692913 C11.1023622,10.6692913 10.511811,11.2598425 10.511811,11.9685039 L10.511811,41.6535433 C10.511811,42.3622047 11.1023622,42.9527559 11.8110236,42.9527559 L34.5669291,42.9527559 C35.2755906,42.9527559 35.8661417,42.3622047 35.8661417,41.6535433 L35.8661417,16.6929134 L31.1417323,16.6929134 C30.4330709,16.6929134 29.8425197,16.1023622 29.8425197,15.3937008 L29.8425197,10.6692913 Z" id="Shape" fill="#FFFFFF"></path>
            <path d="M29.8425197,10.6692913 L29.8425197,15.3937008 C29.8425197,16.1023622 30.4330709,16.6929134 31.1417323,16.6929134 L35.8661417,16.6929134 L29.8425197,10.6692913 Z" id="Shape" fill="#84DBFF"></path>
            <path d="M29.8425197,10.6692913 L29.8425197,15.3937008 C29.8425197,16.1023622 30.4330709,16.6929134 31.1417323,16.6929134 L35.8661417,16.6929134 L29.8425197,10.6692913 Z" id="Shape" fill="#FFFFFF"></path>
            <path d="M23.2283465,28.6614173 C23.1889764,28.6614173 23.1889764,28.6614173 23.2283465,28.6614173 C23.1889764,28.6614173 23.1889764,28.6614173 23.2283465,28.6614173 C20.7480315,27.4409449 21.023622,25.9055118 21.023622,25.9055118 C21.023622,25.8661417 21.023622,25.8661417 21.023622,25.8267717 C21.6141732,26.5748031 22.4015748,27.0472441 23.2283465,27.0472441 C24.0551181,27.0472441 24.8031496,26.5748031 25.4330709,25.8267717 C25.4330709,25.8661417 25.4330709,25.8661417 25.4330709,25.9055118 C25.4330709,25.9055118 25.4330709,25.9055118 25.4330709,25.9448819 C25.4330709,26.1811024 25.4724409,27.5590551 23.2283465,28.6614173 Z" id="Shape" fill="#F9B54C"></path>
            <path d="" id="Shape" fill="#F1543F"></path>
            <path d="M23.1889764,36.1417323 C26.496063,36.1417323 29.4488189,34.5669291 31.3385827,32.1259843 L30.2755906,28.8976378 L25.8661417,26.7716535 C25.8661417,27.519685 25.8267717,28.8582677 25.5905512,30.511811 C25.0393701,28.7795276 23.1889764,28.6614173 23.1889764,28.6614173 C23.1889764,28.6614173 21.3385827,28.8188976 20.7874016,30.5511811 C20.5511811,28.8582677 20.511811,27.5590551 20.511811,26.7716535 L16.1023622,28.8976378 L15.0393701,32.1259843 C16.9291339,34.5669291 19.8818898,36.1417323 23.1889764,36.1417323 Z" id="Shape" fill="#324A5E"></path>
            <g id="Group" transform="translate(20.374016, 25.885827)" fill="#FFFFFF">
                <path d="M5.01968504,0.0196850394 C5.01968504,0.0196850394 5.29527559,1.59448819 2.81496063,2.77559055 C2.81496063,2.77559055 4.66535433,2.93307087 5.21653543,4.66535433 C5.25590551,4.70472441 6.24015748,0.92519685 5.01968504,0.0196850394 Z" id="Shape"></path>
                <path d="M0.649606299,0.0196850394 C0.649606299,0.0196850394 0.374015748,1.59448819 2.85433071,2.77559055 C2.85433071,2.77559055 1.00393701,2.93307087 0.452755906,4.66535433 C0.413385827,4.70472441 -0.570866142,0.92519685 0.649606299,0.0196850394 Z" id="Shape"></path>
            </g>
            <path d="M26.3385827,23.3858268 C26.4173228,22.9527559 26.4566929,22.480315 26.4566929,22.0866142 C26.4566929,19.7244094 25,18.7795276 23.1889764,18.7795276 C21.3779528,18.7795276 19.9212598,19.7244094 19.9212598,22.0866142 C19.9212598,22.519685 19.9606299,22.9527559 20.0393701,23.3858268 C19.7637795,23.503937 19.6850394,23.9370079 19.8818898,24.3307087 C20.0393701,24.6062992 20.2755906,24.8031496 20.511811,24.8031496 C21.1023622,26.2204724 22.0866142,27.3228346 23.1889764,27.3228346 C24.2913386,27.3228346 25.2755906,26.2204724 25.8661417,24.8031496 C26.1023622,24.8031496 26.3385827,24.6062992 26.496063,24.3307087 C26.6929134,23.9370079 26.6141732,23.5433071 26.3385827,23.3858268 Z" id="Shape" fill="#FFD05B"></path>
            <path d="M23.1889764,17.4409449 C23.1889764,17.4409449 24.6062992,17.480315 25.8661417,18.6614173 C28.6220472,21.2598425 25.7086614,25.1181102 25.7086614,25.1181102 C25.7086614,25.1181102 26.1023622,24.1732283 25.9448819,23.1889764 C25.9055118,22.8346457 25.8661417,22.4409449 25.8661417,22.0866142 C25.9055118,21.4173228 25.7480315,20.3937008 24.1338583,20.6692913 C24.1338583,20.6692913 23.2283465,21.3385827 21.023622,20.7874016 C21.023622,20.7874016 19.6062992,22.9527559 20.3937008,24.8031496 C20.3937008,24.8031496 18.0708661,21.2992126 20.511811,19.0551181 L19.8818898,19.2125984 C19.8818898,19.2125984 20.7874016,17.519685 22.6377953,18.1102362 C22.6377953,18.1102362 22.480315,17.8346457 21.8897638,17.6771654 C21.8897638,17.6771654 22.7165354,17.3228346 23.1889764,17.9133858 C23.1889764,17.8740157 23.4645669,17.6771654 23.1889764,17.4409449 Z" id="Shape" fill="#324A5E"></path>
        </g>
    </g>
</svg>