<?xml version="1.0" encoding="UTF-8"?>
<svg width="65px" height="102px" viewBox="0 0 65 102" version="1.1" xmlns="http://www.w3.org/2000/svg" xmlns:xlink="http://www.w3.org/1999/xlink">
    <!-- Generator: Sketch 52.6 (67491) - http://www.bohemiancoding.com/sketch -->
    <title>Group 18</title>
    <desc>Created with Sketch.</desc>
    <defs>
        <radialGradient cx="50%" cy="76.6819881%" fx="50%" fy="76.6819881%" r="88.4151358%" gradientTransform="translate(0.500000,0.766820),scale(1.000000,0.823872),rotate(-90.000000),scale(1.000000,1.056148),translate(-0.500000,-0.766820)" id="radialGradient-1">
            <stop stop-color="#8B35BD" offset="0%"></stop>
            <stop stop-color="#E14ECA" offset="100%"></stop>
        </radialGradient>
    </defs>
    <g id="Side-By-Side" stroke="none" stroke-width="1" fill="none" fill-rule="evenodd">
        <g id="Group-18" fill-rule="nonzero">
            <g id="Group-19">
                <g>
                    <path d="M52.1692701,21.5127273 C52.3536673,25.1290909 50.6018942,28.7454545 48.1125325,32.5472727 C50.1409013,20.2145455 46.0841637,6.39818182 29.7650148,-5.68434189e-14 C31.1479935,5.19272727 27.8288446,11.5909091 24.6018942,18.5454545 C22.665724,16.32 20.4529581,14.1872727 17.7791992,12.1472727 C19.0699793,29.3945455 -18.5470419,46.6418182 11.9706886,76.1290909 C11.9706886,76.1290909 13.9990574,77.4272727 17.594802,78.7254545 C17.5026035,78.6327273 17.4104049,78.54 17.3182063,78.4472727 C10.772107,71.3072727 7.17636232,56.5636364 19.6231708,46.8272727 C19.4387737,49.2381818 20.6373552,51.5563636 22.2969297,53.9672727 C21.0061496,45.9927273 23.5877098,36.9981818 34.1905467,32.8254545 C33.2685609,36.1636364 35.4813269,40.3363636 37.5096957,44.88 C38.7082772,43.3963636 40.1834545,42.0054545 41.9352276,40.7072727 C41.2898375,49.8872727 58.2543765,59.3454545 52.1692701,73.3472727 C53.3678517,72.42 54.5664332,71.4 55.6728162,70.1945455 C65.7224616,59.2527273 71.2543765,36.5345455 52.1692701,21.5127273 Z" id="Path" fill="url(#radialGradient-1)"></path>
                    <path d="M50.6484685,79.2985552 C49.4701646,77.8639396 47.6920861,76.878546 45.3143399,76.3429777 C48.3422511,74.8887608 49.6729007,72.4206027 49.3075699,68.9381015 C49.1854371,67.6752739 48.8147684,66.5808166 48.1947095,65.6531213 C47.5742237,64.725225 46.7369094,63.9792691 45.6795639,63.4149521 C44.6230725,62.8499315 43.4740207,62.4198082 42.2350774,62.1232754 C40.9958138,61.8267426 39.5730308,61.6114296 37.9676891,61.477638 L37.9676891,54.2454545 L33.2741171,54.2454545 L33.2741171,61.2766994 C32.4613575,61.2766994 31.2218804,61.2957981 29.5557926,61.3340961 L29.5557926,54.2454545 L24.8615801,54.2454545 L24.8615801,61.477638 C24.1908106,61.4968373 23.2054209,61.5065877 21.9049842,61.5065877 L15.4432624,61.477638 L15.4432624,66.1843673 L18.8263623,66.1843673 C20.3707443,66.1843673 21.2749968,66.8350306 21.5391196,68.1358547 L21.5391196,76.3726309 C21.7426031,76.3726309 21.9049842,76.3824819 22.0270102,76.4015806 L21.5391196,76.4015806 L21.5391196,87.9381135 C21.3767385,88.9136561 20.7875332,89.4018797 19.7713968,89.4018797 L16.3885105,89.4018797 L15.4434759,94.6539278 L21.5396534,94.6539278 C21.9258023,94.6539278 22.4842609,94.6587528 23.2160969,94.6673974 C23.9475058,94.6770473 24.495929,94.6818723 24.8617936,94.6818723 L24.8617936,102 L29.5567535,102 L29.5567535,94.767917 C30.4099749,94.7875183 31.649452,94.7968667 33.275078,94.7968667 L33.275078,102 L37.9687567,102 L37.9687567,94.6818723 C39.6353783,94.6054774 41.1135695,94.4627396 42.4033303,94.2515479 C43.6937316,94.0403562 44.9285113,93.710853 46.1068152,93.2609273 C47.2850124,92.8116048 48.270402,92.2516101 49.0627705,91.5819486 C49.8555661,90.9128902 50.5103218,90.0610872 51.0293862,89.0277458 C51.5467424,87.9944044 51.8773764,86.7986234 52.0191529,85.4399001 C52.2844501,82.7811569 51.8269859,80.7337739 50.6484685,79.2985552 Z M29.7340426,66.5768991 C29.8749342,66.5768991 30.2722424,66.5721113 30.9260728,66.5625357 C31.5802203,66.5527606 32.1231764,66.5433845 32.5556811,66.5338089 C32.9882915,66.5244328 33.5717289,66.5481723 34.3063104,66.6051271 C35.0405748,66.6620819 35.659103,66.7381879 36.161895,66.8329464 C36.664687,66.9277048 37.2184241,67.0844054 37.8214151,67.3027488 C38.425463,67.5208928 38.9079615,67.7868149 39.2696504,68.1000166 C39.6320792,68.4132182 39.9388066,68.8121014 40.1898327,69.2962672 C40.4415986,69.7803333 40.5673759,70.3356179 40.5673759,70.9620211 C40.5673759,71.4936659 40.4770065,71.9779315 40.2961621,72.4148179 C40.1156347,72.851405 39.8433639,73.2169731 39.481675,73.5112231 C39.1198804,73.8055728 38.7469878,74.0621188 38.3646883,74.2802627 C37.9828116,74.4984067 37.4944999,74.6741587 36.9012328,74.8069203 C36.3080715,74.9398813 35.7900594,75.0443151 35.347725,75.1201219 C34.9050736,75.1961281 34.3519707,75.2484947 33.6879936,75.2768225 C33.0239108,75.3051502 32.5208017,75.3245009 32.1789835,75.333877 C31.8368482,75.3432531 31.3692527,75.3432531 30.7755629,75.333877 C30.1817673,75.3245009 29.8351928,75.3195136 29.7343596,75.3195136 L29.7343596,66.5767993 L29.7340426,66.5767993 L29.7340426,66.5768991 Z M42.5818098,86.0838168 C42.3878017,86.5218556 42.1386837,86.9027894 41.8333858,87.2266181 C41.5275528,87.5496468 41.1250903,87.8354721 40.6263193,88.0825941 C40.1276553,88.330416 39.6434376,88.5299337 39.1753783,88.6822473 C38.706677,88.8351608 38.1412391,88.9676726 37.4799208,89.0822827 C36.8171043,89.1965929 36.2370062,89.277 35.7374861,89.3249043 C35.2387151,89.3726085 34.6432076,89.4105119 33.9504285,89.4393144 C33.2581844,89.4673169 32.7181078,89.4818182 32.3312686,89.4818182 C31.9442155,89.4818182 31.4552894,89.4766177 30.8645973,89.4673169 C30.2735841,89.4584161 29.8971249,89.4536157 29.7340426,89.4536157 L29.7340426,79.8022596 C29.8968039,79.8022596 30.3805936,79.7929588 31.1853046,79.773557 C31.9901226,79.7543553 32.6466255,79.7454545 33.1558834,79.7454545 C33.6650343,79.7454545 34.3679793,79.773557 35.2645044,79.8310621 C36.1601734,79.8877672 36.9138409,79.9730747 37.5253998,80.0872849 C38.1362097,80.201695 38.8027715,80.3775106 39.5263693,80.6157317 C40.2492181,80.8535528 40.8350947,81.1437786 41.2833573,81.486409 C41.7315128,81.8296394 42.108079,82.2667782 42.413484,82.7999255 C42.719638,83.3327727 42.8723404,83.9420268 42.8723404,84.6274876 C42.8722334,85.1610349 42.7756039,85.6456779 42.5818098,86.0838168 Z" id="Shape" fill="#A43CC1"></path>
                </g>
            </g>
        </g>
    </g>
</svg>