<?xml version="1.0" encoding="UTF-8"?>
<svg width="140px" height="80px" viewBox="0 0 140 80" version="1.1" xmlns="http://www.w3.org/2000/svg" xmlns:xlink="http://www.w3.org/1999/xlink">
    <!-- Generator: Sketch 49.3 (51167) - http://www.bohemiancoding.com/sketch -->
    <title>creativegenius-logo</title>
    <desc>Created with Sketch.</desc>
    <defs>
        <rect id="path-1" x="0.366545455" y="0.273617021" width="25.1800606" height="33.1323404"></rect>
        <rect id="path-3" x="0.145515152" y="0.214042553" width="15.9786667" height="20.067234"></rect>
        <rect id="path-5" x="0.330060606" y="0" width="29.078" height="14.9953191"></rect>
        <rect id="path-7" x="0.145515152" y="0.214042553" width="15.9786667" height="20.067234"></rect>
        <rect id="path-9" x="0.371636364" y="0.261276596" width="16.0546061" height="9.85191489"></rect>
        <rect id="path-11" x="0.191757576" y="0.112340426" width="20.3301212" height="15.5906383"></rect>
        <rect id="path-13" x="0.333454545" y="0.0361702128" width="35.5286061" height="15.4055319"></rect>
    </defs>
    <g id="Page-1" stroke="none" stroke-width="1" fill="none" fill-rule="evenodd">
        <g id="creativegenius-logo">
            <g id="Group">
                <path d="M16.2641818,47.32 L15.2820606,47.32 C15.1416364,46.113617 14.2995152,45.7114894 13.0967879,45.7114894 C11.7332727,45.7114894 10.8309091,46.0731915 10.8309091,47.7021277 L10.8309091,56.5502128 C10.8309091,58.1791489 11.7332727,58.5408511 13.0967879,58.5408511 C14.2995152,58.5408511 15.1416364,58.1391489 15.2820606,56.9323404 L16.2641818,56.9323404 C16.143697,58.6817021 14.9010909,59.486383 13.0564848,59.486383 C11.2322424,59.486383 9.88909091,58.6217021 9.88909091,56.5502128 L9.88909091,47.7021277 C9.88909091,45.6310638 11.2322424,44.766383 13.0564848,44.766383 C14.9015152,44.766383 16.143697,45.5706383 16.2641818,47.32" id="Shape" fill="#000000" fill-rule="nonzero"></path>
                <path d="M18.6687879,59.3455319 L18.6687879,44.907234 L22.1573333,44.907234 C24.1016364,44.907234 25.3450909,45.8723404 25.3450909,47.8829787 L25.3450909,50.5178723 C25.3450909,51.9251064 24.6433939,52.8502128 23.4402424,53.392766 L26.0264242,59.3455319 L25.0642424,59.3455319 L22.538303,53.493617 L19.6110303,53.493617 L19.6110303,59.3455319 L18.6687879,59.3455319 Z M22.1573333,52.5485106 C23.5004848,52.5485106 24.4427273,52.0255319 24.4024242,50.5178723 L24.4024242,47.8829787 C24.4427273,46.3748936 23.4601818,45.8523404 22.0970909,45.8523404 L19.6110303,45.8523404 L19.6110303,52.5485106 L22.1573333,52.5485106 Z" id="Shape" fill="#000000" fill-rule="nonzero"></path>
                <polygon id="Shape" fill="#000000" fill-rule="nonzero" points="28.1501818 44.907234 33.7030909 44.907234 33.7030909 45.8523404 29.132303 45.8523404 29.132303 51.3621277 32.7816364 51.3621277 32.7816364 52.307234 29.132303 52.307234 29.132303 58.4004255 33.9839394 58.4004255 33.9839394 59.3455319 28.1501818 59.3455319"></polygon>
                <path d="M39.8007273,44.907234 L42.7076364,59.3455319 L41.7055758,59.3455319 L41.0238182,55.7259574 L37.1742424,55.7259574 L36.4929091,59.3455319 L35.4904242,59.3455319 L38.3973333,44.907234 L39.8007273,44.907234 Z M40.8231515,54.7804255 L39.0990303,45.6914894 L37.3749091,54.7804255 L40.8231515,54.7804255 Z" id="Shape" fill="#000000" fill-rule="nonzero"></path>
                <polygon id="Shape" fill="#000000" fill-rule="nonzero" points="43.5849697 44.907234 49.7199394 44.907234 49.7199394 45.8523404 47.1341818 45.8523404 47.1341818 59.3455319 46.1915152 59.3455319 46.1915152 45.8523404 43.5849697 45.8523404"></polygon>
                <rect id="Rectangle-path" fill="#000000" fill-rule="nonzero" x="52.1444848" y="44.907234" width="1" height="14.4382979"></rect>
                <polygon id="Shape" fill="#000000" fill-rule="nonzero" points="61.7472121 44.8868085 62.749697 44.8868085 59.7422424 59.3255319 58.3388485 59.3255319 55.3318182 44.8868085 56.334303 44.8868085 59.0604848 58.5612766"></polygon>
                <polygon id="Shape" fill="#000000" fill-rule="nonzero" points="65.1538788 44.907234 70.7072121 44.907234 70.7072121 45.8523404 66.136 45.8523404 66.136 51.3621277 69.7849091 51.3621277 69.7849091 52.307234 66.136 52.307234 66.136 58.4004255 70.9880606 58.4004255 70.9880606 59.3455319 65.1538788 59.3455319"></polygon>
                <path d="M87.3447273,47.32 L86.3626061,47.32 C86.2221818,46.113617 85.3804848,45.7114894 84.1777576,45.7114894 C82.8142424,45.7114894 81.9118788,46.0731915 81.9118788,47.7021277 L81.9118788,56.5502128 C81.9118788,58.1791489 82.8142424,58.5408511 84.1777576,58.5408511 C85.5209091,58.5408511 86.4432121,58.0782979 86.3829697,56.5102128 L86.3829697,52.307234 L84.6185455,52.307234 L84.6185455,51.3621277 L87.3451515,51.3621277 L87.3451515,56.5102128 C87.3451515,58.5208511 86.1021212,59.486383 84.1374545,59.486383 C82.3127879,59.486383 80.9696364,58.6217021 80.9696364,56.5502128 L80.9696364,47.7021277 C80.9696364,45.6310638 82.3127879,44.766383 84.1374545,44.766383 C85.9816364,44.766383 87.2242424,45.5706383 87.3447273,47.32" id="Shape" fill="#000000" fill-rule="nonzero"></path>
                <polygon id="Shape" fill="#000000" fill-rule="nonzero" points="90.2308485 44.907234 95.7841818 44.907234 95.7841818 45.8523404 91.2129697 45.8523404 91.2129697 51.3621277 94.862303 51.3621277 94.862303 52.307234 91.2129697 52.307234 91.2129697 58.4004255 96.0650303 58.4004255 96.0650303 59.3455319 90.2308485 59.3455319"></polygon>
                <path d="M98.2490303,44.907234 L99.7321818,44.907234 L102.739636,54.7004255 C103.120182,55.9268085 103.782,58.4404255 103.782,58.4404255 C103.782,58.4404255 103.681879,55.4038298 103.681879,54.4991489 L103.681879,44.907234 L104.624121,44.907234 L104.624121,59.3455319 L103.120606,59.3455319 L100.133515,49.5523404 C99.8526667,48.627234 99.512,47.4004255 99.1513939,46.0331915 C99.1513939,46.0331915 99.191697,48.647234 99.191697,49.753617 L99.191697,59.3455319 L98.2494545,59.3455319 L98.2494545,44.907234 L98.2490303,44.907234 Z" id="Shape" fill="#000000" fill-rule="nonzero"></path>
                <rect id="Rectangle-path" fill="#000000" fill-rule="nonzero" x="107.95103" y="44.907234" width="1" height="14.4382979"></rect>
                <path d="M113.303273,44.907234 L113.303273,56.5702128 C113.303273,58.1991489 114.225576,58.5408511 115.588667,58.5408511 C116.911879,58.5408511 117.834182,58.0987234 117.793879,56.5102128 L117.793879,44.907234 L118.736545,44.907234 L118.736545,56.5102128 C118.736545,58.5408511 117.493091,59.486383 115.528848,59.486383 C113.704182,59.486383 112.36103,58.6412766 112.36103,56.5702128 L112.36103,44.907234 L113.303273,44.907234 Z" id="Shape" fill="#000000" fill-rule="nonzero"></path>
                <path d="M121.381273,56.7714894 L122.304,56.7714894 C122.403697,58.0782979 123.266182,58.5408511 124.528727,58.5408511 C125.912606,58.5408511 126.915091,58.0387234 126.95497,56.4093617 C127.015212,54.5395745 125.672061,53.453617 124.348424,52.3876596 C122.96497,51.3017021 121.381273,50.0348936 121.381273,47.7025532 C121.381273,45.6310638 122.704485,44.766383 124.569455,44.766383 C126.393697,44.766383 127.476364,45.6710638 127.616788,47.4812766 L126.674545,47.4812766 C126.574,46.2744681 125.832424,45.7114894 124.589394,45.7114894 C123.205939,45.7114894 122.343879,46.0731915 122.304,47.7025532 C122.263273,49.2706383 123.526667,50.5978723 124.809576,51.6638298 C126.213394,52.8297872 127.917152,54.0161702 127.917152,56.4093617 C127.917152,58.4808511 126.433576,59.486383 124.549091,59.486383 C122.744788,59.4859574 121.521697,58.5812766 121.381273,56.7714894" id="Shape" fill="#000000" fill-rule="nonzero"></path>
                <g opacity="0.85" transform="translate(64.060606, 0.851064)" id="Clipped">
                    <g>
                        <g>
                            <mask id="mask-2" fill="white">
                                <use xlink:href="#path-1"></use>
                            </mask>
                            <g id="SVGID_1_"></g>
                            <path d="M3.83981818,18.1297872 C3.83981818,18.1297872 1.51709091,22.8302128 2.8110303,27.1655319 C3.81775758,30.5370213 7.32412121,35.0553191 14.852303,32.7987234 C18.4545455,31.7191489 21.908303,25.9519149 24.1470303,20.5144681 C26.5410303,14.7017021 25.2912121,9.90510638 24.5695758,7.86170213 C23.3532727,4.41702128 16.1267273,-3.78680851 8.03048485,2.69531915 C5.13757576,5.01148936 5.21860606,8.99574468 0.366969697,13.2923404 C0.366545455,13.2923404 0.498060606,18.1382979 3.83981818,18.1297872" id="Shape" fill="#FAC013" fill-rule="nonzero" mask="url(#mask-2)"></path>
                        </g>
                    </g>
                </g>
                <g opacity="0.85" transform="translate(61.515152, 8.085106)" id="Clipped">
                    <g>
                        <g>
                            <mask id="mask-4" fill="white">
                                <use xlink:href="#path-3"></use>
                            </mask>
                            <g id="SVGID_3_"></g>
                            <path d="M0.221878788,6.20638298 C-0.0793333333,3.82340426 0.486606061,0.99787234 2.27860606,0.534468085 C4.07060606,0.0714893617 7.36442424,-0.563404255 10.2204242,4.0387234 C13.0764242,8.64042553 19.0132727,15.953617 14.4624242,19.7182979 C10.7698182,22.7740426 1.04236364,12.6944681 0.221878788,6.20638298" id="Shape" fill="#FFFFFF" fill-rule="nonzero" mask="url(#mask-4)"></path>
                        </g>
                    </g>
                </g>
                <g id="Clipped" transform="translate(51.757576, 0.000000)">
                    <mask id="mask-6" fill="white">
                        <use xlink:href="#path-5"></use>
                    </mask>
                    <g id="SVGID_5_"></g>
                    <path d="M22.902303,1.45829787 C22.902303,1.45829787 13.5167879,-2.90212766 2.83224242,3.45787234 C-2.21624242,6.46297872 0.883272727,16.2038298 7.59860606,13.3021277 C7.59860606,13.3021277 12.3815152,17.4361702 17.4130303,12.7838298 C22.4449697,8.13148936 25.8092121,6.39829787 29.4080606,6.2987234 C29.4080606,6.2987234 27.8748485,3.70765957 22.902303,1.45829787" id="Shape" fill="#A6CE3A" fill-rule="nonzero" mask="url(#mask-6)"></path>
                </g>
                <g opacity="0.85" transform="translate(61.515152, 8.085106)" id="Clipped">
                    <g>
                        <g>
                            <mask id="mask-8" fill="white">
                                <use xlink:href="#path-7"></use>
                            </mask>
                            <g id="SVGID_7_"></g>
                            <path d="M0.221878788,6.20638298 C-0.0793333333,3.82340426 0.486606061,0.99787234 2.27860606,0.534468085 C4.07060606,0.0714893617 7.36442424,-0.563404255 10.2204242,4.0387234 C13.0764242,8.64042553 19.0132727,15.953617 14.4624242,19.7182979 C10.7698182,22.7740426 1.04236364,12.6944681 0.221878788,6.20638298" id="Shape" fill="#4AC4D6" fill-rule="nonzero" mask="url(#mask-8)"></path>
                        </g>
                    </g>
                </g>
                <path d="M75.4629697,11.2629787 C75.4629697,11.2629787 78.9947879,8.91106383 83.4790303,8.77531915 C87.2314545,8.66212766 92.4373333,11.3310638 91.3775758,15.4123404 C89.0030909,24.5591489 75.4629697,11.2629787 75.4629697,11.2629787" id="Shape" fill="#FFFFFF" fill-rule="nonzero"></path>
                <g id="Clipped" transform="translate(75.090909, 8.510638)">
                    <mask id="mask-10" fill="white">
                        <use xlink:href="#path-9"></use>
                    </mask>
                    <g id="SVGID_9_"></g>
                    <path d="M0.372060606,2.75234043 C0.372060606,2.75234043 3.90387879,0.400425532 8.38812121,0.264680851 C12.1405455,0.151489362 17.3464242,2.82042553 16.2866667,6.90170213 C13.9121818,16.0485106 0.372060606,2.75234043 0.372060606,2.75234043" id="Shape" fill="#2B73BA" fill-rule="nonzero" mask="url(#mask-10)"></path>
                </g>
                <g id="Clipped" transform="translate(44.121212, 5.531915)">
                    <mask id="mask-12" fill="white">
                        <use xlink:href="#path-11"></use>
                    </mask>
                    <g id="SVGID_11_"></g>
                    <path d="M11.2912121,0.837446809 C9.19842424,0.0893617021 1.82212121,-1.48255319 0.525636364,4.99787234 C-0.770848485,11.4782979 1.90060606,12.1880851 5.20460606,13.2208511 C8.50818182,14.2531915 12.150303,15.7034043 12.150303,15.7034043 C12.150303,15.7034043 18.9093333,10.58 20.5218788,7.91446809 C20.5218788,7.91446809 19.446,3.64170213 14.6482424,4.28042553 C14.6482424,4.28042553 13.9893939,1.80212766 11.2912121,0.837446809" id="Shape" fill="#F26246" fill-rule="nonzero" mask="url(#mask-12)"></path>
                </g>
                <g id="Clipped" transform="translate(43.272727, 15.744681)">
                    <mask id="mask-14" fill="white">
                        <use xlink:href="#path-13"></use>
                    </mask>
                    <g id="SVGID_13_"></g>
                    <path d="M35.8624848,3.96893617 C35.8624848,3.96893617 34.9520606,1.75191489 29.5429697,1.85829787 C24.1338788,1.96468085 23.5055758,5.66340426 23.5055758,5.66340426 C23.5055758,5.66340426 18.9810303,3.84170213 15.6006667,6.85106383 C12.6784848,9.45234043 12.1307879,-0.120851064 4.63527273,0.0382978723 C-1.30666667,0.164680851 -1.34654545,8.50765957 6.1069697,8.83489362 C6.1069697,8.83489362 9.15006061,13.3931915 15.1306061,11.7229787 C15.4924848,11.6217021 18.956,17.1314894 24.2806667,14.9165957 C28.1701212,13.2982979 27.5889091,9.56765957 26.5083636,7.71914894 C29.4810303,6.33829787 32.2954545,3.96893617 35.8624848,3.96893617" id="Shape" fill="#E44C9B" fill-rule="nonzero" mask="url(#mask-14)"></path>
                </g>
                <path d="M2.52424242,27.086383 C10.3107879,27.2080851 18.1253333,27.2514894 25.9509091,27.2612766 C29.8632727,27.2591489 33.7790303,27.2574468 37.6952121,27.2553191 L43.5701212,27.2438298 C44.5441818,27.26 45.5424242,27.1889362 46.5300606,27.1553191 C47.514303,27.0280851 48.5057576,26.9404255 49.4704848,26.68 C50.1263636,26.5604255 50.8085455,26.3017021 51.5526667,26.0574468 C52.2755758,25.7565957 53.0510909,25.4268085 53.8193939,24.9723404 C54.5978788,24.5374468 55.371697,23.9987234 56.1641818,23.4170213 C56.9511515,22.833617 57.7478788,22.1859574 58.6120606,21.5902128 C59.0358788,21.2740426 59.5,21.0178723 59.963697,20.7378723 C60.4486061,20.506383 60.9335152,20.2446809 61.4684848,20.0919149 C61.9839394,19.8774468 62.552,19.8208511 63.1107273,19.6944681 C63.3979394,19.6761702 63.6872727,19.6574468 63.9787273,19.6387234 L64.4182424,19.6106383 C64.5616364,19.613617 64.7020606,19.612766 64.8441818,19.6310638 C65.9841212,19.7412766 67.1011515,20.3191489 68.0310909,21.132766 C68.4977576,21.5459574 68.9283636,22.0046809 69.2554545,22.5323404 C69.5821212,23.0638298 69.8256364,23.6565957 69.944,24.2795745 C70.0623636,24.9004255 70.0619394,25.5519149 69.8973333,26.1668085 C69.732303,26.78 69.4162424,27.3548936 68.9720606,27.8310638 C68.0841212,28.7889362 66.7570909,29.3514894 65.4016364,29.4574468 C64.722,29.5106383 64.0287879,29.4493617 63.3724848,29.2561702 C62.7064242,29.0604255 62.0687879,28.7553191 61.4773939,28.3693617 C60.2916364,27.5944681 59.2984848,26.5059574 58.4894545,25.2902128 C58.0864242,24.6808511 57.7186061,24.0378723 57.4084848,23.3706383 C57.0941212,22.7017021 56.8107273,21.9995745 56.5014545,21.3021277 C55.8935152,19.9059574 55.1981818,18.5055319 54.2347273,17.2612766 C53.284,16.0238298 52.0252727,14.9302128 50.5035152,14.4025532 C49.7504848,14.1344681 48.9626667,13.9787234 48.1744242,13.9357447 C47.7769091,13.9378723 47.3925455,13.8995745 46.984,13.9374468 L46.6768485,13.9697872 C46.5750303,13.9868085 46.4740606,14.0131915 46.3726667,14.0348936 C46.1677576,14.0706383 45.9734545,14.1523404 45.7761818,14.2217021 C45.0032121,14.5404255 44.3307879,15.132766 43.9379394,15.8668085 C43.5234545,16.5923404 43.3677576,17.4302128 43.3953333,18.2417021 C43.4445455,19.052766 43.6706667,19.8587234 44.1033939,20.5442553 C44.5272121,21.232766 45.1194545,21.8144681 45.8071515,22.2148936 C46.4948485,22.6178723 47.2563636,22.8548936 48.0174545,22.9689362 C48.7815152,23.0812766 49.544303,23.0587234 50.2871515,22.9808511 C51.7660606,22.792766 53.1728485,22.3961702 54.5024242,21.8565957 C57.162,20.7702128 59.4359394,19.1238298 61.3793939,17.3604255 C63.3253939,15.5868085 64.9493939,13.6676596 66.3375152,11.7808511 C67.0328485,10.8378723 67.6649697,9.89744681 68.2474545,8.97744681 C68.5384848,8.5187234 68.8155152,8.05914894 69.0815152,7.6187234 C69.3593939,7.19617021 69.6258182,6.78638298 69.9096364,6.40085106 C71.0712121,4.88212766 72.4606061,3.80510638 73.8292121,3.22553191 C75.208,2.65744681 76.511697,2.55276596 77.5438788,2.62595745 C78.5858182,2.68425532 79.3579394,2.95276596 79.8666061,3.10425532 C82.3789697,3.97574468 84.9057576,6.08170213 86.4046061,9.06340426 C87.1525455,10.5489362 87.6506061,12.2314894 87.8207273,13.9987234 C87.9933939,15.7668085 87.8033333,17.6097872 87.3192727,19.4017021 C87.0825455,20.2910638 86.7605455,21.2068085 86.4406667,22.1102128 C86.115697,23.0144681 85.7631515,23.9114894 85.3855758,24.7987234 C84.6215152,26.567234 83.7276364,28.292766 82.6033939,29.832766 C82.0455152,30.6051064 81.4112727,31.3102128 80.7235758,31.9408511 C80.5462424,32.0910638 80.3790909,32.2557447 80.1941212,32.3948936 L79.6379394,32.8085106 C79.2510303,33.0761702 78.8513939,33.3259574 78.4462424,33.5531915 C77.6367879,34.0085106 76.7891515,34.3680851 75.9190303,34.5719149 C75.054,34.7731915 74.1575758,34.8076596 73.2866061,34.6978723 C71.5408485,34.4787234 69.9092121,33.6965957 68.6555758,32.5923404 C68.0281212,32.04 67.4918788,31.4051064 67.0735758,30.7204255 C66.6561212,30.0446809 66.3778182,29.2893617 66.1784242,28.5348936 C65.7796364,27.0208511 65.7053939,25.4846809 65.8309697,24.0757447 C65.9459394,22.6621277 66.2908485,21.3642553 66.7850909,20.2757447 C67.2920606,19.1991489 67.9831515,18.3059574 68.7098788,17.7182979 C69.4391515,17.1246809 70.2303636,16.852766 70.9176364,16.707234 C71.6040606,16.5574468 72.1873939,16.5476596 72.6061212,16.527234 C73.0269697,16.5289362 73.2912727,16.527234 73.3812121,16.5387234 C74.0120606,16.5621277 74.6382424,16.6582979 75.2572121,16.7774468 C75.8710909,16.9204255 76.4794545,17.0906383 77.0585455,17.3331915 C78.2129091,17.8119149 79.2909091,18.5080851 80.066,19.4621277 C80.1686667,19.5765957 80.263697,19.6965957 80.344303,19.826383 C80.4274545,19.9544681 80.5207879,20.0765957 80.5967273,20.2089362 C80.7375758,20.48 80.8852121,20.74 81.0107879,21.0502128 C81.2666061,21.6480851 81.5444848,22.2378723 81.7744242,22.8455319 C82.2737576,24.046383 82.684,25.2778723 83.0522424,26.5178723 C83.3941818,27.7625532 83.6610303,29.0289362 83.7492727,30.2982979 C83.8048485,30.933617 83.7772727,31.5638298 83.7132121,32.1838298 C83.6173333,32.7944681 83.4658788,33.3940426 83.186303,33.9165957 C82.909697,34.4382979 82.4926667,34.8625532 81.9784848,35.1012766 C81.4664242,35.3438298 80.8703636,35.4046809 80.2849091,35.3191489 C79.1067879,35.1417021 77.9995152,34.4412766 77.2015152,33.5131915 C76.7993333,33.0408511 76.4892121,32.5187234 76.2333939,31.9404255 C75.9682424,31.3510638 75.7370303,30.7476596 75.5206667,30.14 C75.097697,28.9221277 74.7667879,27.6702128 74.592,26.3995745 C74.4155152,25.1323404 74.380303,23.8395745 74.6081212,22.5995745 C74.8304242,21.3655319 75.3369697,20.1761702 76.2062424,19.3102128 C76.6351515,18.8761702 77.1442424,18.5242553 77.7012727,18.2655319 C77.9787273,18.1331915 78.2693333,18.0251064 78.568,17.9412766 C78.8670909,17.8429787 79.1530303,17.7940426 79.4563636,17.7697872 C80.6650303,17.6765957 81.8919394,18.1178723 83.0170303,18.6995745 C84.1395758,19.2876596 85.1844848,20.0446809 85.9633939,21.0217021 C86.7435758,21.9906383 87.2318788,23.1897872 87.262,24.4212766 C87.2853333,25.6029787 86.8784848,26.7965957 86.0974545,27.6702128 C85.3278788,28.5510638 84.1671515,29.0548936 83.006,28.9591489 C82.4269091,28.9195745 81.8558788,28.7476596 81.3192121,28.4944681 C80.8003636,28.2302128 80.2526667,27.8710638 79.7193939,27.5489362 C78.6494545,26.8876596 77.5930909,26.206383 76.5583636,25.4965957 C75.5215152,24.7902128 74.5181818,24.0370213 73.5517576,23.2442553 C72.5836364,22.4523404 71.6600606,21.6076596 70.8124242,20.693617 C69.9656364,19.7808511 69.1672121,18.8191489 68.4926667,17.7740426 C67.8138788,16.7289362 67.2458182,15.6353191 66.7401212,14.4753191 C66.2225455,13.3255319 65.6986061,12.1412766 64.9277576,11.0782979 C64.5421212,10.5514894 64.0975152,10.0544681 63.558303,9.64723404 C63.0250303,9.24170213 62.4170909,8.94425532 61.7747879,8.75489362 C61.1337576,8.56638298 60.4443636,8.49404255 59.7647273,8.61702128 C59.0855152,8.72638298 58.4275152,9.05574468 57.947697,9.5706383 C57.4568485,10.0787234 57.1645455,10.7548936 57.0860606,11.4361702 C56.9999394,12.1187234 57.0881818,12.8093617 57.3134545,13.4489362 C57.5467879,14.0851064 57.9222424,14.6748936 58.4326061,15.1378723 C58.6858788,15.3744681 58.9841212,15.5570213 59.2658182,15.7106383 C59.5441212,15.8851064 59.851697,16.0068085 60.1516364,16.1429787 C60.7680606,16.372766 61.4116364,16.5523404 62.0721818,16.5982979 C62.7293333,16.6446809 63.3932727,16.62 64.0355758,16.4931915 C65.3231515,16.2497872 66.526303,15.7306383 67.6424848,15.1046809 C68.7654545,14.4821277 69.8078182,13.7451064 70.8285455,12.9919149 L73.6158182,10.8621277 C74.5444848,10.1659574 75.4850303,9.47829787 76.4934545,8.96893617 L76.8744242,8.79191489 L77.2621818,8.64553191 L78.0886061,8.39404255 C78.3630909,8.30425532 78.6443636,8.24255319 78.9230909,8.17191489 C79.2018182,8.10085106 79.4809697,8.03191489 79.7639394,7.98468085 C80.8886061,7.76042553 82.0361818,7.64340426 83.1706061,7.70978723 C84.3003636,7.78085106 85.4275758,8.01829787 86.4253939,8.53021277 C87.4223636,9.03361702 88.2903636,9.79404255 88.8783636,10.7442553 C89.472303,11.6855319 89.8159394,12.7982979 89.8172121,13.9097872 C89.8189091,14.4629787 89.7336364,15.0191489 89.5266061,15.5119149 C89.4298788,15.7621277 89.2881818,15.9842553 89.1286667,16.1817021 C88.9390303,16.3731915 88.7375152,16.5693617 88.536,16.7523404 C87.6828485,17.4417021 86.563697,17.6821277 85.4776364,17.4540426 C84.390303,17.2276596 83.3564242,16.7017021 82.3793939,16.1038298 C80.4219394,14.8876596 78.6413939,13.3646809 76.8417576,11.8812766 C75.0442424,10.3880851 73.2488485,8.87659574 71.33,7.51276596 C70.3707879,6.83191489 69.3865455,6.17914894 68.3471515,5.61276596 C67.310303,5.04680851 66.2365455,4.52595745 65.0923636,4.1787234 C63.6872727,3.72723404 62.1748485,3.51787234 60.6908485,3.66468085 C59.2098182,3.8093617 57.7512727,4.25914894 56.4649697,5.03106383 C55.8226667,5.41744681 55.2261818,5.88638298 54.7069091,6.43361702 C54.1863636,6.98553191 53.7591515,7.59659574 53.3917576,8.25744681 C53.0315758,8.91914894 52.7621818,9.64382979 52.6527273,10.4068085 C52.5364848,11.167234 52.6013939,11.967234 52.8788485,12.7008511 C53.0146061,13.067234 53.2008485,13.4174468 53.4409697,13.7280851 C53.6726061,14.0455319 53.9593939,14.3217021 54.2788485,14.5510638 C54.9130909,15.0144681 55.7051515,15.2731915 56.4946667,15.2557447 C57.2892727,15.252766 58.0584242,14.9587234 58.6922424,14.5131915 C58.8521818,14.4034043 58.996,14.2731915 59.1461818,14.1514894 C59.2802424,14.0140426 59.4244848,13.8842553 59.5492121,13.7391489 C59.7884848,13.453617 60.0540606,13.1391489 60.2050909,12.7617021 C60.536,12.0251064 60.5665455,11.1974468 60.4265455,10.4468085 C60.2920606,9.68723404 60.0065455,8.97446809 59.6349091,8.31787234 C58.9022424,6.99617021 57.7432121,5.91659574 56.4021818,5.23787234 C55.0560606,4.56340426 53.5330303,4.25489362 52.0303636,4.36553191 C50.5183636,4.46255319 49.0644848,5.06510638 47.8664242,5.96553191 C46.6628485,6.86808511 45.7023636,8.11957447 45.2026061,9.55744681 C44.6960606,10.993617 44.6680606,12.5859574 45.1241212,14.0429787 C45.3523636,14.7710638 45.7252727,15.4706383 46.2453939,16.0468085 C46.7608485,16.626383 47.3976364,17.0706383 48.0628485,17.4212766 C48.7301818,17.772766 49.4331515,18.0259574 50.1382424,18.2395745 C50.8403636,18.4442553 51.5233939,18.6451064 52.2102424,18.866383 C54.9491515,19.7442553 57.6112727,20.8578723 60.0833333,22.3102128 C60.9797576,22.8387234 61.8507273,23.4097872 62.6924242,24.0217021 C63.5379394,24.5987234 64.2536364,25.3425532 65.0164242,26.0748936 C65.7715758,26.8089362 66.5347879,27.5493617 67.3629091,28.2302128 C68.1872121,28.9114894 69.077697,29.5408511 70.0780606,30.0038298 C71.0724848,30.4638298 72.2255758,30.7161702 73.36,30.5353191 C73.9263636,30.4540426 74.4655758,30.2468085 74.9627879,29.9868085 C75.2164848,29.8612766 75.446,29.7021277 75.6780606,29.5468085 C75.9105455,29.3817021 76.1298788,29.1880851 76.3292727,28.9834043 C77.1209091,28.1459574 77.5790909,27.0825532 77.8357576,26.013617 C78.0835152,24.9365957 78.1382424,23.8340426 78.0678182,22.7523404 C78.0253939,22.2080851 77.9698182,21.6804255 77.8688485,21.133617 C77.7589697,20.5880851 77.6096364,20.0689362 77.4403636,19.5582979 C77.1026667,18.5374468 76.693697,17.5506383 76.2473939,16.5812766 C75.3467273,14.6485106 74.285697,12.7855319 72.9798788,11.0774468 C72.324,10.2268085 71.6036364,9.41574468 70.7755152,8.7012766 C69.9524848,7.98978723 69.0026061,7.36340426 67.8953333,7.05361702 C67.3497576,6.88297872 66.7596364,6.83829787 66.1809697,6.87361702 C65.8933333,6.91489362 65.5997576,6.93617021 65.325697,7.03319149 C65.1869697,7.07574468 65.0452727,7.11021277 64.9103636,7.16042553 L64.5170909,7.33744681 C64.2464242,7.44297872 64.0207273,7.61574468 63.7759394,7.76042553 C63.5362424,7.90638298 63.2961212,8.11191489 63.0924848,8.32723404 C62.6788485,8.76468085 62.384,9.30340426 62.2117576,9.8587234 C61.8638788,10.9778723 61.9118182,12.1221277 62.0823636,13.2017021 C62.2567273,14.286383 62.5791515,15.3280851 62.9762424,16.3306383 C63.7746667,18.3370213 64.8768485,20.1974468 66.1750303,21.9046809 C67.4863636,23.5991489 68.9987879,25.1634043 70.8081818,26.373617 C71.7113939,26.9748936 72.6935152,27.4851064 73.7583636,27.8038298 C74.817697,28.1221277 75.9767273,28.2361702 77.0937576,27.9991489 C78.2150303,27.7812766 79.2412727,27.2029787 80.0719394,26.4642553 C80.4885455,26.093617 80.8669697,25.6855319 81.2008485,25.2493617 C81.3718182,25.0340426 81.5330303,24.8119149 81.6810909,24.5825532 C81.8304242,24.3817021 82.0060606,24.0702128 82.1040606,23.8046809 C82.4918182,22.7370213 82.6593939,21.6842553 82.8036364,20.6174468 C82.9334545,19.552766 83.0030303,18.4838298 83.0110909,17.413617 C83.0195758,15.2757447 82.8078788,13.1234043 82.2330303,11.0425532 C81.6624242,8.97446809 80.6654545,6.94212766 79.0490909,5.43446809 C77.1149697,3.68042553 74.7252121,2.5293617 72.2476364,1.88510638 C69.7632727,1.24170213 67.1936364,1.03191489 64.6486061,1.13191489 C63.3788485,1.18 62.0921212,1.31659574 60.842303,1.60468085 C59.5916364,1.88808511 58.3744848,2.30255319 57.2010303,2.81276596 C54.8562424,3.84042553 52.6853939,5.24425532 50.7983636,6.98553191 C46.9695758,10.5085106 45.6883636,16.5570213 47.9809697,21.2991489 C48.5430909,22.4787234 49.3673939,23.5421277 50.3893939,24.372766 C50.8929697,24.7995745 51.4686667,25.1302128 52.0562424,25.4268085 C52.361697,25.5489362 52.6633333,25.6851064 52.9764242,25.7846809 C53.2946061,25.8651064 53.604303,25.9885106 53.9305455,26.0310638 C55.2202424,26.2876596 56.5481212,26.2459574 57.82,26.0085106 C58.4529697,25.8953191 59.0995152,25.7251064 59.7023636,25.4859574 C60.3022424,25.2446809 60.8864242,24.9787234 61.4540606,24.6940426 C63.3466061,23.7438298 65.1789091,22.7412766 67.1083636,21.9587234 C69.0310303,21.1719149 71.034303,20.5914894 73.0846667,20.3080851 C77.1938788,19.7161702 81.4023636,20.3714894 85.3249091,21.7319149 C87.2904242,22.4144681 89.2092727,23.2446809 91.056,24.2208511 C91.992303,24.6940426 92.8709091,25.2289362 93.8173939,25.726383 C94.29,25.9757447 94.7515758,26.2459574 95.2466667,26.4510638 C95.7341212,26.6702128 96.2173333,26.9008511 96.7255758,27.0710638 C98.7284242,27.8165957 100.855152,28.2817021 103.006909,28.3025532 C104.081939,28.3259574 105.156121,28.2182979 106.218424,28.0374468 C107.275636,27.8297872 108.315455,27.5174468 109.306909,27.0770213 C110.297939,26.6442553 111.239333,26.0357447 112.038606,25.3080851 C112.141697,25.2195745 112.24903,25.1370213 112.348303,25.0438298 L112.631273,24.7459574 C112.817515,24.5446809 113.013515,24.353617 113.190848,24.1434043 L113.677455,23.4689362 C113.763576,23.3604255 113.831455,23.2382979 113.89297,23.1110638 L114.085576,22.7361702 C114.578121,21.7310638 114.761818,20.5238298 114.470364,19.4042553 C114.198424,18.2795745 113.477212,17.3114894 112.545576,16.6493617 C112.06703,16.3357447 111.538848,16.0548936 110.909697,16.0106383 C110.607212,15.9765957 110.337818,16.013617 110.050606,16.0187234 L109.626364,16.0919149 L109.414667,16.1293617 L109.208061,16.1965957 C108.646788,16.3425532 108.134727,16.6689362 107.69903,17.0557447 C107.253576,17.4459574 106.952788,17.9676596 106.730909,18.4987234 C106.502667,19.0365957 106.436909,19.6153191 106.411455,20.1821277 C106.416121,20.7506383 106.488667,21.3165957 106.652,21.8553191 C106.952788,22.9391489 107.576848,23.913617 108.341333,24.7106383 C109.110485,25.5080851 110.028545,26.1229787 110.985212,26.6293617 C111.459515,26.8961702 111.965212,27.0893617 112.461576,27.3034043 C112.973212,27.472766 113.477636,27.6702128 114.002,27.7923404 C116.080788,28.3625532 118.249515,28.5119149 120.384303,28.3621277 C122.528,28.2212766 124.622061,27.7097872 126.632545,27.0110638 C128.655758,26.3212766 130.546606,25.3404255 132.45697,24.5306383 C133.81497,23.9548936 135.295152,23.5051064 136.617515,23.2357447 C137.737091,22.9897872 138.650061,22.8468085 139.67503,22.7259574 C139.273697,22.7068085 138.895697,22.6689362 138.499879,22.6421277 C138.104909,22.6238298 137.694667,22.6412766 137.227576,22.6876596 C135.476303,22.9195745 133.764909,23.4314894 132.132848,24.1114894 C130.499515,24.7914894 128.916242,25.572766 127.267636,26.1829787 C125.62497,26.7995745 123.923758,27.2778723 122.194545,27.5531915 C120.465333,27.8234043 118.700909,27.8906383 116.961091,27.7046809 C115.223818,27.5170213 113.507758,27.0897872 111.919394,26.3757447 C111.13497,26.0042553 110.365818,25.5851064 109.69297,25.0408511 C109.014182,24.5114894 108.391394,23.8948936 107.951455,23.1634043 C107.495818,22.4434043 107.192061,21.6234043 107.092364,20.7821277 C106.984182,19.9421277 107.12503,19.0744681 107.514909,18.3438298 C107.890788,17.5995745 108.585273,17.0625532 109.375636,16.8161702 C109.769333,16.6846809 110.191879,16.6391489 110.614424,16.6348936 C110.722606,16.6238298 110.821455,16.6361702 110.918182,16.653617 C111.015758,16.6714894 111.115879,16.6723404 111.212182,16.7021277 C111.402667,16.7761702 111.60503,16.8148936 111.782788,16.9289362 C112.22103,17.1280851 112.585455,17.4676596 112.929091,17.8085106 C113.238364,18.1834043 113.526,18.5859574 113.698667,19.0429787 C114.073697,19.9434043 114.093212,20.972766 113.772909,21.9017021 C113.73303,22.0178723 113.705455,22.1387234 113.656242,22.2514894 L113.487818,22.5825532 C113.374545,22.8029787 113.274424,23.0306383 113.114909,23.2255319 C112.967273,23.427234 112.827273,23.6344681 112.675818,23.832766 L112.158667,24.3821277 C111.442121,25.0880851 110.655576,25.7417021 109.760848,26.206383 C108.871212,26.6838298 107.913697,27.0331915 106.934121,27.2897872 C105.951576,27.5438298 104.939758,27.6625532 103.927515,27.7285106 C101.897515,27.7995745 99.8590303,27.5029787 97.9219394,26.8906383 C97.4247273,26.7374468 96.9427879,26.5370213 96.4523636,26.3629787 C95.9738182,26.1582979 95.5020606,25.9370213 95.0264848,25.7251064 L93.6489697,24.9855319 L92.2663636,24.2148936 C90.4115758,23.2089362 88.5024848,22.2948936 86.5263636,21.5438298 C84.547697,20.8004255 82.503697,20.2174468 80.4147273,19.8668085 C78.3244848,19.5242553 76.1909697,19.4323404 74.0778182,19.6208511 C71.9667879,19.8208511 69.8858788,20.3144681 67.901697,21.052766 C65.9124242,21.7817021 64.0258182,22.7497872 62.1638182,23.7208511 C61.2300606,24.1995745 60.2975758,24.6838298 59.3273333,25.0438298 C58.8453939,25.2370213 58.3481818,25.3548936 57.8373939,25.4540426 C57.5845455,25.5089362 57.3304242,25.5604255 57.0729091,25.5817021 C56.8158182,25.6059574 56.56,25.6540426 56.3016364,25.6591489 C54.2440606,25.8008511 52.1296364,25.1940426 50.5633333,23.8417021 C48.9847273,22.5051064 47.9890303,20.5591489 47.5796364,18.5310638 C47.1655758,16.493617 47.3034545,14.3502128 47.936,12.3685106 C48.5846667,10.3919149 49.7364848,8.58212766 51.2807273,7.1893617 C52.8351515,5.79489362 54.5838788,4.61276596 56.4552121,3.68851064 C58.3265455,2.76723404 60.3319394,2.10297872 62.3954545,1.81617021 C64.4598182,1.55361702 66.57,1.54297872 68.6424242,1.76425532 C70.714,1.98978723 72.7677576,2.46595745 74.6700606,3.30340426 C75.615697,3.72723404 76.5371515,4.21702128 77.3678182,4.83659574 C77.5824848,4.98212766 77.7895152,5.13617021 77.9829697,5.30851064 C78.1798182,5.47574468 78.3830303,5.63744681 78.5743636,5.80978723 C78.9434545,6.16425532 79.2947273,6.5387234 79.6001818,6.95234043 C80.9208485,8.69617021 81.6564848,10.866383 82.0319394,13.0506383 C82.2987879,14.6497872 82.3959394,16.28 82.3471515,17.9046809 C82.2941212,19.5259574 82.1320606,21.1591489 81.7400606,22.7221277 C81.6382424,23.107234 81.5249697,23.5012766 81.3569697,23.8348936 C81.2827273,23.9897872 81.1486667,24.1625532 81.0417576,24.3268085 C80.9331515,24.4961702 80.8088485,24.6531915 80.6866667,24.8114894 C80.1962424,25.4425532 79.6290303,26.012766 78.9795152,26.4621277 C78.3312727,26.913617 77.5901212,27.2153191 76.819697,27.3587234 C76.0471515,27.4923404 75.2466061,27.4540426 74.4740606,27.2829787 C72.9230303,26.9276596 71.4971515,26.1021277 70.2358788,25.1059574 C68.9699394,24.1046809 67.8452727,22.9221277 66.8474545,21.6455319 C65.8513333,20.366383 64.9786667,18.9876596 64.2612727,17.5340426 C63.5481212,16.0817021 62.9800606,14.5438298 62.7335758,12.9561702 C62.6215758,12.1655319 62.5821212,11.3557447 62.7327273,10.5859574 C62.8659394,9.81446809 63.224,9.09319149 63.7946061,8.5893617 C64.3940606,8.11702128 65.1148485,7.72851064 65.8733939,7.59702128 C66.6340606,7.45659574 67.4261212,7.56468085 68.1562424,7.84723404 C69.6300606,8.41957447 70.8425455,9.56042553 71.8861818,10.7782979 C72.9315152,12.0110638 73.823697,13.3787234 74.6106667,14.7995745 C75.3997576,16.22 76.0832121,17.7042553 76.6406667,19.227234 C76.9121818,19.9897872 77.1633333,20.7659574 77.2880606,21.5468085 C77.4132121,22.3442553 77.4704848,23.1510638 77.4505455,23.9531915 C77.4093939,25.5417021 77.0284242,27.1889362 76.0140606,28.3846809 C75.7590909,28.6804255 75.4799394,28.9365957 75.1426667,29.1442553 C74.8206667,29.3719149 74.4672727,29.5412766 74.1083636,29.6868085 C73.3829091,29.9604255 72.591697,30.0365957 71.8250909,29.9021277 C70.1858182,29.6182979 68.7480606,28.5902128 67.4566667,27.4965957 C66.1453333,26.3914894 65.003697,25.106383 63.6520606,23.9646809 C60.8749697,21.832766 57.7627273,20.2080851 54.5058182,18.9961702 C53.6933939,18.6885106 52.8703636,18.4123404 52.0439394,18.1497872 C51.2204848,17.8765957 50.3698788,17.6710638 49.5841818,17.3868085 C48.7933939,17.1004255 48.0335758,16.7357447 47.3870303,16.232766 C46.7370909,15.7340426 46.2305455,15.0855319 45.918303,14.3310638 C45.6039394,13.5804255 45.4520606,12.7506383 45.4575758,11.9268085 C45.4512121,11.1034043 45.6098788,10.2817021 45.92,9.52 C46.5309091,7.99021277 47.7153939,6.70765957 49.1675758,5.92340426 C50.61,5.11021277 52.3107879,4.8506383 53.9360606,5.13957447 C55.5545455,5.42851064 57.0890303,6.24 58.1691515,7.46595745 C58.7130303,8.07234043 59.1410909,8.79404255 59.4389091,9.54978723 C59.7278182,10.3055319 59.879697,11.1229787 59.7354545,11.8714894 C59.6650303,12.2425532 59.5305455,12.5970213 59.3061212,12.892766 C59.0723636,13.2034043 58.8,13.512766 58.4932727,13.7523404 C57.8933939,14.2587234 57.1382424,14.5387234 56.3843636,14.5285106 C55.6296364,14.5093617 54.8927273,14.186383 54.3471515,13.6540426 C53.8079394,13.1153191 53.4562424,12.3885106 53.3709697,11.6161702 C53.2721212,10.8442553 53.4227273,10.0404255 53.7209697,9.29446809 C54.0272727,8.54893617 54.4841818,7.84978723 55.0115152,7.22212766 C56.0649091,5.98042553 57.5620606,5.13957447 59.1512727,4.71659574 C60.7493939,4.28382979 62.441697,4.27148936 64.05,4.68510638 C65.8453939,5.11531915 67.5381212,5.97148936 69.1345455,6.96808511 C70.7364848,7.96382979 72.2493333,9.11957447 73.7329091,10.3165957 L78.1683636,13.972766 C79.6680606,15.1791489 81.1974545,16.3791489 82.9449091,17.3178723 C83.8247879,17.7693617 84.7738182,18.1617021 85.821697,18.2744681 C85.9527879,18.2859574 86.0813333,18.3106383 86.2145455,18.3097872 L86.6150303,18.2919149 C86.8835758,18.2965957 87.1466061,18.2276596 87.4100606,18.1651064 C87.9331515,18.0357447 88.4261212,17.7825532 88.8507879,17.4668085 C89.083697,17.3276596 89.25,17.1259574 89.4438788,16.9493617 C89.5367879,16.8540426 89.6335152,16.7778723 89.7221818,16.6655319 C89.8057576,16.5506383 89.9092727,16.4425532 89.9733333,16.3187234 C90.2694545,15.8382979 90.4289697,15.3148936 90.5142424,14.7944681 C90.6703636,13.7506383 90.5405455,12.6995745 90.1973333,11.7306383 C89.8651515,10.7561702 89.2928485,9.86723404 88.5686667,9.13914894 C87.8355758,8.41702128 86.9467879,7.86340426 85.9969091,7.50468085 C85.0440606,7.15148936 84.0411515,6.9787234 83.0467273,6.93659574 C82.0501818,6.9 81.0629697,6.99106383 80.0935758,7.14893617 C79.1246061,7.31361702 78.1772727,7.56382979 77.2481818,7.85702128 C76.2656364,8.14765957 75.3967879,8.6893617 74.5907273,9.22723404 C72.9824242,10.333617 71.5192121,11.5668085 69.9834545,12.6825532 C68.4544848,13.7931915 66.862303,14.8395745 65.1224848,15.4391489 C64.2557576,15.7340426 63.3546667,15.9034043 62.4607879,15.8765957 C61.5677576,15.852766 60.6878788,15.6276596 59.8856364,15.2165957 L59.2976364,14.8821277 L59.0456364,14.6991489 C58.9633333,14.6353191 58.8912121,14.5578723 58.8127273,14.4885106 C58.5157576,14.1910638 58.2752121,13.8297872 58.1004242,13.4374468 C57.7457576,12.6544681 57.6749091,11.7276596 57.9464242,10.9438298 C58.2081818,10.1587234 58.8789091,9.55659574 59.697697,9.3693617 C60.5139394,9.1706383 61.4252121,9.32893617 62.2253333,9.69276596 C62.6270909,9.87574468 63.0067879,10.1123404 63.3449091,10.3948936 C63.6745455,10.6765957 63.9838182,11.0225532 64.2578788,11.3834043 C64.8106667,12.1110638 65.2450909,12.9412766 65.647697,13.7982979 C66.0549697,14.6544681 66.4126061,15.5493617 66.8801212,16.4140426 C67.3170909,17.2914894 67.8571515,18.1102128 68.4158788,18.9097872 C69.5872121,20.5242553 70.9808485,21.9561702 72.4716364,23.2557447 C73.9692121,24.5497872 75.5741212,25.7021277 77.2129697,26.7897872 C78.0334545,27.3319149 78.863697,27.8574468 79.6986061,28.3719149 C80.1156364,28.6285106 80.5241818,28.8880851 80.9959394,29.1319149 C81.4668485,29.3506383 81.9610909,29.5417021 82.4871515,29.62 C83.0068485,29.7187234 83.5511515,29.7161702 84.0763636,29.6174468 C84.6041212,29.5285106 85.1140606,29.3314894 85.5675758,29.0497872 C86.4881818,28.5004255 87.1784242,27.6255319 87.5797576,26.652766 C87.9785455,25.6765957 88.0994545,24.587234 87.9178788,23.5523404 C87.7553939,22.5110638 87.2976364,21.5361702 86.6748485,20.7114894 C86.0529091,19.8817021 85.2697576,19.1957447 84.421697,18.6378723 C83.567697,18.0851064 82.6759394,17.6161702 81.6929697,17.2987234 C80.7193333,16.9817021 79.6222424,16.8493617 78.5709697,17.1191489 C78.0699394,17.253617 77.5778182,17.4310638 77.1090303,17.6693617 C76.6444848,17.9157447 76.2070909,18.2182979 75.8163636,18.5757447 C75.0374545,19.2953191 74.4732121,20.2268085 74.1401818,21.2085106 C73.7995152,22.1914894 73.6552727,23.2204255 73.6374545,24.2348936 C73.6035152,26.5659574 74.1380606,28.8374468 74.9313939,30.9765957 C75.1320606,31.5144681 75.3433333,32.0357447 75.5885455,32.5651064 C75.8392727,33.1157447 76.1807879,33.6174468 76.5634545,34.0821277 C77.3504242,34.9893617 78.3677576,35.7212766 79.560303,36.0553191 C80.1529697,36.2221277 80.7914545,36.2893617 81.4295152,36.1880851 C82.0654545,36.0868085 82.6882424,35.7923404 83.1684848,35.3519149 C83.6504242,34.9123404 83.9970303,34.3578723 84.2252727,33.7821277 C84.4361212,33.2029787 84.5773939,32.6068085 84.6249091,32.0153191 C84.8327879,29.6357447 84.2693939,27.3697872 83.5965455,25.2042553 C83.4387273,24.6795745 83.2393333,24.1719149 83.062,23.6553191 C82.8736364,23.1434043 82.6632121,22.6417021 82.4650909,22.1340426 C82.2584848,21.6310638 82.0319394,21.1370213 81.8164242,20.6378723 C81.7184242,20.392766 81.5792727,20.132766 81.4413939,19.8744681 C81.3145455,19.6110638 81.1266061,19.386383 80.9704848,19.1412766 C80.2721818,18.2106383 79.3481818,17.4893617 78.3558788,16.9506383 C77.3601818,16.4085106 76.2813333,16.0587234 75.1850909,15.8514894 C74.0875758,15.6451064 72.9658788,15.5817021 71.8505455,15.6702128 C70.7381818,15.7638298 69.5795758,16.0417021 68.5927879,16.7004255 C66.6472121,18.0395745 65.6209697,20.2331915 65.1818788,22.3978723 C64.751697,24.5791489 64.7907273,26.8459574 65.3969697,29 C65.5488485,29.5382979 65.7558788,30.0629787 65.9968485,30.5744681 C66.1304848,30.8238298 66.2666667,31.0757447 66.4155758,31.3157447 C66.5797576,31.5446809 66.7210303,31.7914894 66.9064242,32.0038298 C67.6038788,32.8880851 68.4561818,33.6425532 69.4107273,34.2276596 C71.317697,35.3838298 73.6476364,35.912766 75.8651515,35.4544681 C76.9728485,35.2425532 78.0037576,34.7838298 78.958303,34.2404255 C79.9069091,33.6974468 80.8152121,33.0421277 81.6098182,32.2706383 C83.1947879,30.7221277 84.3559394,28.833617 85.3308485,26.8961702 C86.2917576,24.9446809 87.0617576,22.9144681 87.7384242,20.8638298 C88.453697,18.8038298 88.7913939,16.5880851 88.6581818,14.3953191 C88.6543636,14.1204255 88.6208485,13.8476596 88.5830909,13.5753191 C88.5457576,13.3029787 88.520303,13.0293617 88.4727879,12.7587234 C88.3548485,12.2221277 88.2657576,11.6782979 88.0909697,11.1561702 C87.795697,10.0970213 87.3519394,9.08212766 86.8101818,8.12723404 C86.2798788,7.16382979 85.6095758,6.28042553 84.855697,5.48170213 C84.488303,5.07148936 84.0670303,4.71617021 83.6555152,4.3506383 C83.2164242,4.01914894 82.7828485,3.6787234 82.3051515,3.4012766 C81.3650303,2.82893617 80.3464242,2.37361702 79.2722424,2.1 C78.1967879,1.83702128 77.0738182,1.75021277 75.9682424,1.87234043 C73.7371515,2.08510638 71.6838182,3.27276596 70.1735152,4.87319149 C69.9694545,5.0612766 69.8052727,5.28382979 69.6275152,5.49489362 C69.4573939,5.71191489 69.2664848,5.91404255 69.1137576,6.14297872 C68.8108485,6.5987234 68.4799394,7.05276596 68.2135152,7.51531915 C67.6586061,8.4306383 67.0837576,9.32765957 66.473697,10.2025532 C64.9926667,12.3293617 63.3419394,14.3417021 61.4803636,16.1289362 C59.6213333,17.9123404 57.5459394,19.4808511 55.2465455,20.5944681 C54.0985455,21.1497872 52.8966667,21.5880851 51.6604242,21.8719149 C50.4216364,22.1587234 49.1658788,22.2902128 47.9644242,22.0825532 C46.7680606,21.8910638 45.668,21.2787234 44.9883636,20.3259574 C44.3180606,19.3774468 44.0745455,18.112766 44.3961212,17.0038298 C44.5573333,16.4557447 44.8364848,15.94 45.2509697,15.567234 C45.6599394,15.1902128 46.1749697,14.94 46.7358182,14.8374468 C46.8749697,14.8080851 47.0209091,14.8046809 47.1630303,14.7855319 C47.3093939,14.7748936 47.4697576,14.7876596 47.6224848,14.787234 C47.9292121,14.8038298 48.2435758,14.772766 48.5452121,14.8255319 L49.4509697,14.9710638 L50.3223636,15.2417021 C51.4589091,15.6791489 52.4537576,16.4421277 53.2615152,17.3885106 C54.0752121,18.3344681 54.713697,19.4442553 55.2711515,20.6008511 C55.8383636,21.7587234 56.2910303,22.972766 56.9053333,24.1876596 C57.526,25.3808511 58.2926061,26.5089362 59.2331515,27.4940426 C60.1711515,28.4753191 61.3072727,29.3106383 62.6088485,29.7957447 C63.9138182,30.2974468 65.3855152,30.3314894 66.7150909,29.9531915 C68.0230303,29.5868085 69.2826061,28.7974468 70.0267273,27.573617 C70.3915758,26.9668085 70.6274545,26.2719149 70.6792121,25.567234 C70.740303,24.8621277 70.6397576,24.1540426 70.4250909,23.4923404 C70.2087273,22.8293617 69.875697,22.2102128 69.4493333,21.6634043 C69.0144848,21.1195745 68.5253333,20.6591489 67.9814545,20.2459574 C67.4375758,19.8391489 66.8398182,19.4970213 66.193697,19.2612766 C65.5552121,19.0285106 64.8378182,18.8970213 64.1696364,18.9476596 C63.589697,18.9829787 63.0059394,18.9829787 62.4349091,19.1255319 L62.0038788,19.2085106 C61.8592121,19.2319149 61.7170909,19.2651064 61.5800606,19.3178723 L60.7468485,19.5974468 C59.6654545,20.0421277 58.6646667,20.647234 57.7470303,21.3195745 C55.9206667,22.6642553 54.2215758,24.0910638 52.2161818,24.9646809 C50.2358182,25.8740426 48.0653939,26.3085106 45.876303,26.4340426 C45.3252121,26.452766 44.7821818,26.4885106 44.2247273,26.4948936 L42.5468485,26.4995745 L39.1919394,26.5114894 C30.2480606,26.5685106 21.3198788,26.6255319 12.4103636,26.6821277 C1.18872727,26.7612766 -3.23230303,26.9965957 2.52424242,27.086383" id="Shape" fill="#000000" fill-rule="nonzero"></path>
                <path d="M34.8939394,71.3646809 C35.0241818,70.8859574 35.113697,70.3910638 35.2931515,69.9314894 C35.7161212,68.847234 36.4335152,68.0153191 37.4563636,67.4280851 C38.3829091,66.8965957 39.6412121,67.1531915 40.1422424,68.2561702 C40.3373939,68.0438298 40.5287273,67.8421277 40.7128485,67.633617 C40.864303,67.4621277 41.0501212,67.3370213 41.2592727,67.4706383 C41.4747879,67.6089362 41.4158182,67.8425532 41.3275758,68.0391489 C41.032303,68.6995745 40.7221818,69.353617 40.4256364,70.013617 C40.0442424,70.8629787 39.6098182,71.6931915 39.4248485,72.6178723 C39.3637576,72.9242553 39.3213333,73.2374468 39.3043636,73.5493617 C39.2975758,73.6702128 39.3552727,73.8659574 39.438,73.9017021 C39.5389697,73.9455319 39.7392121,73.9 39.8227879,73.8178723 C40.2979394,73.3493617 40.8006667,72.8961702 41.200303,72.366383 C41.8150303,71.5523404 42.3538182,70.6804255 42.9244242,69.832766 C42.9413939,69.807234 42.9528485,69.7782979 42.9723636,69.7412766 C42.8298182,69.7042553 42.6974545,69.68 42.572303,69.6344681 C41.9244848,69.3995745 41.662303,68.8510638 41.8188485,68.0868085 C41.9613939,67.3910638 42.323697,66.8412766 42.8896364,66.4204255 C43.4899394,65.973617 44.1335152,66.2395745 44.2730909,66.9808511 C44.3647273,67.466383 44.2412727,67.9259574 44.1517576,68.3910638 C44.1135758,68.5876596 44.0550303,68.78 43.9960606,69.0123404 C44.294303,68.9846809 44.577697,68.9595745 44.8610909,68.932766 C45.1678182,68.9034043 45.4957576,68.8540426 45.6985455,69.1510638 C45.9208485,69.4761702 45.8105455,69.8293617 45.6535758,70.1395745 C45.2306061,70.9765957 44.9179394,71.852766 44.6930909,72.7595745 C44.6188485,73.0595745 44.5980606,73.3795745 44.5993333,73.6902128 C44.6006061,73.9914894 44.8110303,74.0957447 45.0273939,73.8897872 C45.5496364,73.3914894 46.1058182,72.907234 46.5283636,72.3289362 C47.2631515,71.3238298 47.908,70.252766 48.5872121,69.207234 C48.6232727,69.1510638 48.6432121,69.0748936 48.6440606,69.0076596 C48.6567879,68.0068085 48.665697,67.006383 48.6729091,66.0059574 C48.6737576,65.906383 48.6593333,65.807234 48.6487273,65.6612766 C47.9932727,65.8442553 47.3789697,66.0182979 46.7629697,66.186383 C46.4774545,66.2646809 46.1898182,66.3357447 45.9009091,66.4004255 C45.7999394,66.4229787 45.6930303,66.4225532 45.5890909,66.4242553 C45.3858788,66.427234 45.2081212,66.3582979 45.162303,66.1459574 C45.1186061,65.9421277 45.2785455,65.8374468 45.4406061,65.7770213 C46.0112121,65.5659574 46.5805455,65.3485106 47.1609091,65.167234 C47.5804848,65.0357447 48.0157576,64.9553191 48.4450909,64.8570213 C48.7026061,64.7982979 48.8298788,64.653617 48.8718788,64.3812766 C48.9601212,63.8089362 49.0661818,63.2382979 49.1985455,62.6748936 C49.2541212,62.4382979 49.3669697,62.2008511 49.5095152,62.0042553 C49.5854545,61.9 49.7852727,61.827234 49.9201818,61.84 C50.0898788,61.8553191 50.1785455,62.0276596 50.1645455,62.2059574 C50.1157576,62.8485106 50.0682424,63.4910638 49.9990909,64.1314894 C49.9672727,64.4251064 49.9804242,64.4468085 50.2761212,64.4268085 C50.8755758,64.3868085 51.476303,64.3642553 52.0766061,64.3370213 C52.1317576,64.3344681 52.2004848,64.333617 52.2407879,64.3629787 C52.3294545,64.427234 52.4045455,64.5106383 52.4851515,64.5868085 C52.4045455,64.6638298 52.3353939,64.786383 52.2412121,64.8102128 C51.8445455,64.9085106 51.4398182,64.9731915 51.0401818,65.0595745 C50.7109697,65.1302128 50.3872727,65.226383 50.0567879,65.2868085 C49.9061818,65.3144681 49.8493333,65.3859574 49.838303,65.5212766 C49.8035152,65.9557447 49.7479394,66.3893617 49.7386061,66.8242553 C49.6953333,68.8685106 49.7458182,70.9106383 49.922303,72.9480851 C49.9948485,73.7897872 50.1115152,74.6280851 50.2006061,75.4689362 C50.2090909,75.5459574 50.1840606,75.6621277 50.1314545,75.7 C50.0750303,75.7408511 49.9337576,75.7459574 49.8887879,75.7034043 C49.771697,75.5923404 49.6329697,75.46 49.5977576,75.3131915 C49.462,74.7434043 49.3474545,74.1676596 49.2541212,73.5889362 C49.0793333,72.5017021 48.9249091,71.4114894 48.7539394,70.2693617 C48.5965455,70.5161702 48.4641818,70.7234043 48.3318182,70.9302128 C47.7098788,71.9017021 47.0739394,72.8646809 46.2767879,73.7021277 C45.9802424,74.013617 45.6480606,74.3119149 45.2819394,74.5323404 C44.6926667,74.886383 44.1182424,74.6340426 43.8849091,73.9804255 C43.7024848,73.4689362 43.8123636,72.9608511 43.9112121,72.4544681 C44.0949091,71.5140426 44.5412121,70.6697872 44.8895152,69.7893617 C44.9069091,69.7455319 44.926,69.7029787 44.968,69.6042553 C44.5488485,69.6625532 44.1653333,69.7102128 43.7847879,69.7753191 C43.7334545,69.7842553 43.6914545,69.8782979 43.6549697,69.9387234 C42.9604848,71.1017021 42.21,72.226383 41.3504848,73.2740426 C40.9716364,73.7357447 40.5813333,74.192766 40.0535758,74.492766 C39.3896364,74.8702128 38.7761818,74.606383 38.5937576,73.8638298 C38.5445455,73.6642553 38.5398788,73.4489362 38.5428485,73.2412766 C38.5585455,72.2668085 38.9594545,71.3991489 39.3026667,70.5153191 C39.3569697,70.3753191 39.4002424,70.2306383 39.4032121,70.0582979 C39.2844242,70.1719149 39.1643636,70.2834043 39.047697,70.3987234 C38.3714545,71.0680851 37.7011515,71.7438298 37.016,72.4038298 C36.832303,72.5808511 36.6129697,72.726383 36.3936364,72.8582979 C35.8493333,73.186383 35.2655758,72.9719149 35.0445455,72.3731915 C34.9872727,72.2174468 34.9435758,72.0565957 34.8939394,71.8978723 L34.8939394,71.3646809 Z M35.7072121,71.613617 C35.7144242,71.7425532 35.7059394,71.8744681 35.7326667,71.9991489 C35.7814545,72.2297872 35.9104242,72.2855319 36.1132121,72.1702128 C36.2455758,72.0948936 36.3749697,72.0110638 36.4933333,71.9157447 C37.5781212,71.0451064 38.5050909,70.012766 39.4469091,68.9957447 C39.4838182,68.9557447 39.5173333,68.8812766 39.5067273,68.8331915 C39.4104242,68.3902128 38.9488485,68.0289362 38.4889697,68.0161702 C38.0583636,68.0046809 37.7223636,68.2187234 37.3990909,68.4629787 C36.3541818,69.2523404 35.8391515,70.3285106 35.7072121,71.613617 Z M43.5964242,67.4880851 C43.5777576,67.4817021 43.5590909,67.4748936 43.54,67.4685106 C43.5251515,67.3489362 43.5170909,67.2280851 43.4941818,67.1097872 C43.4602424,66.9353191 43.370303,66.8991489 43.2247879,67.0114894 C42.796303,67.3429787 42.5451515,67.7782979 42.4827879,68.3157447 C42.4327273,68.7459574 42.5604242,68.9148936 42.9821212,68.9748936 C43.0495758,68.9846809 43.1785455,68.9221277 43.1963636,68.866383 C43.3406061,68.4106383 43.4653333,67.9485106 43.5964242,67.4880851 Z" id="Shape" fill="#000000" fill-rule="nonzero"></path>
                <path d="M94.3358182,68.507234 C93.772,69.0408511 93.4364242,69.647234 93.1865455,70.3097872 C92.9710303,70.88 92.7839394,71.4642553 92.5255758,72.0148936 C92.2714545,72.5565957 91.7504848,72.587234 91.3707879,72.1157447 C91.015697,71.673617 90.8994545,71.1323404 90.8222424,70.5906383 C90.7467273,70.0565957 90.7204242,69.5153191 90.6720606,68.9774468 C90.6695152,68.9485106 90.6627273,68.92 90.6444848,68.8131915 C90.5609091,68.9451064 90.5066061,69.0153191 90.468,69.092766 C89.8176364,70.4153191 89.4188485,71.8195745 89.1235758,73.2578723 C89.1010909,73.3676596 89.0684242,73.4757447 89.0357576,73.5829787 C88.9806061,73.7634043 88.8601212,73.8668085 88.6704848,73.8838298 C88.4693939,73.9017021 88.3124242,73.8182979 88.2449697,73.6348936 C88.1308485,73.3276596 88.0256364,73.0144681 87.9488485,72.6961702 C87.7587879,71.9157447 87.5865455,71.1306383 87.3981818,70.306383 C87.304,70.4489362 87.2250909,70.5731915 87.1419394,70.6944681 C86.5632727,71.5455319 85.9392121,72.3574468 85.0453333,72.9038298 C84.2193333,73.4085106 83.3784848,73.4744681 82.5669091,72.8757447 C82.0955758,72.5280851 81.8652121,72.0085106 81.6819394,71.4680851 C81.6726061,71.4395745 81.663697,71.4106383 81.6424848,71.3442553 C81.4524242,71.6459574 81.2899394,71.9268085 81.1049697,72.1914894 C80.7749091,72.6646809 80.4087879,73.1008511 79.8483636,73.3195745 C79.4563636,73.472766 79.0792121,73.4340426 78.7525455,73.1859574 C78.4742424,72.9744681 78.2341212,72.7119149 78.0075758,72.5 C77.5837576,72.9574468 77.1590909,73.4612766 76.6839394,73.9110638 C76.4344848,74.146383 76.1116364,74.3255319 75.7926061,74.4595745 C75.3950909,74.6268085 75.0175152,74.4680851 74.76,74.112766 C74.4426667,73.6757447 74.3688485,73.1680851 74.338303,72.6493617 C74.3264242,72.4510638 74.3366061,72.2510638 74.3366061,72.0012766 C73.9861818,72.4531915 73.6764848,72.8706383 73.3489697,73.2719149 C72.9705455,73.7344681 72.5802424,74.1914894 72.0529091,74.4919149 C71.3885455,74.8702128 70.7750909,74.6076596 70.5922424,73.8655319 C70.5426061,73.6655319 70.5370909,73.4502128 70.5404848,73.2425532 C70.5561818,72.2685106 70.9570909,71.4004255 71.2998788,70.5161702 C71.3541818,70.3761702 71.3970303,70.2314894 71.4008485,70.0587234 C71.2824848,70.1719149 71.1624242,70.2834043 71.0461818,70.3982979 C70.3690909,71.0676596 69.6992121,71.7434043 69.0136364,72.4038298 C68.8299394,72.5804255 68.6106061,72.7259574 68.3912727,72.8582979 C67.8469697,73.186383 67.2640606,72.9719149 67.0413333,72.373617 C67.0001818,72.2625532 66.9662424,72.1489362 66.9378182,72.0629787 C66.5750909,72.446383 66.2306061,72.8523404 65.842,73.2102128 C65.2646061,73.7421277 64.5650303,74.0004255 63.7767879,74.0089362 C63.0975758,74.0161702 62.5452121,73.6229787 62.2482424,72.9191489 C62.0284848,72.3974468 61.9478788,71.852766 61.9601818,71.2902128 C61.9627273,71.1642553 61.9606061,71.0382979 61.9606061,70.8395745 C61.7327879,71.1748936 61.5571515,71.4587234 61.3569091,71.7242553 C60.8673333,72.373617 60.3870909,73.0319149 59.8614545,73.6510638 C59.5886667,73.9714894 59.2564848,74.2638298 58.899697,74.4846809 C58.2158182,74.9076596 57.5281212,74.5476596 57.4190909,73.7468085 C57.3172727,73 57.4827273,72.2897872 57.7393939,71.5957447 C57.9086667,71.1361702 58.0834545,70.6787234 58.254,70.2195745 C58.2701212,70.1761702 58.2739394,70.1276596 58.2972727,70.0165957 C58.1347879,70.1719149 58.0147273,70.2838298 57.8980606,70.3991489 C57.2213939,71.0685106 56.5510909,71.7442553 55.8659394,72.4042553 C55.6818182,72.5812766 55.4624848,72.7268085 55.2431515,72.8587234 C54.6988485,73.1868085 54.124,72.9680851 53.8915152,72.373617 C53.6772727,71.8251064 53.7515152,71.2825532 53.884303,70.7353191 C54.2054545,69.412766 54.8859394,68.3361702 56.0373333,67.5889362 C56.5939394,67.2276596 57.1840606,67.0217021 57.8611515,67.2361702 C58.3872121,67.4025532 58.7452727,67.7425532 58.9875152,68.2587234 C59.0884848,68.1506383 59.1788485,68.0531915 59.2700606,67.9565957 C59.4079394,67.8097872 59.5275758,67.6344681 59.6913333,67.5268085 C59.7995152,67.4553191 59.991697,67.4310638 60.1066667,67.48 C60.1855758,67.513617 60.2470909,67.7182979 60.2258788,67.8297872 C60.1868485,68.0387234 60.0918182,68.2395745 60.0035758,68.4365957 C59.5258788,69.5080851 59.0273939,70.5710638 58.5675152,71.6506383 C58.3146667,72.2438298 58.1615152,72.873617 58.1530303,73.5255319 C58.1509091,73.6561702 58.2043636,73.8655319 58.2892121,73.9008511 C58.3952727,73.9446809 58.5929697,73.8868085 58.6947879,73.8034043 C59.3574545,73.2578723 59.9280606,72.62 60.4074545,71.9085106 C60.956,71.0944681 61.4816364,70.2651064 62.0072727,69.4357447 C62.2321212,69.0808511 62.4319394,68.7093617 62.6449091,68.346383 C63.2795758,67.2625532 64.3690303,67.2259574 65.129697,68.2808511 C65.3295152,68.5578723 65.4695152,68.8817021 65.6103636,69.1957447 C65.7185455,69.4374468 65.6264848,69.6514894 65.4279394,69.7212766 C65.2442424,69.7855319 65.0800606,69.6676596 64.9633939,69.4387234 C64.7962424,69.1114894 64.6426667,68.7659574 64.4148485,68.4838298 C64.0593333,68.0434043 63.5850303,68.0791489 63.3186061,68.5761702 C63.0975758,68.9889362 62.9325455,69.4421277 62.8141818,69.8961702 C62.6067273,70.6910638 62.5621818,71.5034043 62.7348485,72.3165957 C62.7399394,72.3404255 62.7424848,72.3646809 62.749697,72.3876596 C63.0441212,73.3187234 63.4378182,73.3876596 64.2158788,73.28 C64.8212727,73.1957447 65.2998182,72.8476596 65.7151515,72.4174468 C66.2793939,71.833617 66.7125455,71.152766 67.0930909,70.4412766 C67.3234545,70.0110638 67.464303,69.5319149 67.7078182,69.1110638 C68.1617576,68.326383 68.811697,67.7365957 69.634303,67.3412766 C70.5498182,66.9021277 71.5870909,67.2348936 72.0694545,68.1340426 C72.0885455,68.1693617 72.1106061,68.2029787 72.1411515,68.2540426 C72.3418182,68.0365957 72.5395152,67.826383 72.7321212,67.6106383 C72.8814545,67.4434043 73.0664242,67.3455319 73.2628485,67.4753191 C73.4673333,67.6110638 73.4130303,67.8370213 73.332,68.0246809 C73.1410909,68.4676596 72.9285455,68.9012766 72.7342424,69.3429787 C72.353697,70.2106383 71.9434545,71.0685106 71.6155152,71.9565957 C71.4343636,72.4468085 71.3817576,72.9880851 71.3028485,73.5110638 C71.2833333,73.6391489 71.3575758,73.8740426 71.4424242,73.9034043 C71.5595152,73.9442553 71.7614545,73.8761702 71.8683636,73.7855319 C72.4970909,73.2514894 73.0452121,72.6391489 73.5199394,71.9621277 C73.7876364,71.5795745 74.0655152,71.2029787 74.3128485,70.807234 C74.5334545,70.4540426 74.6955152,70.0642553 74.9229091,69.7161702 C75.1710909,69.3340426 75.4315758,68.9497872 75.7450909,68.6238298 C76.0972121,68.2591489 76.5600606,68.1565957 77.0861212,68.3306383 C77.1043636,67.9868085 77.1187879,67.6531915 77.1395758,67.3204255 C77.2150909,66.1361702 77.3347273,64.96 77.7182424,63.826383 C77.9095758,63.2617021 78.1543636,62.7382979 78.6494545,62.3659574 C79.3375758,61.8489362 80.2416364,61.9455319 80.6412727,62.5948936 C80.8444848,62.9234043 80.9378182,63.2829787 80.9577576,63.6706383 C81.0489697,65.4570213 80.6527273,67.147234 79.9255758,68.76 C79.4966667,69.7110638 78.9964848,70.6302128 78.5183636,71.5591489 C78.4470909,71.6974468 78.4203636,71.8068085 78.5196364,71.9323404 C78.6749091,72.126383 78.8119394,72.3378723 78.9871515,72.5123404 C79.2497576,72.7753191 79.5013333,72.7906383 79.8127273,72.5834043 C80.2764242,72.2753191 80.57,71.8170213 80.8321818,71.3442553 C81.1864242,70.7059574 81.5113939,70.0578723 81.6955152,69.3357447 C81.9,68.5382979 82.223697,67.7761702 82.8324848,67.186383 C83.4438182,66.5948936 84.2621818,66.4902128 84.9324848,66.893617 C85.594303,67.2923404 85.8106667,67.8493617 85.6307879,68.626383 C85.4729697,69.3089362 85.0703636,69.8097872 84.5201212,70.2093617 C83.8871515,70.6685106 83.2393333,71.1008511 82.4655152,71.2897872 C82.4286061,71.2987234 82.3955152,71.3234043 82.3632727,71.34 C82.5809091,72.4 83.6113939,72.9076596 84.5451515,72.4161702 C85.2018788,72.0706383 85.7003636,71.5404255 86.126303,70.9476596 C86.4822424,70.4523404 86.7991515,69.9276596 87.1181818,69.406383 C87.1737576,69.3161702 87.1771515,69.1778723 87.1652727,69.0655319 C87.1419394,68.8417021 87.0876364,68.6217021 87.0549697,68.3987234 C87.0286667,68.2195745 87.0664242,68.0561702 87.2373939,67.96 C87.4198182,67.8574468 87.5687273,67.9582979 87.694303,68.072766 C87.9997576,68.3510638 88.1257576,68.7280851 88.2033939,69.1165957 C88.3735152,69.9608511 88.5266667,70.8080851 88.6878788,71.653617 C88.6950909,71.6902128 88.7124848,71.7251064 88.7489697,71.8268085 C88.8393333,71.5446809 88.9093333,71.3225532 88.9814545,71.1012766 C89.3386667,70.0034043 89.7798788,68.9438298 90.4204848,67.9774468 C90.6491515,67.6331915 90.8820606,67.5365957 91.1306667,67.7234043 C91.2528485,67.8148936 91.365697,67.9829787 91.3890303,68.1310638 C91.5052727,68.8629787 91.5820606,69.6004255 91.6902424,70.333617 C91.7441212,70.6965957 91.8349091,71.0544681 91.9091515,71.4144681 C91.9346061,71.4174468 91.9604848,71.42 91.9863636,71.4225532 C92.0330303,71.3276596 92.0788485,71.2323404 92.1263636,71.1378723 C92.5047879,70.3851064 92.8416364,69.607234 93.2773333,68.8902128 C93.5127879,68.5029787 93.8907879,68.1868085 94.2522424,67.8982979 C94.6319394,67.5944681 94.9730303,67.7719149 95.0095152,68.26 C95.0345455,68.5978723 95.0213939,68.9382979 95.0260606,69.2778723 C95.0400606,70.2710638 95.0489697,71.2642553 95.0748485,72.2570213 C95.0782424,72.4025532 95.1622424,72.5459574 95.2089091,72.6902128 C95.3370303,72.5897872 95.5181818,72.5161702 95.5826667,72.3846809 C95.8647879,71.8085106 96.1439394,71.2268085 96.3653939,70.6255319 C96.6229091,69.9259574 96.8172121,69.2025532 97.0433333,68.4914894 C97.0895758,68.346383 97.1256364,68.1834043 97.2185455,68.0731915 C97.3110303,67.9634043 97.4701212,67.8451064 97.5982424,67.847234 C97.7933939,67.8514894 97.8553333,68.0395745 97.8383636,68.227234 C97.7832121,68.8378723 97.7369697,69.4489362 97.6644242,70.0570213 C97.564303,70.9021277 97.5125455,71.7446809 97.6843636,72.5851064 C97.707697,72.6974468 97.7726061,72.8012766 97.8175758,72.9085106 C97.9350909,72.8510638 98.0784848,72.8195745 98.166303,72.7319149 C98.7691515,72.1310638 99.2905455,71.46 99.6600606,70.693617 C100.151333,69.673617 100.594667,68.6306383 101.04903,67.593617 C101.13897,67.3880851 101.262424,67.2387234 101.489818,67.2531915 C101.718485,67.2680851 101.807576,67.447234 101.837697,67.6544681 C101.858485,67.7974468 101.883091,67.9412766 101.883515,68.0851064 C101.887333,69.1740426 101.885636,70.2629787 101.941212,71.3697872 C102.233515,71.0417021 102.525818,70.713617 102.817697,70.3855319 C103.15497,70.0055319 103.491394,69.6246809 103.830364,69.246383 C103.883818,69.187234 103.946182,69.1017021 104.010667,69.0953191 C104.13497,69.0825532 104.302545,69.0753191 104.378909,69.1455319 C104.455273,69.2157447 104.476061,69.3893617 104.457394,69.507234 C104.441697,69.6051064 104.337333,69.6923404 104.263515,69.7770213 C103.516848,70.6348936 102.765515,71.4880851 102.025212,72.3514894 C101.945879,72.4438298 101.89497,72.5889362 101.88903,72.7123404 C101.831333,73.9629787 101.794,75.2144681 101.73503,76.4651064 C101.685818,77.5102128 101.440182,78.4978723 100.862788,79.3919149 C100.397394,80.1131915 99.6889091,80.2080851 99.1284848,79.5655319 C98.9273939,79.3344681 98.7593939,79.0506383 98.6558788,78.7621277 C98.3283636,77.8540426 98.4051515,76.9408511 98.7118788,76.0387234 C99.1704848,74.6897872 99.9133333,73.4974468 100.741455,72.3540426 C100.900545,72.1344681 100.979879,71.9131915 100.974788,71.6395745 C100.965455,71.2038298 100.990909,70.767234 100.997697,70.3310638 C100.99897,70.2476596 100.980303,70.1638298 100.919212,70.0680851 C100.884424,70.1353191 100.846667,70.2012766 100.815273,70.2693617 C100.308727,71.3553191 99.7109697,72.3821277 98.8730909,73.2497872 C98.7394545,73.3876596 98.589697,73.5144681 98.4310303,73.6229787 C97.8048485,74.0514894 97.1277576,73.8451064 96.8592121,73.1140426 C96.7192121,72.733617 96.6661818,72.3212766 96.5800606,71.9489362 C96.4243636,72.2021277 96.2644242,72.5068085 96.0612121,72.7791489 C95.9144242,72.9753191 95.7311515,73.1591489 95.5279394,73.2931915 C95.1770909,73.5246809 94.8461818,73.4221277 94.6332121,73.053617 C94.3922424,72.6378723 94.3141818,72.1710638 94.3061212,71.7059574 C94.2925455,70.8353191 94.3235152,69.9638298 94.3353939,69.092766 C94.3375152,68.9170213 94.3358182,68.7412766 94.3358182,68.507234 M78.0869091,70.7885106 C78.1658182,70.666383 78.216303,70.6042553 78.2498182,70.5340426 C78.6626061,69.6634043 79.1106061,68.8076596 79.4750303,67.9170213 C80.0316364,66.5578723 80.3629697,65.1421277 80.2798182,63.6565957 C80.2687879,63.4514894 80.218303,63.2425532 80.1504242,63.0476596 C80.0320606,62.7097872 79.7431515,62.5914894 79.4135152,62.7285106 C79.1555758,62.8357447 78.9281818,62.9880851 78.8178788,63.2604255 C78.639697,63.6982979 78.4411515,64.1314894 78.303697,64.5825532 C78.0003636,65.5757447 77.9057576,66.6051064 77.8794545,67.6378723 C77.8535758,68.6685106 77.8730909,69.6987234 78.0869091,70.7885106 M75.0548485,72.227234 C75.1218788,72.6234043 75.1570909,72.9510638 75.236,73.2685106 C75.3840606,73.867234 75.5287273,73.9093617 76.0212727,73.5302128 C76.6423636,73.0519149 77.1187879,72.4455319 77.5311515,71.7868085 C77.5858788,71.6995745 77.5930909,71.5591489 77.5735758,71.452766 C77.5158788,71.1451064 77.4284848,70.8434043 77.362303,70.5374468 C77.2850909,70.1846809 77.239697,69.8229787 77.1412727,69.4765957 C76.9826061,68.9170213 76.6003636,68.8119149 76.1769697,69.2046809 C75.8104242,69.5438298 75.5558788,69.9787234 75.4188485,70.4434043 C75.2415152,71.04 75.164303,71.6668085 75.0548485,72.227234 M54.556303,71.6306383 C54.5656364,71.7591489 54.5584242,71.8914894 54.5881212,72.0148936 C54.6415758,72.2340426 54.7620606,72.2829787 54.9580606,72.1744681 C55.0772727,72.1085106 55.1947879,72.0361702 55.3012727,71.9514894 C56.407697,71.0689362 57.3507879,70.0182979 58.3091515,68.9838298 C58.3418182,68.9485106 58.3698182,68.8838298 58.3617576,68.8395745 C58.2883636,68.433617 57.8191515,68.0446809 57.3957576,68.0170213 C56.936303,67.9876596 56.5782424,68.2114894 56.236303,68.472766 C55.1964848,69.2668085 54.6797576,70.3425532 54.556303,71.6306383 M67.705697,71.6323404 C67.7120606,71.7531915 67.704,71.8770213 67.7286061,71.9940426 C67.7761212,72.2246809 67.9067879,72.2838298 68.1070303,72.172766 C68.2258182,72.1068085 68.3437576,72.0344681 68.4502424,71.9497872 C69.5566667,71.066383 70.4997576,70.0161702 71.457697,68.9812766 C71.4899394,68.946383 71.5162424,68.8812766 71.5077576,68.8370213 C71.428,68.4259574 70.9647273,68.0434043 70.5400606,68.0165957 C70.0806061,67.9876596 69.7233939,68.212766 69.3814545,68.4740426 C68.3416364,69.2689362 67.8266061,70.3455319 67.705697,71.6323404 M100.966727,73.5459574 C100.941697,73.5374468 100.916667,73.5293617 100.891636,73.5208511 C100.702424,73.8348936 100.509394,74.1468085 100.324424,74.4634043 C99.8004848,75.3625532 99.331697,76.2846809 99.2035758,77.3378723 C99.1263636,77.9740426 99.1365455,78.5965957 99.5790303,79.1251064 C99.8119394,79.4034043 100.032545,79.3957447 100.241273,79.0991489 C100.674424,78.4838298 100.898424,77.7940426 100.917091,77.0451064 C100.943818,75.9642553 100.951455,74.8829787 100.966727,73.8021277 C100.968,73.7161702 100.966727,73.6314894 100.966727,73.5459574 M82.2767273,70.7625532 C82.4175758,70.7153191 82.5418788,70.6978723 82.6390303,70.6370213 C83.1230909,70.3357447 83.6143636,70.0442553 84.0733939,69.7085106 C84.4849091,69.4076596 84.8467879,69.0429787 84.9439394,68.5046809 C85.0024848,68.18 85.0194545,67.8570213 84.712303,67.6259574 C84.4051515,67.3944681 83.9686061,67.3540426 83.6529697,67.5834043 C83.4370303,67.7404255 83.2350909,67.9434043 83.0904242,68.1676596 C82.5932121,68.9370213 82.3395152,69.793617 82.2767273,70.7625532" id="Shape" fill="#000000" fill-rule="nonzero"></path>
            </g>
            <path d="" id="Shape" fill="#000000" fill-rule="nonzero"></path>
            <path d="M17.7549697,38.266383 C17.7197576,38.28 17.7172121,38.3148936 17.7049091,38.3412766 C17.5135758,38.752766 17.3048485,39.1548936 17.036303,39.5212766 C16.8483636,39.7778723 16.6578788,40.0340426 16.4033333,40.2319149 C16.2620606,40.3417021 16.1114545,40.4289362 15.9260606,40.412766 C15.6575152,40.3897872 15.5069091,40.2144681 15.4076364,39.9842553 C15.3121818,39.7625532 15.286303,39.5259574 15.2799394,39.2876596 C15.2706061,38.9412766 15.2689091,38.5944681 15.3189697,38.2497872 C15.3206667,38.2374468 15.3202424,38.2251064 15.3210909,38.2110638 C15.2778182,38.1995745 15.2489697,38.2280851 15.216303,38.2417021 C15.0181818,38.3251064 14.8213333,38.4114894 14.6227879,38.4940426 C14.5642424,38.5182979 14.5498182,38.5357447 14.5773939,38.6080851 C14.7059394,38.9497872 14.8582424,39.3004255 14.7649091,39.6702128 C14.5892727,40.3676596 14.1875152,40.8612766 13.4506061,41.0285106 C13.1786667,41.0902128 12.9118182,41.093617 12.6462424,41.0310638 C12.0798788,40.8970213 11.8278788,40.4204255 12.0391515,39.8757447 C12.2389697,39.3612766 12.5821818,38.9617021 13.0577576,38.6795745 C13.245697,38.5676596 13.4446667,38.4782979 13.6512727,38.4068085 C13.6822424,38.3961702 13.7284848,38.3978723 13.7348485,38.3582979 C13.7420606,38.3153191 13.6975152,38.2957447 13.6682424,38.2761702 C13.454,38.1310638 13.2389091,37.987234 13.0225455,37.8451064 C12.726,37.6502128 12.4095152,37.4868085 12.136303,37.2548936 C11.5016364,36.7161702 11.242,35.8285106 11.5020606,35.0476596 C11.6149091,34.7102128 11.8206667,34.4293617 12.1180606,34.246383 C12.642,33.9246809 13.1612727,34.2102128 13.4323636,34.653617 C13.5812727,34.8965957 13.6695152,35.1612766 13.7081212,35.4434043 C13.7272121,35.5829787 13.6631515,35.6880851 13.5392727,35.712766 C13.4281212,35.7348936 13.3445455,35.6642553 13.3148485,35.5174468 C13.2660606,35.2706383 13.203697,35.0293617 13.0556364,34.8204255 C12.9385455,34.6553191 12.7883636,34.5434043 12.5779394,34.5293617 C12.531697,34.526383 12.4922424,34.5353191 12.4519394,34.5540426 C12.1032121,34.7153191 11.8970303,34.9953191 11.8529091,35.3689362 C11.786303,35.9344681 11.9585455,36.4238298 12.3997576,36.8 C12.6746667,37.0344681 12.9945455,37.1978723 13.3080606,37.3723404 C13.6673939,37.5714894 13.9970303,37.8114894 14.2621818,38.1302128 C14.2910303,38.1651064 14.3169091,38.172766 14.3580606,38.1548936 C14.6957576,38.0093617 15.0334545,37.8642553 15.3724242,37.7212766 C15.4216364,37.7008511 15.4313939,37.6617021 15.4428485,37.62 C15.4861212,37.4604255 15.5162424,37.2965957 15.5921818,37.147234 C15.6074545,37.1165957 15.6227273,37.0855319 15.6422424,37.0578723 C15.7020606,36.9740426 15.7869091,36.94 15.8683636,36.9642553 C15.9472727,36.987234 15.9998788,37.0651064 15.9986061,37.1706383 C15.9952121,37.4680851 15.9578788,37.7625532 15.916303,38.0561702 C15.8560606,38.4834043 15.8221212,38.912766 15.8526667,39.3442553 C15.8628485,39.4897872 15.8967879,39.6340426 15.9260606,39.7774468 C15.9430303,39.8612766 15.986303,39.8782979 16.0630909,39.8417021 C16.1093333,39.82 16.143697,39.7838298 16.1793333,39.7485106 C16.5611515,39.3676596 16.8526061,38.9229787 17.1041818,38.4485106 C17.3544848,37.9757447 17.5615152,37.4842553 17.7464848,36.9829787 C17.7736364,36.9097872 17.8041818,36.8374468 17.8385455,36.7676596 C17.8873333,36.6680851 17.9832121,36.6144681 18.0807879,36.6255319 C18.1694545,36.6357447 18.2381818,36.7038298 18.2704242,36.8085106 C18.3009697,36.9080851 18.3115758,37.0110638 18.313697,37.113617 C18.324303,37.6353191 18.3310909,38.1570213 18.3366061,38.6791489 C18.3378788,38.7740426 18.3285455,38.8693617 18.3230303,38.9851064 C18.4541212,38.8378723 18.5716364,38.7059574 18.6887273,38.573617 C18.9144242,38.3191489 19.1367273,38.0612766 19.3670909,37.8110638 C19.4341212,37.7382979 19.4608485,37.6617021 19.4663636,37.5680851 C19.5062424,36.9157447 19.5834545,36.2680851 19.7472121,35.6344681 C19.8553939,35.212766 19.9877576,34.7987234 20.2516364,34.4429787 C20.4047879,34.2361702 20.5685455,34.0391489 20.8277576,33.9574468 C21.2252727,33.8319149 21.6622424,34.0893617 21.7415758,34.4995745 C21.8293939,34.9557447 21.768303,35.4029787 21.6397576,35.8408511 C21.4013333,36.6519149 21.0042424,37.3868085 20.5447879,38.0902128 C20.4425455,38.247234 20.3513333,38.4114894 20.2452727,38.5655319 C20.1621212,38.6859574 20.1201212,38.8157447 20.1171515,38.9595745 C20.1103636,39.2625532 20.1099394,39.5655319 20.1888485,39.8621277 C20.2253333,39.9991489 20.2787879,40.1289362 20.3657576,40.2417021 C20.4726667,40.3808511 20.5757576,40.406383 20.7327273,40.3302128 C20.9575758,40.2212766 21.1221818,40.0391489 21.2812727,39.8553191 C21.8255758,39.226383 22.2523636,38.5182979 22.6409697,37.7855319 C22.6634545,37.7442553 22.6609091,37.7046809 22.6532727,37.6595745 C22.6040606,37.3804255 22.5162424,37.1068085 22.5336364,36.8182979 C22.5391515,36.7259574 22.5595152,36.6451064 22.650303,36.6 C22.7487273,36.5510638 22.8318788,36.5668085 22.8997576,36.6531915 C22.9642424,36.7348936 23.0079394,36.827234 23.0363636,36.9280851 C23.3095758,37.8889362 23.5696364,38.8540426 23.8547273,39.8114894 C23.8984242,39.9587234 23.9476364,40.1029787 24.0227273,40.2374468 C24.1249697,40.4212766 24.2034545,40.4234043 24.3264848,40.2502128 C24.4605455,40.0608511 24.5271515,39.8417021 24.6090303,39.6297872 C24.6658788,39.4812766 24.7121212,39.3276596 24.7761818,39.1821277 C24.8241212,39.0723404 24.8109697,38.9795745 24.7515758,38.8817021 C24.6005455,38.6331915 24.4664848,38.3757447 24.3735758,38.0991489 C24.1970909,37.573617 24.1512727,37.0442553 24.3264848,36.5076596 C24.3761212,36.3544681 24.445697,36.212766 24.5453939,36.086383 C24.8444848,35.7051064 25.3043636,35.9123404 25.436303,36.2017021 C25.5118182,36.3680851 25.5287879,36.5446809 25.5321818,36.7234043 C25.5410909,37.212766 25.4749091,37.6944681 25.3794545,38.1731915 C25.338303,38.3817021 25.2992727,38.5902128 25.2466667,38.7961702 C25.2233333,38.8876596 25.2971515,39.0225532 25.3951515,39.0753191 C25.4927273,39.1280851 25.5894545,39.1144681 25.6662424,39.0340426 C25.8198182,38.8740426 25.9148485,38.6757447 26.0145455,38.4812766 C26.1430909,38.2310638 26.2436364,37.9680851 26.3352727,37.7025532 C26.3768485,37.5834043 26.3874545,37.4531915 26.4404848,37.3357447 C26.4752727,37.2587234 26.5227879,37.1944681 26.6004242,37.1595745 C26.7514545,37.0914894 26.909697,37.1846809 26.9347273,37.3629787 C26.9716364,37.627234 26.9673939,37.892766 26.9470303,38.1578723 C26.9126667,38.6153191 26.8312121,39.0693617 26.8477576,39.5302128 C26.853697,39.7012766 26.8651515,39.872766 26.9300606,40.0361702 C26.9538182,40.0970213 26.9712121,40.1046809 27.0272121,40.0676596 C27.2927879,39.8910638 27.5125455,39.6646809 27.7140606,39.4225532 C28.1947273,38.8438298 28.6253333,38.226383 29.0474545,37.6034043 C29.3355152,37.1782979 29.7041818,36.8455319 30.1801818,36.6421277 C30.6608485,36.4361702 31.2467273,36.64 31.4923636,37.1042553 C31.5356364,37.1855319 31.5610909,37.1774468 31.6128485,37.1187234 C31.7078788,37.0110638 31.8054545,36.9059574 31.9055758,36.8029787 C31.9942424,36.7123404 32.0998788,36.6931915 32.1834545,36.7459574 C32.2598182,36.793617 32.2890909,36.8978723 32.2534545,37.0153191 C32.184303,37.2438298 32.0604242,37.4485106 31.9641212,37.6651064 C31.7469091,38.152766 31.5072121,38.6306383 31.3146061,39.1289362 C31.1758788,39.4880851 31.0723636,39.8578723 31.0719394,40.2485106 C31.0719394,40.3217021 31.0710909,40.4 31.1457576,40.4382979 C31.2263636,40.48 31.2984848,40.4357447 31.3591515,40.3846809 C31.6586667,40.132766 31.9242424,39.8480851 32.1618182,39.5370213 C32.5809697,38.9876596 32.9551515,38.4085106 33.2996364,37.8093617 C33.3212727,37.7719149 33.3446061,37.7340426 33.3734545,37.7017021 C33.4341212,37.632766 33.5321212,37.6174468 33.612303,37.6595745 C33.6971515,37.7042553 33.74,37.7961702 33.7153939,37.8880851 C33.7077576,37.9178723 33.6958788,37.9476596 33.6801818,37.9740426 C33.2529697,38.6978723 32.7947879,39.4017021 32.2640606,40.0548936 C32.0812121,40.28 31.8894545,40.4987234 31.6569697,40.6761702 C31.5772121,40.7370213 31.4919394,40.7876596 31.4007273,40.8293617 C31.122,40.9553191 30.8475152,40.8595745 30.7070909,40.5842553 C30.5984848,40.3714894 30.602303,40.1438298 30.6226667,39.9148936 C30.6642424,39.4340426 30.856,38.9978723 31.0295152,38.5565957 C31.0655758,38.4646809 31.1160606,38.3770213 31.1152121,38.2523404 C31.0592121,38.3068085 31.0146667,38.3480851 30.9718182,38.3914894 C30.632,38.7319149 30.2926061,39.0719149 29.9536364,39.412766 C29.7924242,39.5753191 29.6150909,39.7170213 29.4212121,39.8378723 C29.0983636,40.04 28.7526061,39.9217021 28.6168485,39.5634043 C28.5659394,39.4280851 28.5349697,39.2893617 28.5345455,39.126383 C28.4395152,39.2523404 28.3550909,39.3659574 28.2685455,39.4782979 C28.012303,39.8102128 27.7390909,40.1259574 27.4200606,40.3991489 C27.2609697,40.5353191 27.0866061,40.6353191 26.8685455,40.6004255 C26.6687273,40.5685106 26.5312727,40.4468085 26.4464242,40.266383 C26.3149091,39.9876596 26.2678182,39.6893617 26.2597576,39.3842553 C26.2555152,39.2348936 26.2589091,39.0851064 26.2589091,38.907234 C26.1634545,39.0408511 26.0913333,39.1557447 26.0035152,39.2591489 C25.7642424,39.5404255 25.4668485,39.5974468 25.1550303,39.4042553 C25.0752727,39.3544681 25.074,39.3906383 25.0506667,39.4510638 C24.9068485,39.82 24.7982424,40.2051064 24.5814545,40.5412766 C24.3773939,40.8578723 24.0104242,40.9170213 23.7380606,40.6748936 C23.604,40.5557447 23.5204242,40.3957447 23.4402424,40.2357447 C23.1572727,39.6710638 22.9744242,39.0719149 22.8327273,38.4587234 C22.8250909,38.426383 22.8153333,38.3940426 22.7996364,38.3382979 C22.7614545,38.4034043 22.7338788,38.4502128 22.706303,38.4970213 C22.4288485,38.9719149 22.1450303,39.4425532 21.8009697,39.872766 C21.5684848,40.1638298 21.3245455,40.4442553 21.0042424,40.6438298 C20.5630303,40.9187234 20.0751515,40.7880851 19.8265455,40.3306383 C19.7561212,40.2008511 19.7001212,40.0651064 19.6593939,39.9238298 C19.5461212,39.5289362 19.5075152,39.1217021 19.4663636,38.7153191 C19.4549091,38.6004255 19.4493939,38.4851064 19.4409091,38.3689362 C19.4090909,38.3621277 19.3989091,38.3910638 19.3844848,38.4076596 C19.0412727,38.7995745 18.6997576,39.1931915 18.355697,39.5846809 C18.3039394,39.6434043 18.3064848,39.7123404 18.3039394,39.7787234 C18.2967273,39.9753191 18.2920606,40.1719149 18.284,40.3689362 C18.2649091,40.8119149 18.2661818,41.2561702 18.2377576,41.6987234 C18.2152727,42.0591489 18.1936364,42.4221277 18.0952121,42.773617 C18.0073939,43.0868085 17.8555152,43.3693617 17.6794545,43.64 C17.64,43.7004255 17.5852727,43.7480851 17.5292727,43.7931915 C17.2878788,43.9889362 17.011697,43.9778723 16.7864242,43.7629787 C16.5191515,43.5076596 16.3918788,43.1859574 16.3439394,42.8251064 C16.2794545,42.346383 16.3778788,41.8948936 16.549697,41.4510638 C16.7987273,40.8080851 17.1525455,40.2255319 17.5513333,39.6680851 C17.5568485,39.66 17.5619394,39.6523404 17.5678788,39.6451064 C17.7218788,39.4702128 17.7825455,39.2706383 17.7719394,39.0344681 C17.7626061,38.8170213 17.7876364,38.5974468 17.7829697,38.3787234 C17.781697,38.34 17.7927273,38.2970213 17.7549697,38.266383 M14.2490303,39.4680851 C14.2443636,39.2795745 14.2121212,39.0978723 14.1268485,38.9259574 C14.0199394,38.7119149 14.0534545,38.6991489 13.7950909,38.7978723 C13.4153939,38.9434043 13.0407879,39.093617 12.7743636,39.426383 C12.614,39.6268085 12.4604242,39.8314894 12.3921212,40.0842553 C12.3132121,40.3765957 12.4366667,40.5774468 12.7323636,40.6365957 C13.0454545,40.7 13.3449697,40.6412766 13.6326061,40.512766 C13.7526667,40.4595745 13.861697,40.3923404 13.9533333,40.292766 C14.1688485,40.0582979 14.2494545,39.7787234 14.2490303,39.4680851 M29.0130909,39.126383 C29.0147879,39.2051064 29.0130909,39.2829787 29.0338788,39.3595745 C29.0635758,39.4693617 29.12,39.4970213 29.2184242,39.4442553 C29.2812121,39.4106383 29.3444242,39.3748936 29.4004242,39.3306383 C30.042303,38.8242553 30.5866061,38.2178723 31.1410909,37.6217021 C31.1652727,37.5953191 31.179697,37.5659574 31.1648485,37.5276596 C31.0808485,37.3174468 30.9535758,37.1519149 30.7206667,37.0978723 C30.4686667,37.0387234 30.2552727,37.1357447 30.056303,37.2748936 C29.6876364,37.5323404 29.4055152,37.8634043 29.2277576,38.2791489 C29.1127879,38.5502128 29.0215758,38.8280851 29.0130909,39.126383 M17.7634545,40.2148936 C17.7341818,40.2425532 17.7235758,40.2489362 17.7176364,40.2591489 C17.4753939,40.6591489 17.2259394,41.0553191 17.0384242,41.486383 C16.843697,41.9357447 16.7223636,42.3995745 16.7669091,42.8944681 C16.786,43.106383 16.8721212,43.2923404 17.0146667,43.4485106 C17.1194545,43.5634043 17.2390909,43.5595745 17.3286061,43.4319149 C17.5288485,43.1476596 17.6705455,42.8370213 17.7104242,42.4876596 C17.7435152,42.1987234 17.7435152,41.9080851 17.7469091,41.6178723 C17.7511515,41.2808511 17.7435152,40.9434043 17.7621818,40.606383 C17.7685455,40.4838298 17.7634545,40.3604255 17.7634545,40.2148936 M20.231697,37.6778723 C20.2804848,37.6625532 20.2885455,37.6259574 20.3033939,37.5970213 C20.4489091,37.3068085 20.5973939,37.0178723 20.7378182,36.7251064 C20.9741212,36.2306383 21.1463636,35.712766 21.2884848,35.1842553 C21.3393939,34.9953191 21.3130909,34.8055319 21.2693939,34.6191489 C21.2515758,34.5438298 21.2129697,34.4778723 21.1285455,34.46 C21.0411515,34.4412766 20.9783636,34.4834043 20.928303,34.5502128 C20.9130303,34.5702128 20.8981818,34.5906383 20.886303,34.612766 C20.7611515,34.8434043 20.6512727,35.0795745 20.5787273,35.3344681 C20.3929091,35.9889362 20.3012727,36.6587234 20.2478182,37.3348936 C20.2397576,37.4459574 20.2113333,37.5574468 20.231697,37.6778723 M24.6709697,37.0804255 C24.6616364,37.4302128 24.7155152,37.7714894 24.8092727,38.106383 C24.8410909,38.2195745 24.865697,38.3374468 24.9318788,38.4382979 C24.9399394,38.4506383 24.9518182,38.4676596 24.9632727,38.4689362 C24.9861818,38.4714894 24.9921212,38.4480851 24.9959394,38.4302128 C25.0146061,38.3480851 25.0324242,38.2659574 25.0485455,38.1834043 C25.1546061,37.647234 25.2394545,37.1085106 25.2093333,36.5582979 C25.2033939,36.447234 25.1796364,36.3417021 25.1295758,36.2434043 C25.0621212,36.1123404 24.9416364,36.0974468 24.8427879,36.206383 C24.7889091,36.2655319 24.7609091,36.3391489 24.7371515,36.4131915 C24.6658788,36.6306383 24.6769091,36.8565957 24.6709697,37.0804255" id="Shape" fill="#000000" fill-rule="nonzero"></path>
            <path d="M35.3016364,41.2306383 C35.1175152,41.2344681 34.9571515,41.187234 34.8184242,41.0842553 C34.6126667,40.9310638 34.5524242,40.7191489 34.6292121,40.4493617 C34.7284848,40.0970213 34.9448485,39.8157447 35.1760606,39.5429787 C35.4153333,39.2608511 35.7271515,39.0668085 36.0130909,38.8412766 C36.1047273,38.7693617 36.1051515,38.7651064 36.0135152,38.6970213 C35.838303,38.5685106 35.63,38.5038298 35.4433333,38.3974468 C35.0772121,38.1885106 34.8752727,37.8761702 34.8782424,37.4514894 C34.8803636,37.1702128 35.0271515,36.9446809 35.2159394,36.7506383 C35.449697,36.5097872 35.7275758,36.3485106 36.065697,36.2961702 C36.4649091,36.2344681 36.751697,36.5170213 36.692303,36.9174468 C36.664303,37.1046809 36.611697,37.2829787 36.5247273,37.4506383 C36.4568485,37.5821277 36.358,37.6289362 36.2536364,37.5821277 C36.1412121,37.5314894 36.1009091,37.4144681 36.1552121,37.2804255 C36.2107879,37.1442553 36.2676364,37.0093617 36.2918182,36.8629787 C36.3113333,36.7438298 36.2642424,36.6914894 36.1446061,36.6948936 C35.8310909,36.7051064 35.3928485,37.0468085 35.3007879,37.3540426 C35.2367273,37.5655319 35.3309091,37.8246809 35.5273333,37.9646809 C35.6601212,38.0587234 35.8060606,38.1306383 35.9596364,38.1825532 C36.1755758,38.2557447 36.3753939,38.3531915 36.5251515,38.5310638 C36.5616364,38.5740426 36.5841212,38.5480851 36.6095758,38.5276596 C36.7372727,38.4280851 36.863697,38.326383 36.9909697,38.2259574 C37.2735152,38.0025532 37.5844848,37.8251064 37.9052121,37.6629787 C37.9506061,37.64 37.9985455,37.627234 38.0490303,37.6302128 C38.1487273,37.6357447 38.2276364,37.7046809 38.246303,37.8 C38.2645455,37.892766 38.2098182,37.9923404 38.106303,38.0408511 C37.9480606,38.1148936 37.7927879,38.193617 37.6404848,38.2787234 C37.3532727,38.44 37.0932121,38.6374468 36.8484242,38.8565957 C36.8178788,38.8838298 36.7852121,38.9080851 36.8021818,38.9582979 C36.9239394,39.3212766 36.8628485,39.673617 36.7393939,40.0221277 C36.6265455,40.34 36.4755152,40.6353191 36.2269091,40.8714894 C36.0228485,41.0655319 35.7831515,41.1804255 35.5048485,41.2119149 C35.434,41.22 35.364,41.2446809 35.3016364,41.2306383 M36.3096364,39.1204255 C36.2065455,39.1982979 36.1174545,39.2659574 36.0279394,39.3331915 C35.6660606,39.6046809 35.337697,39.9076596 35.1196364,40.312766 C35.0619394,40.4204255 35.0110303,40.5302128 35.014,40.6578723 C35.0152727,40.7140426 35.0330909,40.7565957 35.0869697,40.7757447 C35.1845455,40.8097872 35.2833939,40.832766 35.3881818,40.8153191 C35.5778182,40.7842553 35.7301212,40.6868085 35.8595152,40.5502128 C36.0975152,40.3 36.2137576,39.9893617 36.2981818,39.6629787 C36.3435758,39.4876596 36.3537576,39.313617 36.3096364,39.1204255" id="Shape" fill="#000000" fill-rule="nonzero"></path>
            <path d="M26.7162424,35.987234 C26.9550909,35.9940426 27.1290303,36.1476596 27.1252121,36.3480851 C27.1218182,36.5378723 26.9253939,36.7157447 26.7289697,36.7068085 C26.544,36.6987234 26.4035758,36.5425532 26.4069697,36.3497872 C26.4116364,36.1370213 26.5427273,35.9821277 26.7162424,35.987234" id="Shape" fill="#000000" fill-rule="nonzero"></path>
        </g>
    </g>
</svg>