<?xml version="1.0" encoding="UTF-8"?>
<svg width="120px" height="45px" viewBox="0 0 120 45" version="1.1" xmlns="http://www.w3.org/2000/svg" xmlns:xlink="http://www.w3.org/1999/xlink">
    <!-- Generator: Sketch 49.3 (51167) - http://www.bohemiancoding.com/sketch -->
    <title>fluid-logo</title>
    <desc>Created with Sketch.</desc>
    <defs></defs>
    <g id="Page-1" stroke="none" stroke-width="1" fill="none" fill-rule="evenodd">
        <g id="fluid-logo" fill-rule="nonzero">
            <g id="Page-1-Copy-8">
                <g id="Group-3" transform="translate(0.000000, 0.081352)" fill="#FFFFFF">
                    <path d="M38.1916665,1.73672963 C38.1916665,9.56034697 6.6420174e-05,8.66911658 6.6420174e-05,13.6094234 L6.6420174e-05,11.632873 C6.6420174e-05,6.89018979 38.1916665,6.95513741 38.1916665,0.00925671047 L38.1916665,1.73672963 Z" id="Fill-1"></path>
                </g>
                <path d="M24.9075653,21.1925106 C24.9075653,25.6563207 0,24.5403263 0,29.5620499 L0,27.0043187 C0,22.3860069 24.0475901,23.5346425 24.873857,19.0129151" id="Fill-4" fill="#FFFFFF"></path>
                <path d="M11.6952642,30.7034877 C11.6952642,35.1672978 2.80900903e-14,32.3773956 0,37.3991192 L0,34.8413879 C0,30.0987047 11.6952642,33.1117389 11.6952642,28.1457565 L11.6952642,30.7034877 Z" id="Fill-6" fill="#FFFFFF"></path>
                <path d="M11.6952642,38.2588383 C11.6952642,42.7226484 2.80900903e-14,39.9327461 0,44.9544697 L0,42.3967385 C0,37.6540553 11.6952642,40.6670895 11.6952642,35.701107 L11.6952642,38.2588383 Z" id="Fill-6-Copy" fill="#FFFFFF"></path>
                <path d="M0,14.0152958 C0,18.479106 24.9075653,16.5596358 24.9075653,21.5813594 L24.9075653,19.0236281 C24.9075653,14.2809449 0,16.423547 0,11.4575646 L0,14.0152958 Z" id="Fill-8" fill="#F0F0F0"></path>
            </g>
            <g id="Group-23" transform="translate(37.803706, 0.000000)">
                <g id="Group-22" fill="#FFFFFF">
                    <path d="M2.76465781,44.8619276 C1.77193122,44.8619276 0.872735827,44.7096434 0.0670446785,44.4050704 L0.0670446785,41.3376005 C0.987834564,41.656677 1.79351363,41.8162129 2.48410605,41.8162129 C3.57754404,41.8162129 4.41919092,41.3666118 5.00907194,40.4673963 C5.59895297,39.5681808 6.07372813,38.2846424 6.43341168,36.6167428 L11.3322772,13.0777189 L7.16716245,13.0777189 L7.44771422,11.6201268 L11.8933807,10.1842899 L12.3897415,8.0087794 C13.0515592,5.10808419 13.9687385,3.05949895 15.1413069,1.86296217 C16.3138752,0.666425407 18.0511207,0.0681659963 20.3530955,0.0681659963 C20.9285891,0.0681659963 21.6335583,0.151559733 22.4680242,0.318349706 C23.30249,0.48513968 23.9499107,0.670056224 24.4103056,0.873104887 L23.4823267,3.67951346 C22.3888887,3.25891265 21.4033706,3.04861541 20.5257427,3.04861541 C19.274044,3.04861541 18.3137033,3.40031942 17.6446919,4.10373801 C16.9756805,4.8071566 16.4325664,6.09432078 16.0153335,7.96526919 L15.4758109,10.3148205 L20.6120664,10.3148205 L20.0725437,13.0777189 L14.9578692,13.0777189 L9.95109925,36.9648244 C9.38999283,39.7059814 8.5267653,41.707431 7.36139059,42.9692334 C6.1960159,44.2310358 4.66378695,44.8619276 2.76465781,44.8619276 Z M23.7412975,34.1584158 L20.1157055,34.1584158 L27.280566,0.307472153 L30.9061581,0.307472153 L23.7412975,34.1584158 Z M36.2006734,10.3148205 L32.9635377,25.4346186 C32.7045655,26.725428 32.5750814,27.7334045 32.5750814,28.4585783 C32.5750814,30.5325753 33.6325352,31.5695583 35.7474745,31.5695583 C37.0135605,31.5695583 38.2580469,31.1344606 39.480971,30.264252 C40.7038951,29.3940434 41.7829296,28.1467632 42.7181068,26.5223739 C43.653284,24.8979846 44.3654468,22.9400447 44.8546163,20.6484955 L47.0127069,10.3148205 L50.5951371,10.3148205 L45.6099481,34.1584158 L42.6102022,34.1584158 L43.0849822,29.7421295 L42.8260113,29.7421295 C41.4160518,31.555064 40.0708555,32.8168475 38.7903821,33.5275178 C37.5099086,34.2381881 36.186293,34.5935179 34.8194955,34.5935179 C32.9779157,34.5935179 31.5320095,34.0895297 30.4817336,33.0815381 C29.4314576,32.0735466 28.9063275,30.6340981 28.9063275,28.7631497 C28.9063275,27.8639342 29.0645859,26.616654 29.3811075,25.0212716 L32.5319195,10.3148205 L36.2006734,10.3148205 Z M53.1920393,34.1584158 L49.5664473,34.1584158 L54.6163791,10.3148205 L58.2419712,10.3148205 L53.1920393,34.1584158 Z M55.6306816,4.22339109 C55.6306816,3.41119643 55.8608757,2.74767236 56.3212706,2.23279897 C56.7816656,1.71792556 57.3787313,1.46049273 58.1124857,1.46049273 C59.3785718,1.46049273 60.0116054,2.11313936 60.0116054,3.4184522 C60.0116054,4.21614338 59.770621,4.8905449 59.288645,5.44167698 C58.8066691,5.99280907 58.249168,6.26837098 57.6161249,6.26837098 C57.0406312,6.26837098 56.5658561,6.09070606 56.1917852,5.7353709 C55.8177143,5.38003574 55.6306816,4.87604751 55.6306816,4.22339109 Z M69.6223018,9.92322863 C72.4134461,9.92322863 74.4348374,11.3010382 75.6865361,14.0566987 L75.9023451,14.0566987 C76.1469299,11.8086599 76.4706403,9.82171345 76.8734859,8.09579981 L78.5567965,0.307472153 L82.1392267,0.307472153 L75.0175281,34.1584158 L72.0177822,34.1584158 L72.4925621,29.6115988 L72.3199149,29.6115988 C70.8667934,31.4245333 69.5072099,32.7080717 68.2411239,33.4622525 C66.9750377,34.2164332 65.6658093,34.5935179 64.3133991,34.5935179 C62.3135586,34.5935179 60.7525554,33.8828583 59.6303428,32.4615177 C58.50813,31.040177 57.9470321,29.0677338 57.9470321,26.544129 C57.9470321,23.4403852 58.4649686,20.5977465 59.5008573,18.0161278 C60.5367459,15.4345091 61.9358939,13.440311 63.6983433,12.0334738 C65.4607927,10.6266367 67.4354258,9.92322863 69.6223018,9.92322863 Z M65.5219298,31.5695583 C66.8743399,31.5695583 68.2698912,30.891531 69.7086254,29.535456 C71.1473596,28.179381 72.2875394,26.4462416 73.1291988,24.3359859 C73.9708583,22.2257301 74.3916818,20.075622 74.3916818,17.8855971 C74.3916818,16.2757113 74.0032294,15.050186 73.2263129,14.2089844 C72.4493965,13.3677828 71.320007,12.9471883 69.8381108,12.9471883 C68.3849893,12.9471883 67.0361962,13.5454477 65.7916911,14.7419845 C64.547186,15.9385212 63.5472808,17.6208992 62.7919453,19.7891689 C62.0366099,21.9574385 61.6589478,24.2380759 61.6589478,26.6311494 C61.6589478,29.9234385 62.9465956,31.5695583 65.5219298,31.5695583 Z" id="fluid"></path>
                </g>
                <path d="M25.1926854,42.5640084 C25.1926854,43.0374018 25.0735599,43.4577062 24.8353056,43.8249343 C24.5970512,44.1921622 24.2534866,44.4775864 23.8046015,44.6812152 C23.3557165,44.884844 22.8291476,44.9866568 22.2248793,44.9866568 C21.7207468,44.9866568 21.2977653,44.9509789 20.9559221,44.8796218 C20.6140788,44.8082646 20.2584291,44.6838267 19.8889622,44.5063042 L19.8889622,42.6684329 C20.2791468,42.8703213 20.6848638,43.0278266 21.1061252,43.1409538 C21.5273866,43.2540809 21.9141125,43.3106435 22.2663146,43.3106435 C22.5701753,43.3106435 22.792888,43.2575616 22.9344595,43.1513962 C23.0760309,43.0452307 23.1468156,42.9086101 23.1468156,42.74153 C23.1468156,42.637105 23.118329,42.5457345 23.0613551,42.4674157 C23.0043813,42.3890969 22.9128791,42.3099091 22.786846,42.2298499 C22.6608129,42.1497907 22.3250174,41.986194 21.7794494,41.7390547 C21.2856759,41.5128006 20.9153512,41.2935112 20.6684645,41.0811804 C20.4215776,40.8688495 20.2385734,40.6251947 20.1194462,40.3502089 C20.000319,40.0752229 19.9407563,39.7497698 19.9407563,39.3738397 C19.9407563,38.6707112 20.1945452,38.122488 20.7021306,37.7291538 C21.209716,37.3358195 21.907204,37.1391553 22.7946152,37.1391553 C23.5784376,37.1391553 24.3777863,37.3218963 25.1926854,37.687384 L24.5659758,39.2798577 C23.8581187,38.9526592 23.2469535,38.7890625 22.7324622,38.7890625 C22.4665841,38.7890625 22.2732212,38.836053 22.1523675,38.9300356 C22.0315137,39.0240181 21.9710879,39.1406243 21.9710879,39.2798577 C21.9710879,39.4295335 22.0479151,39.5635437 22.2015719,39.681892 C22.3552288,39.8002404 22.7721677,40.0160488 23.4524012,40.329324 C24.105011,40.6251949 24.5582055,40.9428162 24.8119982,41.2821976 C25.0657909,41.6215789 25.1926854,42.0488449 25.1926854,42.5640084 Z M32.7977963,44.8822323 L30.7519265,44.8822323 L30.7519265,38.9352568 L28.9028746,38.9352568 L28.9028746,37.2488011 L34.6416689,37.2488011 L34.6416689,38.9352568 L32.7977963,38.9352568 L32.7977963,44.8822323 Z M45.2560212,37.2488011 L45.2560212,41.8434792 C45.2560212,42.8424787 44.9754722,43.6160825 44.4143659,44.1643139 C43.8532596,44.7125453 43.0444153,44.9866568 41.9878089,44.9866568 C40.9553733,44.9866568 40.1620672,44.7203771 39.6078667,44.1878094 C39.0536663,43.6552418 38.7765703,42.8894697 38.7765703,41.8904703 L38.7765703,37.2488011 L40.8327989,37.2488011 L40.8327989,41.7286123 C40.8327989,42.2681417 40.9329333,42.6597296 41.1332051,42.903388 C41.3334769,43.1470464 41.6287007,43.2688737 42.0188855,43.2688737 C42.4366938,43.2688737 42.7396868,43.1479166 42.9278732,42.9059986 C43.1160596,42.6640806 43.2101514,42.2681417 43.2101514,41.7181698 L43.2101514,37.2488011 L45.2560212,37.2488011 Z M56.3675976,40.9036587 C56.3675976,42.1776441 56.0197169,43.1592246 55.323945,43.8484297 C54.6281732,44.537635 53.6501363,44.8822323 52.3898052,44.8822323 L49.9399408,44.8822323 L49.9399408,37.2488011 L52.5607259,37.2488011 C53.7761686,37.2488011 54.714497,37.5620715 55.3757392,38.1886216 C56.0369815,38.8151718 56.3675976,39.7201751 56.3675976,40.9036587 Z M54.2440366,40.9767559 C54.2440366,40.2771082 54.1067834,39.7584717 53.8322729,39.4208308 C53.5577624,39.0831899 53.1408235,38.9143719 52.5814436,38.9143719 L51.9858106,38.9143719 L51.9858106,43.1905554 L52.4415994,43.1905554 C53.0631326,43.1905554 53.5189167,43.0086845 53.8089655,42.6449374 C54.0990143,42.2811902 54.2440366,41.7251352 54.2440366,40.9767559 Z M60.8184435,44.8822323 L60.8184435,37.2488011 L62.8746721,37.2488011 L62.8746721,44.8822323 L60.8184435,44.8822323 Z M74.6906493,41.0550743 C74.6906493,42.3395021 74.3781609,43.3158615 73.7531747,43.9841816 C73.1281886,44.6525018 72.2131674,44.9866568 71.0080836,44.9866568 C69.8202647,44.9866568 68.9095596,44.6507614 68.2759411,43.9789604 C67.6423225,43.3071594 67.325518,42.3290596 67.325518,41.0446318 C67.325518,39.7741273 67.640596,38.8038593 68.2707616,38.1337987 C68.9009272,37.4637382 69.8168117,37.1287128 71.0184425,37.1287128 C72.2235262,37.1287128 73.136821,37.4611276 73.7583542,38.1259669 C74.3798874,38.7908063 74.6906493,39.7671656 74.6906493,41.0550743 Z M69.4801556,41.0550743 C69.4801556,42.530948 69.9894598,43.2688737 71.0080836,43.2688737 C71.5260279,43.2688737 71.9101642,43.0896135 72.160504,42.7310875 C72.4108437,42.3725617 72.5360117,41.8138961 72.5360117,41.0550743 C72.5360117,40.2927716 72.4091172,39.7297551 72.1553246,39.3660079 C71.9015318,39.0022607 71.5225749,38.8203899 71.0184425,38.8203899 C69.9929127,38.8203899 69.4801556,39.5652772 69.4801556,41.0550743 Z" id="STUDIO" fill="#F0F0F0"></path>
            </g>
        </g>
    </g>
</svg>