<?xml version="1.0" encoding="UTF-8"?>
<svg width="66px" height="80px" viewBox="0 0 66 80" version="1.1" xmlns="http://www.w3.org/2000/svg" xmlns:xlink="http://www.w3.org/1999/xlink">
    <!-- Generator: Sketch 49.3 (51167) - http://www.bohemiancoding.com/sketch -->
    <title>Fill 1</title>
    <desc>Created with Sketch.</desc>
    <defs></defs>
    <g id="Page-1" stroke="none" stroke-width="1" fill="none" fill-rule="evenodd">
        <path d="M65.8626836,25.5391518 C65.3944391,25.0799273 63.7019116,25.3677399 63.1224968,25.3914585 C62.1265961,25.432119 61.133515,25.5196188 60.1360033,25.5250003 C58.5659241,25.5331723 56.9877892,25.5401484 55.4394608,25.8325453 C54.9371804,25.9272205 54.6769775,25.7520215 54.6185728,26.258484 C54.5742658,26.6445595 54.6850333,27.4796944 54.7027561,27.868959 C54.7404171,28.7172487 54.7029575,29.6325088 54.6769775,30.4780081 C54.5273407,35.3686299 54.3444736,40.2582551 54.1708707,45.148279 C54.1499255,45.7322755 54.1162925,46.315674 54.083465,46.9979334 C52.9345038,47.5129665 51.9472632,47.1213101 50.9787524,47.133867 C50.0557569,47.1460253 49.1319559,47.0786564 48.2081548,47.0463672 C47.3461822,47.0160712 46.4842095,46.9730189 45.6220355,46.9586681 C45.4945522,46.9566749 45.3670688,46.9494995 45.2401897,46.9491009 C44.3161872,46.9457125 43.3911778,46.9887648 42.4677796,47.0338103 C41.6485028,47.0730756 40.8284204,47.1314752 40.0018934,47.1860879 C39.9612115,46.7980192 39.9440929,46.405167 40.0051157,45.9660734 C40.0051157,44.0701776 40.0220329,42.2560015 39.8995845,40.3479474 C39.7654551,38.2607081 39.689529,36.1698811 39.672209,34.0784561 C39.6591183,32.4940916 39.6792578,30.9089298 39.7330304,29.3253625 C39.752163,28.7587065 40.2103377,26.0671404 39.6959736,25.7496297 C39.6959736,25.7494304 39.6957722,25.7492311 39.6957722,25.7490318 C39.2631748,25.4829446 38.6074311,25.5365607 38.0394958,25.4745733 C36.437999,25.2931956 34.8220017,25.2337994 33.2098309,25.2355932 C33.0342141,25.2355932 32.8585972,25.2330021 32.6833832,25.2345966 C31.5122685,25.2449611 30.3395426,25.3214985 29.172053,25.3356499 C28.5956592,25.3424267 28.0045635,25.4582294 27.4279682,25.5036735 C26.832039,25.5509115 26.2351028,25.5845959 25.6375624,25.6043282 C25.0504946,25.6240605 24.4628226,25.6306379 23.8751506,25.6238612 C23.4191913,25.618679 22.7660657,25.4693911 22.3650874,25.7494304 C22.0569523,25.9642933 22.2424375,26.5393205 22.2359929,26.8490579 C22.2277356,27.2618418 22.1761784,27.6859867 22.1616779,28.0894027 C22.1451635,28.5414518 22.1614765,28.9923051 22.1300588,29.4441549 C22.008416,31.2017253 21.9204061,32.9616874 21.8225279,34.7210516 C21.810847,34.9321274 21.8440773,35.1356293 21.9310801,35.2976733 C22.0217081,35.4656969 22.1709421,35.588675 22.3954981,35.623954 C23.8830051,35.8567553 25.3805818,36.0243802 26.8725195,36.2292773 C27.0574005,36.2547898 27.2326146,36.3528533 27.4241417,36.4218168 C27.4926162,36.6179439 27.6047934,36.7969299 27.6110367,36.9797028 C27.6521214,38.1399225 27.6811223,39.3003414 27.7129428,40.4605611 C27.7310684,41.124882 27.7540275,41.7892029 27.7709447,42.4535238 C27.776181,42.6544346 27.7330824,42.8368089 27.6644065,43.0060284 C27.7433535,44.2774665 27.6724623,45.5325606 27.4597887,46.7896479 C27.4269612,46.9837819 27.2906165,47.0664982 27.1413825,47.0694879 C27.1222499,47.0728763 27.1069438,47.0822441 27.0857973,47.0832407 C24.0594275,47.2189751 21.0614544,46.7525751 18.2731341,45.554884 C16.1975523,44.6631433 15.0320767,43.5200649 14.2162236,41.8204956 C13.6515107,41.0357877 13.2358304,40.1544114 13.0551787,39.1251425 C12.8968819,38.2258278 12.7059589,37.3283069 12.6161366,36.4218168 C12.4552216,34.8029705 12.4896602,33.1558214 12.2121372,31.5596972 C11.5416917,27.7043238 11.8339165,23.8716724 12.2888689,20.0386224 C12.453409,18.6525775 12.8797632,17.3994765 13.7191796,16.2681577 C14.2589195,15.5406535 14.900364,14.8942711 15.5458365,14.2562599 C15.5967896,14.2060322 15.6455273,14.1538114 15.6964804,14.1035837 C16.6462614,13.1675948 17.6316895,12.214664 18.8646326,11.69405 C20.5072141,11.0002303 22.3860325,11.1303838 24.1315271,11.0566368 C24.5673469,11.0381004 25.008403,11.0099968 25.4369725,11.0911185 C26.4838262,11.2894381 27.2561779,12.3386387 27.6370167,13.2535001 C27.9731458,14.06093 28.2661762,14.8591914 28.5144968,15.6706077 C28.5304071,15.9155673 28.5624289,16.2249061 28.6325146,16.7060554 C30.5491953,16.924506 32.7864976,17.4064526 34.9241092,17.11864 C36.126843,16.9565959 36.8923472,17.1433552 38.5528529,17.1313962 C38.9185871,17.1319941 39.9783301,17.1967719 39.9835664,17.0102119 C39.9835664,17.0088167 39.8603123,16.6879176 39.8480272,16.4407655 C39.8212416,15.8878624 39.7171202,15.499993 39.6391801,15.2412806 C39.4194576,13.956289 39.2742515,12.6607336 38.8714606,11.407832 C37.977466,8.62757018 36.3441487,6.25491004 33.9358616,4.4676416 C33.0404573,3.80332068 32.2113122,3.05149994 31.3153037,2.3881756 C31.2480376,2.33854587 31.1761394,2.29748673 31.1074636,2.24925221 C30.0942429,1.53749403 28.9692478,1.01269445 27.7810145,0.673657583 C25.3632618,-0.0165744453 22.7880179,-0.127394257 20.2931307,0.120754422 C19.1355095,0.23595919 17.9797009,0.437069244 16.8172462,0.553071277 C15.6678822,0.668076729 14.510261,0.806003545 13.4100375,1.17214742 C12.043972,1.62678769 10.8404326,2.46790209 9.61473978,3.20597001 C8.41422135,3.92869058 7.22840479,4.72057387 6.32272934,5.79907387 C5.420679,6.87358755 4.84509073,8.17213264 4.23929314,9.43380424 C3.52393641,10.9238922 2.74232057,12.4056089 2.32764728,14.0130941 C1.91337679,15.6221739 1.78488648,17.2950348 1.35329597,18.9047125 C-0.0967514533,24.310766 -0.402469786,29.9261015 0.537644295,35.4367961 C0.948893857,37.8481235 1.49648816,40.2365297 2.17660068,42.587265 C2.78461362,44.6874599 3.63832904,46.8633949 4.92605171,48.6628217 C6.05507475,50.2408081 7.67087065,51.5413463 9.05848548,52.8945041 C9.07258316,52.9078583 9.09030597,52.9172261 9.10500784,52.9299824 C9.37467638,53.1655741 9.76377244,53.2831707 10.0988945,53.449799 C11.7724909,54.2813463 13.6019674,54.6038399 15.4119086,54.9137766 C15.42077,54.9153711 15.4296314,54.9161684 15.4382914,54.9175636 C19.4813055,55.8543498 23.769418,55.6018161 27.9733472,56.1850154 C28.0065774,57.4596425 28.0106053,58.734469 27.9395127,60.0035153 C27.7522149,63.3520276 27.6531284,66.7388086 27.7276447,70.0851284 C27.7928968,73.0120869 26.8209623,76.2420061 28.0518914,79.0380138 L28.0518914,79.0382131 C28.0520928,79.0384125 28.0520928,79.0386118 28.0520928,79.0388111 C28.0714268,79.0826607 28.1018375,79.1165444 28.1396998,79.14405 C28.3872149,79.3254278 28.994825,79.1940784 29.4874384,79.1992606 C31.4983722,79.2201888 33.508299,79.4761108 35.5182259,79.5492599 C36.6905489,79.5917142 37.8660943,79.4149208 39.0376118,79.5271358 L39.0376118,79.5269365 C38.8632033,78.4340857 39.0168681,78.2120475 39.0202918,77.5728404 C39.0341881,74.9085806 38.9912909,72.242527 39.0156597,69.5790645 C39.0225072,68.833024 39.0406328,68.0867841 39.0615779,67.3411422 C39.0700365,67.0264219 39.0722518,66.7115023 39.0843356,66.3971806 C39.1953045,63.4742084 39.4146241,60.5600061 39.199131,57.6340442 C39.198124,57.6178996 39.1983254,57.6021536 39.197117,57.5862083 C39.17013,57.2288343 39.3145306,56.8591028 39.3771646,56.5059145 C40.6064826,56.5059145 41.7228177,56.4710341 42.8359305,56.5148837 C44.2177049,56.569297 45.5952499,56.7187842 46.9770243,56.7700084 C48.0983943,56.8120642 49.2225838,56.7696098 50.3451622,56.7654242 C51.4749908,56.7610392 53.2079989,56.6727421 54.2955345,57.0632026 C54.3932113,58.1285477 54.432282,59.1909031 54.4643039,60.2610318 C54.4916937,61.1627383 54.4892769,62.0654414 54.5065969,62.9675466 C54.5349937,64.4456756 54.5742658,65.9236053 54.575877,67.4023322 C54.5764811,67.8613575 54.2633112,79.6973518 54.9542991,79.737813 C54.9545005,79.737813 54.9547019,79.7380123 54.9547019,79.7380123 C56.0734537,79.7928243 58.1752169,79.990546 59.294573,79.9873569 C61.038255,79.9817761 62.5148866,80.0300106 63.9639271,79.9680232 C64.9042425,79.92816 65.8101194,79.9965255 65.8046817,79.6036732 C65.7883687,78.4679695 65.7738682,77.6298448 65.7194914,77.0384736 C65.5472983,75.152145 65.3066307,73.2660158 65.2597056,71.3759002 C65.1622301,67.4573435 65.1700846,63.5359964 65.1420906,59.6158452 C65.1392711,59.2249862 65.193245,58.8339278 65.2143916,58.44267 C65.318513,56.5511592 65.5102415,54.6594491 65.5048039,52.7681376 C65.4981578,50.513074 65.4657331,48.2578111 65.4240443,46.0029469 C65.3968559,44.5254158 65.364834,43.0482834 65.3322079,41.5709517 C65.3225409,41.1244834 65.3142837,40.6782144 65.3046167,40.232344 C65.2224474,36.5003473 65.4913104,32.7892789 65.8572459,29.0804029 C65.9339776,28.3008772 65.9943963,27.5149734 65.9831181,26.7332552 C65.9758679,26.2477209 66.0749544,25.7472379 65.8626836,25.5391518" id="Fill-1" fill="#000"></path>
    </g>
</svg>