<?xml version="1.0" encoding="UTF-8"?>
<svg width="109px" height="61px" viewBox="0 0 109 61" version="1.1" xmlns="http://www.w3.org/2000/svg" xmlns:xlink="http://www.w3.org/1999/xlink">
    <!-- Generator: Sketch 52.6 (67491) - http://www.bohemiancoding.com/sketch -->
    <title>Group 40</title>
    <desc>Created with Sketch.</desc>
    <defs>
        <polygon id="path-1" points="0.8181 0.0613 11.4381 0.0613 11.4381 13 0.8181 13"></polygon>
    </defs>
    <g id="Symbols" stroke="none" stroke-width="1" fill="none" fill-rule="evenodd">
        <g id="Group-40">
            <path d="M7.0719,41.4259 C8.7969,41.4259 10.0859,41.1039 11.4129,40.3269 L11.4129,39.5499 C11.4129,38.3739 11.4229,37.2489 11.4429,36.1229 L12.3609,35.9859 L12.3609,34.8669 L11.4699,34.8669 L7.8299,34.8669 L6.2569,34.8669 L6.2569,35.9859 L7.8579,36.2279 C7.8769,37.3029 7.8869,38.3419 7.8869,39.4549 L7.8869,40.3009 C7.8309,40.3039 7.7759,40.3079 7.7169,40.3079 C5.9529,40.3079 4.3229,38.6579 4.3229,34.8289 C4.3229,30.9999 5.9919,29.4269 7.8109,29.4269 C8.1439,29.4269 8.4809,29.4829 8.8429,29.6129 L9.4599,32.1949 L11.0529,32.1949 L10.9769,29.1609 C9.8589,28.5929 8.4749,28.3089 7.3559,28.3089 C2.8829,28.3089 0.4369,30.7729 0.4369,34.8289 C0.4369,39.0939 3.1289,41.4259 7.0719,41.4259" id="Fill-1" fill="#173839"></path>
            <path d="M18.5584,32.5548 C19.3924,32.5548 19.7714,33.6728 19.7714,36.4218 C19.7714,39.1888 19.3924,40.3078 18.5584,40.3078 C17.7244,40.3078 17.3454,39.1888 17.3454,36.4218 C17.3454,33.6728 17.7244,32.5548 18.5584,32.5548 M18.5584,41.3498 C21.8004,41.3498 23.5624,39.2458 23.5624,36.3648 C23.5624,33.4838 21.4774,31.5118 18.5584,31.5118 C15.6394,31.5118 13.5544,33.5398 13.5544,36.3648 C13.5544,39.1888 15.2984,41.3498 18.5584,41.3498" id="Fill-3" fill="#173839"></path>
            <path d="M28.8694,36.4215 C28.8694,33.6725 29.2484,32.5545 30.0824,32.5545 C30.9164,32.5545 31.2954,33.6725 31.2954,36.4215 C31.2954,39.1895 30.9164,40.3075 30.0824,40.3075 C29.2484,40.3075 28.8694,39.1895 28.8694,36.4215 M35.0874,36.3645 C35.0874,33.4835 33.0014,31.5115 30.0824,31.5115 C27.1634,31.5115 25.0784,33.5405 25.0784,36.3645 C25.0784,39.1895 26.8224,41.3505 30.0824,41.3505 C33.3244,41.3505 35.0874,39.2465 35.0874,36.3645" id="Fill-5" fill="#173839"></path>
            <path d="M42.2134,33.3317 C42.4794,33.3317 42.7064,33.3937 42.9144,33.5007 L42.9144,39.2577 C42.6794,39.3937 42.4224,39.4737 42.1374,39.4737 C41.1144,39.4737 40.4314,38.3937 40.4314,36.4787 C40.4314,34.3747 41.1704,33.3317 42.2134,33.3317 M40.3554,41.3507 C41.4004,41.3507 42.2644,41.0067 43.0094,40.2487 L43.1804,41.2747 L47.1984,41.0467 L47.1984,40.0807 L46.5164,39.9147 L46.5164,30.2227 L46.5924,27.5877 L46.2704,27.3797 L41.8344,28.2327 L41.8344,29.0857 L43.0474,29.2757 L43.0474,32.3947 C42.5054,31.8287 41.8314,31.5117 40.8294,31.5117 C38.7634,31.5117 36.6024,33.3507 36.6024,36.5167 C36.6024,39.7387 38.2704,41.3507 40.3554,41.3507" id="Fill-7" fill="#173839"></path>
            <polygon id="Fill-9" fill="#173839" points="18.3974 49.174 18.3974 48.071 17.3874 48.071 16.0974 48.071 14.5644 48.071 14.5644 49.174 15.7254 49.37 13.6674 56.543 11.7334 49.361 13.2744 49.174 13.2744 48.071 11.3864 48.071 8.9744 48.071 7.4604 48.071 7.4604 49.174 8.6204 49.32 6.6164 56.381 4.8514 49.306 6.0954 49.174 6.0954 48.071 4.5434 48.071 0.6174 48.071 0.0004 48.071 0.0004 49.174 0.9824 49.276 4.3194 60.261 6.5624 60.261 8.9694 52.223 11.3674 60.261 13.6114 60.261 16.9704 49.421"></polygon>
            <path d="M21.556,54.8766 L20.682,54.8766 C20.734,52.5566 21.164,51.8666 21.743,51.8666 C22.229,51.8666 22.697,52.3346 22.697,53.6246 C22.697,54.5776 22.453,54.8766 21.556,54.8766 M21.967,50.8566 C19.518,50.8566 16.938,52.4646 16.938,55.6806 C16.938,58.7656 18.995,60.5606 21.799,60.5606 C23.65,60.5606 25.052,59.8876 25.856,58.3726 L25.127,57.6626 C24.604,58.1676 23.93,58.5416 22.996,58.5416 C21.891,58.5416 20.883,57.7656 20.707,55.9426 L25.894,55.9426 C25.968,55.6056 25.987,55.3446 25.987,54.9516 C25.987,52.6886 24.641,50.8566 21.967,50.8566" id="Fill-11" fill="#173839"></path>
            <path d="M31.2024,54.8766 L30.3284,54.8766 C30.3804,52.5566 30.8104,51.8666 31.3894,51.8666 C31.8754,51.8666 32.3434,52.3346 32.3434,53.6246 C32.3434,54.5776 32.0994,54.8766 31.2024,54.8766 M31.6134,50.8566 C29.1644,50.8566 26.5844,52.4646 26.5844,55.6806 C26.5844,58.7656 28.6414,60.5606 31.4454,60.5606 C33.2964,60.5606 34.6984,59.8876 35.5024,58.3726 L34.7734,57.6626 C34.2494,58.1676 33.5764,58.5416 32.6424,58.5416 C31.5374,58.5416 30.5294,57.7656 30.3534,55.9426 L35.5404,55.9426 C35.6144,55.6056 35.6334,55.3446 35.6334,54.9516 C35.6334,52.6886 34.2874,50.8566 31.6134,50.8566" id="Fill-13" fill="#173839"></path>
            <path d="M43.3415,53.6119 L44.8345,52.2569 L46.4765,52.0349 L46.4765,51.1559 L46.0465,51.1559 L44.4385,51.1559 L42.1015,51.1559 L42.1015,52.0349 L43.3315,52.2139 L40.3815,55.0329 L40.3815,49.5859 L40.4565,46.9869 L40.1385,46.7809 L35.8195,47.6229 L35.8195,48.4639 L36.8295,48.6509 L36.8295,56.3349 C36.8295,56.9979 36.8215,58.1859 36.8055,59.1089 L35.9505,59.3079 L35.9505,60.2609 L36.7735,60.2609 L40.4375,60.2609 L41.2045,60.2609 L41.2045,59.3079 L40.4055,59.1429 C40.3905,58.2569 40.3825,57.0969 40.3815,56.2999 L40.8615,55.8639 L42.6435,60.2609 L46.9815,60.2609 L46.9815,59.3079 L45.8105,58.9989 L43.3415,53.6119 Z" id="Fill-15" fill="#173839"></path>
            <path d="M51.4865,54.8766 L50.6125,54.8766 C50.6645,52.5566 51.0945,51.8666 51.6735,51.8666 C52.1595,51.8666 52.6275,52.3346 52.6275,53.6246 C52.6275,54.5776 52.3835,54.8766 51.4865,54.8766 M51.8975,50.8566 C49.4485,50.8566 46.8685,52.4646 46.8685,55.6806 C46.8685,58.7656 48.9255,60.5606 51.7295,60.5606 C53.5805,60.5606 54.9825,59.8876 55.7865,58.3726 L55.0575,57.6626 C54.5335,58.1676 53.8605,58.5416 52.9265,58.5416 C51.8215,58.5416 50.8135,57.7656 50.6375,55.9426 L55.8245,55.9426 C55.8985,55.6056 55.9175,55.3446 55.9175,54.9516 C55.9175,52.6886 54.5715,50.8566 51.8975,50.8566" id="Fill-17" fill="#173839"></path>
            <path d="M66.5737,56.3351 L66.5737,53.9791 C66.5737,51.9411 65.3767,50.8571 63.7507,50.8571 C62.6927,50.8571 61.9117,51.1611 60.9087,52.3411 L60.8147,51.0631 L60.4787,50.8571 L56.3467,52.1471 L56.3467,52.9141 L57.3557,53.0821 C57.3937,53.8301 57.4127,54.1471 57.4127,55.1761 L57.4127,56.3351 C57.4127,57.1031 57.4037,58.2071 57.3877,59.1091 L56.5337,59.3081 L56.5337,60.2611 L57.3557,60.2611 L61.0207,60.2611 L61.6937,60.2611 L61.6937,59.3081 L60.9897,59.1551 C60.9727,58.2441 60.9647,57.1161 60.9647,56.3351 L60.9647,53.3561 C61.4067,53.0411 61.8577,52.8571 62.1797,52.8571 C62.7787,52.8571 63.0217,53.2311 63.0217,54.2221 L63.0217,56.3351 C63.0217,57.1271 63.0127,58.2211 62.9967,59.1151 L62.1987,59.3081 L62.1987,60.2611 L62.9647,60.2611 L66.6297,60.2611 L67.3777,60.2611 L67.3777,59.3081 L66.5987,59.1471 C66.5817,58.2481 66.5737,57.1371 66.5737,56.3351" id="Fill-19" fill="#173839"></path>
            <path d="M73.378,58.7096 C72.368,58.7096 71.696,57.6436 71.696,55.7556 C71.696,53.6806 72.425,52.6516 73.453,52.6516 C73.716,52.6516 73.939,52.7126 74.145,52.8186 L74.145,58.4966 C73.913,58.6306 73.659,58.7096 73.378,58.7096 Z M77.697,49.5856 L77.772,46.9866 L77.454,46.7806 L73.079,47.6226 L73.079,48.4636 L74.275,48.6506 L74.275,51.7266 C73.741,51.1686 73.076,50.8566 72.088,50.8566 C70.05,50.8566 67.919,52.6706 67.919,55.7926 C67.919,58.9716 69.564,60.5606 71.621,60.5606 C72.651,60.5606 73.503,60.2216 74.238,59.4746 L74.406,60.4856 L78.37,60.2616 L78.37,59.3076 L77.697,59.1456 L77.697,49.5856 Z" id="Fill-21" fill="#173839"></path>
            <g id="Group-25" transform="translate(82.000000, 47.635200)">
                <mask id="mask-2" fill="white">
                    <use xlink:href="#path-1"></use>
                </mask>
                <g id="Clip-24"></g>
                <path d="M9.3301,11.5773 C8.9051,11.7663 8.4711,11.8783 8.0161,11.8783 C6.2781,11.8783 4.6511,10.4203 4.6511,6.5503 C4.6511,2.6603 6.2961,1.1653 8.0911,1.1653 C8.4881,1.1653 8.8401,1.2453 9.1921,1.4083 L9.7931,3.9693 L11.3261,3.9693 L11.2511,0.9963 C10.2041,0.4363 9.1381,0.0613 7.5681,0.0613 C4.1091,0.0613 0.8181,1.8383 0.8181,6.5313 C0.8181,11.1113 3.8471,13.0003 7.3811,13.0003 C9.1011,13.0003 10.4281,12.5513 11.3631,12.0273 L11.4381,9.0923 L9.9051,9.0923 L9.3301,11.5773 Z" id="Fill-23" fill="#173839" mask="url(#mask-2)"></path>
            </g>
            <path d="M99.0088,59.5319 C98.1858,59.5319 97.8118,58.4289 97.8118,55.6989 C97.8118,52.9889 98.1858,51.8859 99.0088,51.8859 C99.8318,51.8859 100.2058,52.9889 100.2058,55.6989 C100.2058,58.4289 99.8318,59.5319 99.0088,59.5319 M99.0088,50.8569 C96.1298,50.8569 94.0728,52.8579 94.0728,55.6429 C94.0728,58.4289 95.7928,60.5599 99.0088,60.5599 C102.2058,60.5599 103.9448,58.4849 103.9448,55.6429 C103.9448,52.8019 101.8878,50.8569 99.0088,50.8569" id="Fill-26" fill="#173839"></path>
            <path d="M106.5988,56.9147 C105.5708,56.9147 104.7668,57.7557 104.7668,58.7657 C104.7668,59.7567 105.5708,60.5607 106.5988,60.5607 C107.6268,60.5607 108.4308,59.7567 108.4308,58.7657 C108.4308,57.7557 107.6268,56.9147 106.5988,56.9147" id="Fill-28" fill="#173839"></path>
            <path d="M77.5072,25.9381 C76.6282,25.9591 75.8432,26.5411 75.9102,27.3161 C75.9782,28.1111 75.1572,28.6951 74.2622,28.6961 C73.9632,28.6961 73.6572,28.6311 73.3722,28.4871 L53.7632,22.2971 C53.6862,23.0881 53.6462,23.8901 53.6462,24.7011 C53.6462,26.6101 53.8632,28.4681 54.2732,30.2521 L72.6872,35.8061 C73.8252,36.3551 75.3122,35.7001 75.2212,34.6901 C75.1322,33.7041 76.5562,33.0461 77.6962,33.5471 L97.8502,39.8601 C99.3072,37.9881 100.5002,35.9011 101.3752,33.6541 L78.3892,26.1181 C78.1032,25.9861 77.8002,25.9311 77.5072,25.9381" id="Fill-30" fill="#435A52"></path>
            <path d="M77.4097,18.194 C76.5207,18.215 75.7267,18.797 75.7937,19.572 C75.8627,20.366 75.0327,20.951 74.1267,20.951 C73.8247,20.951 73.5147,20.886 73.2267,20.743 L55.6487,15.419 L54.0927,20.012 C53.9487,20.763 53.8377,21.525 53.7627,22.298 L73.3717,28.487 C73.6567,28.631 73.9637,28.696 74.2617,28.696 C75.1577,28.695 75.9777,28.111 75.9097,27.317 C75.8437,26.541 76.6287,25.959 77.5077,25.938 C77.8007,25.931 78.1037,25.986 78.3887,26.118 L101.3747,33.654 C102.2627,31.374 102.8197,28.928 102.9907,26.377 L78.3017,18.373 C78.0127,18.242 77.7057,18.187 77.4097,18.194" id="Fill-32" fill="#949C92"></path>
            <path d="M75.7988,17.0612 C75.7088,16.0272 77.1508,15.3382 78.3068,15.8622 L103.0338,23.8782 C102.5988,10.6172 91.7138,0.0002 78.3478,0.0002 C68.8728,0.0002 60.6448,5.3352 56.5018,13.1652 L73.2318,18.2322 C74.3848,18.8072 75.8908,18.1202 75.7988,17.0612" id="Fill-34" fill="#EDE5D1"></path>
            <path d="M77.6967,33.547 C76.5557,33.047 75.1327,33.704 75.2217,34.69 C75.3117,35.7 73.8257,36.355 72.6877,35.806 L54.2727,30.253 C55.1287,33.98 56.8297,37.385 59.1607,40.257 L97.4727,40.334 C97.6007,40.177 97.7267,40.019 97.8507,39.86 L77.6967,33.547 Z" id="Fill-36" fill="#173839"></path>
            <path d="M75.7988,17.0612 C75.7088,16.0272 77.1508,15.3382 78.3068,15.8622 L103.0338,23.8782 C102.5988,10.6172 91.7138,0.0002 78.3478,0.0002 C68.8728,0.0002 60.6448,5.3352 56.5018,13.1652 L73.2318,18.2322 C74.3848,18.8072 75.8908,18.1202 75.7988,17.0612" id="Fill-38" fill="#EDE5D1"></path>
        </g>
    </g>
</svg>