<?xml version="1.0" encoding="UTF-8"?>
<svg width="120px" height="61px" viewBox="0 0 120 61" version="1.1" xmlns="http://www.w3.org/2000/svg" xmlns:xlink="http://www.w3.org/1999/xlink">
    <!-- Generator: Sketch 49.3 (51167) - http://www.bohemiancoding.com/sketch -->
    <title>GoodLife Logo</title>
    <desc>Created with Sketch.</desc>
    <defs>
        <polygon id="path-1" points="119.638274 1.85686654 0 1.85686654 0 0.461477756 119.638274 0.461477756"></polygon>
    </defs>
    <g id="Page-1" stroke="none" stroke-width="1" fill="none" fill-rule="evenodd">
        <g id="Logo">
            <g id="Page-1">
                <g id="Group-3" transform="translate(0.000000, 59.002398)">
                    <mask id="mask-2" fill="white">
                        <use xlink:href="#path-1"></use>
                    </mask>
                    <g id="Clip-2"></g>
                    <path d="M0.672247315,0.461477756 C0.300348062,0.461477756 -0.000139114434,0.773895551 -0.000139114434,1.15873114 C-0.000139114434,1.54403095 0.300348062,1.85691296 0.672247315,1.85691296 L118.966351,1.85691296 C119.337323,1.85691296 119.638274,1.54403095 119.638274,1.15873114 C119.638274,0.773895551 119.337323,0.461477756 118.966351,0.461477756 L0.672247315,0.461477756 Z" id="Fill-1" fill="#FFFFFF" mask="url(#mask-2)"></path>
                </g>
                <path d="M3.36647655,53.9023288 L6.42560294,53.9023288 L7.65815683,44.9963327 L12.2948409,44.9963327 L12.5749246,42.5085957 L7.97209173,42.5085957 L8.79425803,36.6330058 L15.6660473,36.6330058 L15.9628248,34.1791567 L6.16221295,34.1791567 L3.36647655,53.9023288 Z M30.9598245,36.6330058 L36.7006134,36.6330058 L34.2327234,53.9023288 L37.1601548,53.9023288 L39.6419563,36.6330058 L45.2663528,36.6330058 L45.7105916,34.1791567 L31.2556745,34.1791567 L30.9598245,36.6330058 Z M93.8228547,33.5213617 C92.5889097,33.5705687 91.403191,33.8342437 90.4344908,34.3759845 C89.0363908,35.1512263 88.0667632,36.4519613 87.9341407,38.508441 C87.8200669,40.567706 89.0201607,42.0819807 90.4344908,43.4147466 C91.0424209,43.9731992 91.6999684,44.5186538 92.2925959,45.0292921 C93.411076,46.0329284 94.9232499,47.2501044 94.8731687,48.8966809 C94.8244786,50.7061973 93.5585373,51.8101044 91.8325909,52.1072031 C91.3711947,52.1735861 90.8940322,52.1889052 90.4344908,52.1564101 C88.9529221,52.0570677 87.4416756,51.5487505 86.1590406,50.904882 L84.9918705,53.1117679 C86.6695905,54.0485571 88.5272319,54.5443404 90.4344908,54.5591954 C90.9436496,54.5759072 91.4537359,54.5591954 91.9638222,54.4937408 C94.9724036,54.0824449 97.636445,51.8268162 97.7523737,48.5345919 C97.8669113,45.5552495 95.0874049,43.6292147 93.0326847,41.9334313 C91.8325909,40.9465068 90.4344908,39.5951721 90.7474983,37.9667002 C91.0257272,36.4519613 92.6872172,35.8758685 94.0352361,35.9083636 C95.5488011,35.9408588 96.8481299,36.3043404 98.2286088,36.912 L99.249245,34.7227544 C97.6855988,33.7506847 95.6146486,33.4563714 93.8228547,33.5213617 Z M62.0444809,48.091265 L61.8307084,47.7602785 L53.2468841,34.1791567 L50.8123816,34.1791567 L48.0333389,53.9023288 L50.6310691,53.9023288 L52.7029467,39.2999304 L61.8307084,53.7375319 L61.945246,53.9023288 L63.9192798,53.9023288 L66.697395,34.1791567 L64.0008936,34.1791567 L62.0444809,48.091265 Z M69.9684391,53.7625996 L80.6742222,53.7625996 L81.1179972,51.2920387 L73.3238792,51.2920387 L74.2601193,44.8579961 L79.4402771,44.8579961 L79.8849796,42.369795 L74.5731268,42.369795 L75.3952931,36.494205 L82.828641,36.494205 L83.124491,34.0412843 L72.747018,34.0412843 L69.9684391,53.7625996 Z M110.222592,35.9900658 C110.566204,35.9246112 110.911672,35.8925803 111.241373,35.9083636 C112.754011,35.9408588 114.037109,36.3043404 115.418979,36.912 L116.439152,34.7227544 C114.891736,33.7506847 112.819858,33.4563714 111.011834,33.5213617 C110.750299,33.5390019 110.484127,33.5547853 110.222592,33.586352 C109.103648,33.7186538 108.067709,34.0473191 107.212155,34.623412 C106.472994,35.1345145 105.863209,35.8257331 105.501048,36.7323482 C105.304433,37.2587698 105.174592,37.8353269 105.141669,38.508441 C105.091124,39.2822901 105.238585,39.9906847 105.501048,40.6317679 C105.880366,41.5225996 106.505454,42.2959845 107.212155,43.0029865 C107.936014,43.7267002 108.742414,44.3882089 109.498733,45.0292921 C109.728272,45.2432959 109.975432,45.4559072 110.222592,45.687087 C111.174598,46.5588859 112.112693,47.5978027 112.079769,48.8966809 C112.030152,50.2461586 111.308148,51.217764 110.222592,51.7284023 C109.860894,51.9094468 109.466273,52.0412843 109.02157,52.1072031 C108.42987,52.1889052 107.819622,52.1889052 107.212155,52.1072031 C106.636685,52.0412843 106.060751,51.9261586 105.501048,51.7595048 C104.761886,51.5301818 104.021798,51.2335474 103.364714,50.904882 L102.181777,53.1117679 C103.232091,53.7036441 104.350108,54.1144758 105.501048,54.3456557 C106.060751,54.4607814 106.636685,54.5276286 107.212155,54.5591954 C107.8544,54.5930832 108.512411,54.5591954 109.152802,54.4937408 C109.51589,54.4440696 109.877124,54.3623675 110.222592,54.264882 C112.788325,53.5221354 114.860203,51.4322321 114.958047,48.5345919 C115.056354,45.5552495 112.293078,43.6292147 110.222592,41.9334313 C109.038728,40.9465068 107.639237,39.5951721 107.936014,37.9667002 C108.149323,36.8135861 109.168568,36.2040696 110.222592,35.9900658 Z M20.1724276,53.9023288 L23.231554,53.9023288 L24.5619517,44.0409749 L25.8946679,34.1791567 L22.9505428,34.1791567 L20.1724276,53.9023288 Z" id="Fill-4" fill="#FFFFFF"></path>
                <path d="M83.27441,0.809361702 L79.9324176,0.809361702 L76.023302,29.0030948 L86.3043224,29.0030948 L86.6780765,26.3129594 L79.7566697,26.3129594 L83.27441,0.809361702 Z M71.7687189,18.0564023 C71.5197041,18.6441006 70.9868958,19.692766 70.1327332,21.1355513 C69.3337526,22.4683172 68.5139049,23.6780658 67.6096611,24.7462282 C67.5201641,24.8548549 67.4306672,24.9606963 67.3240128,25.0688588 C66.3098686,26.207118 65.4042336,26.7776402 64.6571891,26.7776402 C63.0045096,26.7776402 62.5403311,25.0321857 63.2349759,21.5612379 C63.5025393,20.28 63.9639355,18.9982979 64.6043256,17.7175242 C65.2447157,16.418646 66.0256114,15.385764 66.8964678,14.5501741 C67.14641,14.3366344 67.37734,14.140735 67.6096611,13.9810445 C68.2481963,13.5358607 68.9043528,13.3213926 69.546134,13.3213926 C70.702175,13.3213926 71.6082736,13.5883172 72.3019909,14.1049903 L71.7687189,18.0564023 Z M74.088684,0.840464217 L72.675745,11.5782592 C71.981564,11.4710251 71.0388319,11.4185687 69.9018032,11.4185687 C69.1552224,11.4185687 68.3896294,11.5596905 67.6096611,11.8614313 C67.3068553,11.970058 67.0230619,12.0940039 66.7202561,12.2532302 C65.6184698,12.7875435 64.6043256,13.5358607 63.6439723,14.4972534 C62.6840827,15.4934623 61.8656261,16.6145455 61.1733,17.8776789 C60.514825,19.1227079 60.0358076,20.5116441 59.7330019,21.9901741 C59.3411629,24.0721857 59.4111838,25.8153191 59.9991741,27.2218956 C60.5690796,28.6642166 61.7061082,29.3735397 63.3954212,29.3735397 C64.92568,29.3735397 66.3288809,28.7510251 67.6096611,27.5245648 C67.7325455,27.3992263 67.8586759,27.2757447 67.9815603,27.1508704 C69.3694587,25.6560928 70.4346115,24.1074662 71.181656,22.4683172 L70.2755574,29.0030948 L73.4742619,29.0030948 L77.3523086,0.809825919 L74.088684,0.840464217 Z M50.4925575,27.2757447 C50.1888243,27.3467698 49.8711797,27.3811219 49.5326679,27.3811219 C47.9500093,27.3811219 46.9001591,26.6899033 46.3687419,25.3009671 C45.8178488,23.9477756 45.7098032,22.3086267 45.9764392,20.4058027 C46.3140236,18.2532302 47.0253621,16.5244874 48.0562,15.2799226 C48.7675385,14.4076596 49.5855314,13.8547776 50.4925575,13.5883172 C50.8843965,13.4815474 51.2739169,13.4286267 51.6838407,13.4286267 C52.6608878,13.4286267 53.408396,13.7489362 53.9616077,14.4420116 C54.526876,15.1197679 54.8653878,15.9725338 55.0267606,17.0406963 C55.1862785,18.0912186 55.1862785,19.1779497 55.0267606,20.2442553 C54.7406486,22.3086267 54.1011859,24.019265 53.1055902,25.3534236 C52.3784855,26.4030174 51.506238,27.0264603 50.4925575,27.2757447 Z M57.0170244,24.7657253 C57.8707233,23.3582205 58.3692167,21.8467311 58.5820618,20.2442553 C58.687325,19.1227079 58.6706313,18.0378337 58.4216165,16.9506383 C58.2064528,15.9191489 57.7812264,14.9591489 57.1760786,14.1226306 C56.5741768,13.2698646 55.8085837,12.6111412 54.9010939,12.1473888 C53.9931403,11.6669246 52.9451449,11.4185687 51.7710191,11.4185687 C51.3263166,11.4185687 50.9020176,11.4538491 50.4925575,11.5063056 C49.6912583,11.6130754 48.9275201,11.8266151 48.2157179,12.1473888 C47.1491739,12.627853 46.1892843,13.3037524 45.3884489,14.1583752 C44.5528349,15.0306383 43.9138359,15.9911025 43.4334274,17.0597292 C42.95441,18.1455319 42.6330557,19.2661509 42.4568441,20.4058027 C42.2069018,22.0417021 42.3149473,23.5374081 42.7939647,24.9073114 C43.2553609,26.2614313 44.020954,27.3644101 45.1403615,28.165648 C46.2606964,28.965029 47.6300461,29.3735397 49.2660319,29.3735397 C49.6745646,29.3735397 50.083561,29.3396518 50.4925575,29.2853385 C51.647671,29.1261122 52.7327636,28.7510251 53.7450529,28.1303675 C55.0791603,27.3091683 56.1818741,26.1894778 57.0170244,24.7657253 Z M29.0902656,25.3009671 C28.5569936,23.9477756 28.4160243,22.3086267 28.7179026,20.4058027 C29.0564144,18.2532302 29.7482768,16.5244874 30.7614936,15.2799226 C31.5099293,14.4076596 32.3089099,13.8547776 33.2344846,13.5883172 C33.6063838,13.4815474 34.0167714,13.4286267 34.4257678,13.4286267 C35.3856574,13.4286267 36.1317745,13.7489362 36.7002888,14.4420116 C37.2340245,15.1197679 37.6059238,15.9725338 37.7672965,17.0406963 C37.9268144,18.0912186 37.9268144,19.1779497 37.7672965,20.2442553 C37.4468696,22.3086267 36.8426492,24.019265 35.8470536,25.3534236 C35.1014003,26.4030174 34.2119953,27.0264603 33.2344846,27.2757447 C32.9135939,27.3467698 32.5940944,27.3811219 32.2741312,27.3811219 C30.6914727,27.3811219 29.6240013,26.6899033 29.0902656,25.3009671 Z M36.4670403,28.1303675 C37.8048574,27.3091683 38.8876314,26.1894778 39.741794,24.7657253 C40.5760169,23.3582205 41.1102164,21.8467311 41.2878191,20.2442553 C41.4287884,19.1227079 41.3754612,18.0378337 41.1630798,16.9506383 C40.9136013,15.9191489 40.5217623,14.9591489 39.9013119,14.1226306 C39.3137853,13.2698646 38.5495833,12.6111412 37.6425572,12.1473888 C36.7355311,11.6669246 35.651366,11.4185687 34.4777039,11.4185687 C34.0524774,11.4185687 33.643481,11.4538491 33.2344846,11.5063056 C32.4169554,11.6130754 31.6328137,11.8266151 30.9224027,12.1473888 C29.8572498,12.627853 28.9307477,13.3037524 28.0965248,14.1583752 C27.294762,15.0306383 26.6376781,15.9911025 26.1762819,17.0597292 C25.7839792,17.9319923 25.4825646,18.8381431 25.286877,19.7647195 C25.2340135,19.9791876 25.19738,20.1922631 25.1612103,20.4058027 C24.9840712,21.7232495 25.0211684,22.9497099 25.286877,24.0884333 C25.3402042,24.3753191 25.4106888,24.6403868 25.5011132,24.9073114 C25.961582,26.2614313 26.7633448,27.3644101 27.8818249,28.165648 C28.985466,28.965029 30.3715095,29.3735397 31.9713255,29.3735397 C32.3984068,29.3735397 32.8264155,29.3396518 33.2344846,29.2853385 C34.3900618,29.1261122 35.4723721,28.7510251 36.4670403,28.1303675 Z M99.1367015,29.0355899 C99.6829575,27.3852998 100.115603,25.4755126 100.393832,23.3052998 L101.674612,13.9615474 L105.176123,13.9615474 L105.71125,11.8614313 L101.994576,11.8614313 L102.687366,7.25222437 C102.935917,5.97098646 103.416789,4.86800774 104.180527,3.99528046 C104.96235,3.10630561 105.995507,2.67876209 107.310602,2.67876209 C107.522983,2.67876209 107.720062,2.6959381 107.89581,2.6959381 C108.465715,2.73353965 109.000379,2.8212766 109.480787,2.98096712 L109.746032,1.84224371 L109.977426,0.809825919 C109.90555,0.792649903 109.819299,0.774081238 109.746032,0.738336557 C109.10796,0.580038685 108.500958,0.471876209 107.89581,0.434738878 C107.682037,0.418027079 107.469192,0.418027079 107.258202,0.418027079 C105.497477,0.418027079 104.074336,0.757369439 102.990635,1.48526112 C101.888385,2.18065764 101.052307,3.15922631 100.500487,4.42282398 C99.9319723,5.67017408 99.504891,7.25222437 99.2210976,9.10352031 L98.8130285,11.8614313 L95.9305775,11.8614313 L95.3986966,13.9615474 L98.5816349,13.9615474 L97.3713393,23.1989942 C97.0523035,25.5131141 96.5918348,27.462824 96.0409416,29.031412 L99.1367015,29.0355899 Z M92.964194,6.32704062 C93.0356061,6.34514507 93.1056271,6.34514507 93.1946603,6.34514507 C93.7821869,6.34514507 94.2802166,6.13253385 94.6530433,5.75744681 C95.0620397,5.38375242 95.2925059,4.90375242 95.3458331,4.3703675 C95.437185,3.85415861 95.328212,3.37183752 95.0087125,2.99953578 C94.705443,2.60680851 94.2802166,2.39326886 93.7469446,2.39326886 C93.4803086,2.39326886 93.2136726,2.44665377 92.964194,2.57152805 C92.7504215,2.67876209 92.5565888,2.80270793 92.3590463,2.98096712 C91.9338198,3.35466151 91.6653289,3.79938104 91.5772231,4.3703675 C91.5062748,4.90375242 91.6129292,5.34940039 91.8976501,5.75744681 C92.1633586,6.0782205 92.5018704,6.29176015 92.964194,6.32704062 Z M110.602049,14.1760155 C110.691546,14.1049903 110.79681,14.0149323 110.887234,13.945764 C111.614339,13.4453385 112.361847,13.1969826 113.126976,13.1969826 C113.606457,13.1969826 113.925957,13.3571373 114.176827,13.6964797 C114.388281,14.0149323 114.441608,14.4420116 114.372514,15.0129981 C114.210214,15.9911025 113.693636,16.8280851 112.858022,17.5216248 C112.237108,18.0011605 111.580024,18.4296325 110.887234,18.7494778 C110.639147,18.874352 110.388277,18.9815861 110.122568,19.0716441 C109.214151,19.3534236 108.397549,19.6045648 107.631492,19.7470793 C107.544778,19.7647195 107.473829,19.7814313 107.384796,19.7986074 C107.455281,19.4810832 107.526229,19.1584526 107.631492,18.8381431 C107.846656,18.1803482 108.148534,17.4849516 108.539446,16.7747002 C109.091267,15.7241779 109.802141,14.8519149 110.602049,14.1760155 Z M105.977422,15.7056093 C105.90972,15.7784913 105.855929,15.865764 105.782662,15.938646 C104.858014,17.2198839 104.236637,18.6617408 103.935222,20.2247582 C103.650501,21.8467311 103.61294,23.3772534 103.935222,24.7657253 C104.236637,26.1360928 104.824627,27.2218956 105.782662,28.0765184 C105.801674,28.0765184 105.818368,28.0923017 105.836916,28.1113346 C106.353495,28.5393424 106.940094,28.8768279 107.631492,29.0727273 C108.255189,29.2686267 108.947979,29.3735397 109.748814,29.3735397 C110.139262,29.3735397 110.513016,29.3396518 110.887234,29.2853385 C111.973254,29.1075435 112.984616,28.7166731 113.908799,28.0588781 C115.170567,27.1675822 116.094751,26.3129594 116.772238,25.4959381 L115.56287,24.2671567 C115.298089,24.6051064 114.921553,24.9783366 114.388281,25.4425532 C113.8564,25.8868085 113.214155,26.3129594 112.415174,26.6899033 C111.89906,26.9359381 111.401957,27.1151257 110.887234,27.2051838 C110.583964,27.2567118 110.280695,27.2757447 109.980208,27.2757447 C108.895579,27.2757447 108.112828,26.8997292 107.631492,26.1003482 C107.526229,25.9411219 107.436732,25.7628627 107.367639,25.5660348 C106.940094,24.4277756 106.849206,23.1279691 107.116769,21.6861122 C107.295763,21.6680077 107.455281,21.6508317 107.631492,21.6331915 C108.626624,21.4920696 109.696414,21.2242166 110.887234,20.8686267 L111.260061,20.7613926 C112.841792,20.28 114.210214,19.5511799 115.402888,18.5888588 C116.576551,17.6279304 117.214158,16.418646 117.320813,14.9777176 C117.375995,13.945764 117.055104,13.0897485 116.396166,12.4491296 C115.703839,11.7741586 114.655844,11.4185687 113.232703,11.4185687 C112.504671,11.4185687 111.722384,11.5782592 110.887234,11.8990329 C110.440677,12.0573308 109.980208,12.2894391 109.500263,12.5577563 C108.844107,12.9119536 108.218555,13.3571373 107.631492,13.8905222 C107.046748,14.4076596 106.478234,15.0129981 105.977422,15.7056093 Z M92.964194,18.6074275 L93.905535,11.8614313 L90.7244517,11.8614313 L88.3057154,29.0030948 L91.5062748,29.0030948 L92.964194,18.6074275 Z M22.6242267,27.4707157 L24.1173883,17.4162476 L18.3752082,17.4162476 L18.0200027,19.7122631 L20.1892604,19.692766 L19.4069736,25.7791103 C18.8732379,25.9411219 18.3752082,26.1003482 17.8961908,26.2614313 C17.3800763,26.4211219 16.8463406,26.5283559 16.2416565,26.6346615 C15.6188875,26.7409671 14.9784974,26.7776402 14.2513927,26.7776402 C12.9168215,26.7776402 11.6898322,26.5107157 10.5889733,25.9216248 C9.46863844,25.3534236 8.54399117,24.5517215 7.74408317,23.5374081 C6.96226006,22.5244874 6.37519715,21.312882 6.00190675,19.9596905 C5.62815264,18.572147 5.52196196,17.1126499 5.6457738,15.5468472 C5.84238887,13.4286267 6.48092412,11.5063056 7.54839554,9.79705996 C8.6140121,8.08920696 9.94858323,6.75458414 11.5836415,5.77508704 C13.1848487,4.81462282 14.8194433,4.33508704 16.5092199,4.33508704 C18.321881,4.33508704 19.7260093,4.47528046 20.721605,4.70738878 C21.7357492,4.97431335 22.8018295,5.34940039 23.9217007,5.81176015 L24.7216086,3.92518375 L24.9367723,3.37183752 C24.8658239,3.33655706 24.7948756,3.31891683 24.7216086,3.28224371 C23.7798039,2.89183752 22.7127962,2.51814313 21.5743764,2.23357834 C20.3139997,1.91280464 18.7665835,1.75311412 16.9353738,1.75311412 C14.925634,1.75311412 13.0239396,2.07388781 11.3003118,2.71404255 C9.55720796,3.37183752 8.0274129,4.31605416 6.73086638,5.54437137 C5.3791378,6.75458414 4.31305753,8.21408124 3.5122221,9.90382979 C2.74802015,11.5782592 2.21567558,13.4815474 2.00143936,15.5468472 C1.75149709,17.7360928 2.05523027,19.907234 2.85606569,22.0417021 C3.65504626,24.1775629 4.95252021,25.9411219 6.74848754,27.3091683 C8.54399117,28.6967118 10.7308701,29.3735397 13.2905756,29.3735397 C14.5180287,29.3735397 15.6188875,29.3220116 16.5620834,29.2138491 C17.4871944,29.1075435 18.321881,28.9320696 19.0689255,28.7510251 C19.7798003,28.5560542 20.3139997,28.3963636 20.6692052,28.2724178 C21.0244107,28.1303675 21.6657283,27.8629787 22.6242267,27.4707157 Z" id="Fill-6" fill="#FFFFFF"></path>
                <path d="M7.0034843,26.9791567 C5.2807839,25.666352 4.01762484,23.9561779 3.24646717,21.8950561 C2.45768833,19.7930832 2.17899574,17.6730058 2.41641771,15.5942437 C2.61906107,13.6333926 3.1156996,11.778383 3.89195814,10.0774932 C4.67285382,8.42998839 5.72177665,7.00762863 7.00904888,5.85590716 C8.26339735,4.66751257 9.75284922,3.7446499 11.4467993,3.10449516 C13.1170999,2.48569439 14.9636122,2.1704913 16.9353274,2.1704913 C18.7261939,2.1704913 20.2522792,2.32832495 21.4718491,2.63842166 C22.4298838,2.87795745 23.4129592,3.20383752 24.3992805,3.60399226 C24.3709939,3.67641006 24.333433,3.77389555 24.333433,3.77389555 C24.333433,3.77482398 23.9290737,4.72646809 23.6962889,5.27285106 C22.6557129,4.85784139 21.7101985,4.53521083 20.8277493,4.30310251 C19.7241081,4.04639072 18.2749994,3.91687427 16.5091735,3.91687427 C14.7563317,3.91687427 13.0266756,4.42194197 11.3688952,5.41722244 C9.67309028,6.432 8.30698654,7.79261896 7.19407108,9.57613926 C6.09228476,11.3396983 5.4314912,13.3353656 5.22977527,15.5083636 C5.09900771,17.1707234 5.22003726,18.6599304 5.59935595,20.0683636 C5.99026751,21.4870097 6.60097987,22.7390019 7.41340817,23.7923095 C8.28843795,24.9017872 9.26502128,25.7188085 10.4001951,26.2939729 C11.5145017,26.8904913 12.8124393,27.1950174 14.2513463,27.1950174 C15.0730489,27.1950174 15.7083381,27.14906 16.3120948,27.0469323 C16.953876,26.9331992 17.4890029,26.825501 18.0199563,26.6602398 C18.0287669,26.6579188 19.7802176,26.0990019 19.7802176,26.0990019 L19.8210245,25.8330058 L20.6635942,19.2703752 C20.6635942,19.2703752 19.0953109,19.2843017 18.5077842,19.2898723 C18.582906,18.8043017 18.6742578,18.2138182 18.7326859,17.8336248 L23.6341511,17.8336248 C23.507557,18.6817485 22.3102454,26.7479768 22.2471802,27.1750561 C21.9647779,27.290646 21.3610213,27.5385377 21.3610213,27.5385377 C21.3610213,27.5385377 20.5434921,27.8732379 20.5235524,27.8806654 C20.1771574,28.0008975 19.6503775,28.1582669 18.958515,28.3481315 C18.3417744,28.4976093 17.49364,28.6860812 16.5142744,28.7993501 C15.6002926,28.9037988 14.5161274,28.9567195 13.2905293,28.9567195 C10.8170746,28.9567195 8.70207154,28.2910329 7.0034843,26.9791567 M11.154659,2.32229014 C9.3535908,3.0023675 7.77000483,3.98372147 6.44378056,5.24128433 C5.08231397,6.45938878 3.96661622,7.97087814 3.13517562,9.72422437 C2.31903761,11.5142437 1.79874963,13.4565261 1.58683197,15.5037215 C1.33410742,17.7106074 1.62949373,19.9615938 2.46464405,22.1893694 C3.29191121,24.3985764 4.64827694,26.2336248 6.49571662,27.642058 C8.34130144,29.0681315 10.6283427,29.7918453 13.2905293,29.7918453 C14.54766,29.7918453 15.6633578,29.7370677 16.6093359,29.6293694 C17.6336819,29.51053 18.51474,29.3146306 19.1671867,29.1577253 C19.8942914,28.957648 20.4419386,28.7942437 20.8059547,28.6679768 L20.8166201,28.6633346 L21.6786659,28.3109942 L23.0025716,27.7673965 L23.0378139,27.5320387 L24.6019239,16.998499 L18.017174,16.998499 L17.5321283,20.133354 C17.5321283,20.133354 19.1328718,20.1198917 19.7139064,20.1143211 C19.6155988,20.8844565 19.083718,25.0187698 19.0266811,25.4620967 C18.6700844,25.5767582 17.7639857,25.865501 17.7639857,25.865501 C17.2835772,26.0140503 16.7785918,26.1166422 16.1697343,26.2229478 C15.6160589,26.317648 15.0238951,26.3598917 14.2513463,26.3598917 C12.9339326,26.3598917 11.80015,26.0957524 10.7850783,25.5530832 C9.75192179,25.0294468 8.86669028,24.286236 8.07095572,23.2779574 C7.32808465,22.3147079 6.76559862,21.1592727 6.40343738,19.8492534 C6.05101415,18.536913 5.93879517,17.1391567 6.06121587,15.5789246 C6.24994779,13.5437988 6.86900702,11.6702205 7.90169983,10.0185377 C8.94320322,8.35014313 10.2179551,7.08051064 11.7973677,6.1335087 C13.3457113,5.20461122 14.8870993,4.752 16.5091735,4.752 C18.1873573,4.752 19.6109617,4.87780271 20.6269608,5.11455319 C21.5701566,5.36290909 22.5996035,5.71803482 23.7621364,6.1975706 L24.1437737,6.35586847 L25.1059818,4.08817021 C25.1115464,4.07610058 25.3253189,3.52275435 25.3253189,3.52275435 L25.4727802,3.14395358 L25.1208207,2.99772534 L24.9798514,2.93784139 L24.9102942,2.90952418 L24.8815439,2.89652611 C23.803407,2.44948549 22.7243427,2.09064603 21.6763473,1.82882785 C20.39093,1.50109091 18.7952874,1.33536557 16.9353274,1.33536557 C14.8643772,1.33536557 12.9195574,1.66728046 11.154659,2.32229014" id="Fill-8" fill="#FFFFFF"></path>
                <path d="M93.4258685,12.2792263 C93.3117946,13.101354 92.5513024,18.5494004 92.5513024,18.5494004 C92.5513024,18.5494004 91.2380622,27.9145068 91.1439281,28.5852998 L88.7859384,28.5852998 C88.9106777,27.7046809 90.9932207,12.9481625 91.0878186,12.2792263 L93.4258685,12.2792263 Z M90.3625686,11.4436364 L87.8255851,29.4204255 L91.8696417,29.4204255 L93.3776421,18.6654545 L94.3852944,11.4436364 L90.3625686,11.4436364 Z" id="Fill-10" fill="#FFFFFF"></path>
                <path d="M107.283382,26.3299497 C107.281527,26.3271644 107.2806,26.3243791 107.278745,26.3229865 C107.27689,26.3202012 107.275035,26.3188085 107.274108,26.3169516 L107.283382,26.3299497 Z M106.221939,16.0651915 L106.316073,15.9500658 C106.764949,15.3280155 107.301003,14.739853 107.908006,14.2032186 C108.468637,13.6935087 109.070539,13.2650368 109.699336,12.9252302 C110.237709,12.6234894 110.658762,12.4229478 111.027415,12.2925029 C111.818512,11.9879768 112.55721,11.8361779 113.232842,11.8361779 C114.51826,11.8361779 115.484641,12.1425609 116.104628,12.7488279 C116.639291,13.2678221 116.909173,13.9409362 116.909173,14.7514584 C116.909173,14.8178414 116.907318,14.8865455 116.903609,14.9547853 C116.806692,16.2694468 116.212674,17.3854236 115.13871,18.2655783 C113.963657,19.2139729 112.65459,19.8996209 111.138243,20.3619807 L110.771908,20.4673578 C109.47397,20.8545145 108.460754,21.0935861 107.578304,21.2189246 C107.555119,21.2207814 106.763094,21.3024836 106.763094,21.3024836 L106.706521,21.609795 C106.600794,22.1770677 106.54793,22.7257718 106.54793,23.2563714 C106.54793,24.1318839 106.692145,24.9540116 106.97733,25.71347 C107.050597,25.9232959 107.154005,26.1303366 107.278745,26.3229865 C107.830102,27.2314584 108.738982,27.6938182 109.979883,27.6938182 C110.328133,27.6938182 110.647633,27.6692147 110.955539,27.6181509 C111.479537,27.5257718 111.999361,27.3512263 112.594307,27.0675899 C113.364074,26.7050368 114.038779,26.2784217 114.654592,25.7636054 C115.040866,25.428441 115.339962,25.1424836 115.581558,24.882058 C115.819443,25.1239149 115.982207,25.2887118 116.19969,25.5087505 C115.534723,26.2528897 114.692617,26.9947079 113.668734,27.7174932 C112.821991,28.3200464 111.890852,28.6979188 110.819207,28.8733926 C110.436179,28.9286344 110.083755,28.9564874 109.74849,28.9564874 C109.013965,28.9564874 108.361982,28.8645725 107.756371,28.6737795 C107.154005,28.5029478 106.616096,28.2146692 106.1023,27.7903752 L106.061493,27.7560232 L106.139397,27.8247273 L105.782801,27.6585377 L106.059639,27.7648433 C105.191101,26.9896015 104.628615,25.9794662 104.342503,24.6759458 C104.196433,24.0464681 104.123629,23.375675 104.123629,22.6528897 C104.123629,21.9240696 104.198287,21.1423288 104.346212,20.2979188 C104.634179,18.8022128 105.231444,17.4155977 106.120849,16.1826383 C106.163974,16.1315745 106.221939,16.0651915 106.221939,16.0651915 Z M110.737593,11.5089052 C110.328133,11.6537408 109.881112,11.866352 109.297759,12.1931605 C108.61378,12.5617485 107.958087,13.0301431 107.351548,13.5802398 C106.703738,14.1530832 106.127341,14.7853462 105.643223,15.4552108 C105.61169,15.4932766 105.481386,15.6501818 105.481386,15.6501818 L105.443825,15.693354 C104.483008,17.0265841 103.837517,18.524147 103.525437,20.1461199 C103.367311,21.0439149 103.289406,21.877648 103.289406,22.6566035 C103.289406,23.4415938 103.369165,24.1722708 103.528683,24.8607041 C103.853747,26.3373772 104.500166,27.4928124 105.504572,28.3887505 L105.561609,28.4393501 C105.561609,28.4393501 105.580621,28.4439923 105.585258,28.4449207 C106.184841,28.9379188 106.817812,29.2754043 107.517558,29.4745532 C108.194581,29.6871644 108.928178,29.7916132 109.74849,29.7916132 C110.123635,29.7916132 110.515938,29.7619033 110.946729,29.6987698 C112.137084,29.5037988 113.212439,29.066971 114.150534,28.3989632 C115.361757,27.543412 116.352252,26.6567582 117.093268,25.762677 L117.334863,25.4716132 L115.526839,23.6365648 L115.234235,24.009795 C114.991713,24.3189632 114.635116,24.6750174 114.1139,25.1276286 C113.559761,25.5895242 112.943948,25.9794662 112.237247,26.3123095 C111.710931,26.5634507 111.258809,26.7161779 110.815034,26.7946306 C110.556744,26.8368743 110.281762,26.857764 109.979883,26.857764 C109.022312,26.857764 108.389805,26.5485957 107.988692,25.884766 L107.980809,25.8717679 C107.890384,25.734824 107.816654,25.5853462 107.761472,25.4275126 C107.509675,24.7571838 107.383544,24.0302205 107.383544,23.2535861 C107.383544,22.8710716 107.42296,22.4737021 107.483707,22.0679768 C107.577377,22.0586925 107.681713,22.0475513 107.681713,22.0475513 L107.690523,22.047087 C108.615634,21.9152495 109.669658,21.6687505 111.006084,21.26906 C111.002374,21.2699884 111.374737,21.1627544 111.374737,21.1627544 C112.97919,20.6743985 114.420416,19.919118 115.66549,18.9136248 C116.925867,17.8821354 117.621903,16.5684023 117.73644,15.0081702 C117.797651,13.8624836 117.434562,12.8774159 116.687054,12.1499884 C115.905694,11.3877447 114.743625,11.000588 113.232842,11.000588 C112.454729,11.000588 111.615405,11.1718839 110.737593,11.5089052 Z" id="Fill-12" fill="#FFFFFF"></path>
                <path d="M113.12693,13.6147776 C113.509031,13.6147776 113.68617,13.7419729 113.831313,13.9336944 C113.932866,14.0896712 113.983875,14.2990329 113.983875,14.5770986 C113.983875,14.6894391 113.974601,14.8152418 113.959298,14.9512573 C113.815083,15.8095938 113.355541,16.5653385 112.591803,17.2003868 C111.939356,17.7035977 111.320297,18.0902901 110.712367,18.3702128 C110.462425,18.4960155 110.229176,18.5944294 109.987581,18.6756673 C109.311021,18.8864217 108.608957,19.1004255 107.948163,19.2512959 C107.973668,19.1565957 107.997317,19.0618956 108.027922,18.9681238 C108.241695,18.3158994 108.537081,17.6460348 108.904807,16.9752418 C109.418603,15.9971373 110.079396,15.1657253 110.870494,14.4953965 C110.887188,14.48147 110.990596,14.397911 110.990596,14.397911 C110.990596,14.397911 111.109771,14.3022824 111.12971,14.2855706 C111.780302,13.8403868 112.451298,13.6147776 113.12693,13.6147776 M110.650693,13.6017795 L110.638173,13.6101354 L110.462425,13.750793 L110.333048,13.8566344 C109.458019,14.5965957 108.730914,15.5124952 108.170283,16.5806576 C107.780762,17.2881238 107.464973,18.0067311 107.235434,18.7081625 C107.122287,19.0535397 107.045774,19.4021663 106.977145,19.7094778 L106.838494,20.3398839 L107.71306,20.1574468 C108.524561,20.005648 109.400054,19.7340812 110.246797,19.4704062 C110.535228,19.3719923 110.801864,19.2596518 111.073601,19.1236364 C111.727439,18.8214313 112.398898,18.4041006 113.113482,17.8530754 C114.049259,17.0745841 114.608035,16.1456867 114.783319,15.0803095 L114.786101,15.0626692 C114.870498,14.370058 114.787029,13.862205 114.524103,13.465764 L114.519002,13.4564797 L114.511582,13.4481238 C114.179563,12.9973694 113.726513,12.7787234 113.12693,12.7787234 C112.277404,12.7787234 111.445036,13.0553965 110.650693,13.6017795" id="Fill-14" fill="#FFFFFF"></path>
                <path d="M92.9317804,6.744 C92.9229698,6.74307157 92.9146229,6.73935783 92.9044212,6.7384294 C92.8895823,6.7356441 92.8765983,6.7356441 92.8612957,6.73193037 L92.9317804,6.744 Z M94.9424477,6.05881625 C94.9387379,6.06067311 94.9378105,6.0629942 94.9350282,6.0657795 L94.9489397,6.05278143 C94.9470848,6.05556673 94.9443025,6.05649516 94.9424477,6.05881625 Z M95.7585857,4.42663056 C95.7576582,4.43173694 95.7585857,4.43684333 95.7576582,4.44241393 L95.761368,4.41177563 C95.761368,4.41641779 95.7595131,4.42105996 95.7585857,4.42663056 Z M95.3319681,2.73688201 C95.3347504,2.73920309 95.3370689,2.74105996 95.3389238,2.74384526 L95.3250124,2.72713346 C95.3273309,2.72991876 95.3291858,2.73409671 95.3319681,2.73688201 Z M91.9732819,4.68380658 C91.9732819,4.60117602 91.9788465,4.51483172 91.9918305,4.42477369 C92.0595329,3.98191103 92.2644948,3.62028627 92.6345392,3.29440619 C92.7931297,3.15142747 92.9512564,3.04512186 93.15019,2.9457795 C93.3282565,2.85618569 93.5295087,2.81115667 93.746991,2.81115667 C94.1434671,2.81115667 94.4485914,2.95645648 94.678594,3.25401934 L94.6841585,3.26283946 L94.691578,3.27073114 C94.9827908,3.61053772 94.9846457,4.01626306 94.9350282,4.29711412 L94.9327096,4.3133617 L94.9313185,4.32821663 C94.8863382,4.77340039 94.6989974,5.14988008 94.3711511,5.44929981 L94.364659,5.45672727 L94.358167,5.46229787 C94.0548976,5.76682398 93.6528569,5.92697872 93.1942429,5.92697872 C93.1399883,5.92697872 93.0880523,5.92697872 93.0667214,5.92187234 L93.0328702,5.91305222 L92.9971642,5.91026692 C92.6883301,5.88659188 92.4448799,5.75568279 92.2297162,5.50314894 C92.0572143,5.248294 91.9732819,4.98740426 91.9732819,4.68380658 Z M92.7773634,2.19839072 C92.5125822,2.33022824 92.2904628,2.48017021 92.0799363,2.67096325 C91.5652129,3.12311025 91.2651895,3.65881625 91.1650271,4.30593424 C91.1483333,4.43405803 91.1395228,4.5589323 91.1395228,4.67962863 C91.1395228,5.16519923 91.2777098,5.5969207 91.5545475,5.99661122 L91.5652129,6.01146615 L91.5768058,6.02446422 C91.9310839,6.45247195 92.3785686,6.69154352 92.9044212,6.7384294 C93.0082933,6.75978337 93.1038186,6.76303288 93.1942429,6.76303288 C93.87544,6.76303288 94.4805877,6.51931915 94.9424477,6.05881625 C95.4098722,5.62709478 95.691347,5.06307157 95.7585857,4.42663056 C95.7813077,4.29200774 95.7942917,4.159706 95.7942917,4.02926112 C95.7942917,3.54276209 95.6343101,3.09432882 95.3319681,2.73688201 C94.9452299,2.239706 94.3975828,1.97556673 93.746991,1.97556673 C93.3978137,1.97556673 93.072286,2.05123404 92.7773634,2.19839072 Z" id="Fill-16" fill="#FFFFFF"></path>
                <path d="M99.1724539,12.2792263 L99.6338501,9.16526112 C99.9157887,7.33160542 100.334987,5.79365571 100.880779,4.59551257 C101.395503,3.41640232 102.179644,2.49075435 103.213264,1.83945841 C104.222308,1.16216634 105.541113,0.83582205 107.258248,0.83582205 L107.862005,0.851141199 C108.367454,0.881779497 108.886815,0.965338491 109.483152,1.10692456 C109.414986,1.40820116 109.338937,1.74940039 109.338937,1.74940039 C109.338937,1.74754352 109.248512,2.13655706 109.172463,2.46104449 C108.794999,2.36959381 108.382293,2.30878143 107.922752,2.27907157 L107.915332,2.27907157 L107.650087,2.27025145 L107.310648,2.26096712 C105.87777,2.26096712 104.71941,2.75117988 103.86803,3.71860735 C103.083424,4.6131528 102.548761,5.77508704 102.277488,7.17237911 L102.275169,7.19001934 L101.509576,12.2792263 L105.174314,12.2792263 C105.054676,12.7508704 104.93411,13.2220503 104.851569,13.5437524 L101.310179,13.5437524 L99.9793176,23.2495938 C99.7284479,25.2076596 99.338,27.006499 98.8269864,28.6173308 C98.4268005,28.6164023 97.274933,28.6154739 96.609966,28.6145455 C97.1066045,27.0700967 97.5044718,25.28147 97.7845555,23.2560928 C97.785483,23.2537718 99.0569889,13.5437524 99.0569889,13.5437524 L95.9347973,13.5437524 C96.0535083,13.0721083 96.1731467,12.6013926 96.2556879,12.2792263 L99.1724539,12.2792263 Z M102.757433,1.1384913 C101.59119,1.87427466 100.699003,2.92572534 100.118896,4.25524178 C99.5434257,5.51651838 99.1024329,7.12827853 98.8084378,9.03992263 C98.8084378,9.0417795 98.5631327,10.7004255 98.4518411,11.4436364 L95.6055598,11.4436364 L94.8617613,14.3793424 L98.1059099,14.3793424 C97.9946183,15.229323 96.9586795,23.1446809 96.9586795,23.1446809 C96.6530915,25.3524952 96.2107076,27.2873501 95.6468304,28.8926112 L95.4516065,29.4482785 L99.4381624,29.4533849 L99.5327603,29.1674275 C100.106839,27.4345068 100.535775,25.480619 100.807512,23.3591489 C100.806585,23.36147 101.804035,16.0904449 102.038675,14.3793424 L105.500769,14.3793424 L106.248278,11.4436364 L102.479668,11.4436364 C102.594669,10.6753578 103.094553,7.35249516 103.099191,7.32789168 C103.340786,6.08007737 103.810529,5.05090909 104.494972,4.27009671 C105.190544,3.48046422 106.111482,3.09609284 107.310648,3.09609284 C107.310648,3.09609284 107.827226,3.11187621 107.870352,3.11373308 C108.432838,3.14947776 108.930868,3.23814313 109.349138,3.37694391 L109.783639,3.52085106 L110.151829,1.93694391 C110.152756,1.93323017 110.475038,0.498336557 110.475038,0.498336557 L110.051203,0.398065764 L109.92229,0.36139265 L109.845777,0.332611219 C109.137684,0.156673114 108.50796,0.0540812379 107.920897,0.0178723404 C107.929244,0.0188007737 107.258248,0.000232108317 107.258248,0.000232108317 C105.370002,0.000232108317 103.897707,0.372998066 102.757433,1.1384913 Z" id="Fill-18" fill="#FFFFFF"></path>
                <path d="M36.6855427,28.4860039 L36.688325,28.484147 L36.6855427,28.4860039 Z M24.8807556,24.1845725 C24.8798281,24.181323 24.8770458,24.1678607 24.8770458,24.1660039 L24.8807556,24.1845725 Z M25.6917927,19.8650368 C25.8805246,18.9709555 26.1712738,18.0894081 26.5570845,17.2310716 C26.9809198,16.2520387 27.6009065,15.3147853 28.4035967,14.4411296 C29.2220533,13.6022901 30.10543,12.9737408 31.0940699,12.5276286 C31.757182,12.2286731 32.4958797,12.0244178 33.2888319,11.9204333 C33.732607,11.8624062 34.1119257,11.8364101 34.4773329,11.8364101 C35.5800466,11.8364101 36.6067112,12.0713037 37.4478898,12.5164874 C38.3090081,12.957029 39.018028,13.576294 39.5573283,14.3594275 C40.1077577,15.1017099 40.4963507,15.9744371 40.7551036,17.0407427 C40.8840163,17.7050368 40.9489364,18.3507621 40.9489364,18.9909168 C40.9489364,19.3924642 40.923432,19.7916905 40.8733508,20.191381 C40.7068772,21.7000851 40.2060653,23.1651528 39.3820441,24.5522321 C38.5524584,25.9355977 37.5276487,26.9893694 36.2487234,27.7738956 L36.2459411,27.7757524 C35.329177,28.3481315 34.2969479,28.7167195 33.1775404,28.8713037 C32.7546325,28.9274739 32.3484184,28.9567195 31.9714182,28.9567195 C30.4536798,28.9567195 29.1599155,28.5760619 28.1272227,27.826352 C27.0806185,27.0780348 26.3307917,26.0507234 25.8953635,24.772735 C25.8105037,24.5183443 25.7446562,24.26906 25.6973573,24.0123482 L25.6955024,24.0030638 L25.6936476,23.9937795 C25.5447951,23.3582669 25.470137,22.6809749 25.470137,21.9688665 C25.470137,21.4823675 25.5053794,20.9791567 25.5744729,20.4620193 C25.5754003,20.4620193 25.6917927,19.8650368 25.6917927,19.8650368 Z M33.1807864,11.0918066 C32.306684,11.2064681 31.4886912,11.43347 30.7509209,11.7658491 C29.6658284,12.2551335 28.6999105,12.9421741 27.7975215,13.8668936 C26.9229554,14.8190019 26.2519602,15.8337795 25.7928825,16.8935861 C25.3848135,17.7997369 25.0773706,18.7388472 24.8789007,19.6784217 L24.8789007,19.6774932 C24.8789007,19.6802785 24.749988,20.3352882 24.749988,20.3352882 C24.6744025,20.8974545 24.6359142,21.4438375 24.6359142,21.9725803 C24.6359142,22.745501 24.717528,23.4803559 24.8779733,24.1729671 C24.9331553,24.4654236 25.006886,24.74906 25.1051935,25.040588 C25.5981223,26.4889439 26.4508938,27.6541277 27.6393948,28.5050368 C28.8158392,29.3587311 30.2737584,29.7918453 31.9714182,29.7918453 C32.3855155,29.7918453 32.8292906,29.7607427 33.2897594,29.6994662 C34.5283415,29.5281702 35.6709347,29.1196596 36.6873975,28.4850754 C38.0618481,27.6411296 39.2100059,26.4620193 40.0989472,24.9811683 C40.9846424,23.4877834 41.523479,21.9108395 41.7024729,20.289795 C41.7567275,19.8576093 41.7840867,19.4254236 41.7840867,18.9918453 C41.7840867,18.2964487 41.7140657,17.5936248 41.5726327,16.8708395 L41.5679956,16.8522708 C41.2832747,15.6722321 40.8473828,14.6978414 40.2366705,13.8729284 C39.6250307,12.9867389 38.8135298,12.2774159 37.8332368,11.7751335 C36.8770569,11.2691373 35.7154514,11.0003559 34.4773329,11.0003559 C34.0748285,11.0003559 33.662586,11.0296015 33.1807864,11.0918066 Z" id="Fill-20" fill="#FFFFFF"></path>
                <path d="M28.7027855,25.4545764 C28.7027855,25.453648 28.7018581,25.4508627 28.7009306,25.4508627 L28.7027855,25.4545764 Z M29.4808989,25.1514429 L29.479044,25.1481934 C28.9633932,23.8386383 28.8460734,22.2649439 29.1289394,20.4707466 C29.456322,18.392913 30.1143333,16.7361238 31.085352,15.5440155 C31.7850976,14.7283868 32.5075653,14.2321393 33.3496713,13.9907466 C33.6775177,13.8960464 34.0503443,13.8454468 34.4259533,13.8454468 C35.2759425,13.8454468 35.8959292,14.1197988 36.3777288,14.7074971 C36.8813231,15.3476518 37.2119517,16.1563172 37.3538484,17.1028549 C37.5082654,18.1171683 37.5082654,19.1528356 37.3538484,20.1820039 C37.0311029,22.2658723 36.4287374,23.8767041 35.5129007,25.1040928 C34.8423692,26.0459884 34.0433886,26.6383288 33.1307979,26.8709014 C32.8558151,26.9317137 32.5627473,26.9642089 32.273853,26.9642089 C30.8618415,26.9642089 29.9487871,26.3714043 29.4808989,25.1514429 Z M33.1187413,13.1871876 C32.1263917,13.4722166 31.2522894,14.0682708 30.4449619,15.007381 C29.3728534,16.3238994 28.6554866,18.1153114 28.3053819,20.340766 C28.1973364,21.0185222 28.1440092,21.6698182 28.1440092,22.2914043 C28.1440092,23.4505532 28.3308863,24.5085029 28.7018581,25.4527195 C29.2917033,26.9878839 30.5265757,27.7993346 32.273853,27.7993346 C32.6221028,27.7993346 32.9759172,27.7608046 33.324167,27.6842089 C34.445893,27.397323 35.4048552,26.6963559 36.1876058,25.5961625 C37.1813465,24.2638607 37.8347206,22.5318685 38.1797244,20.3082708 C38.3471255,19.1941509 38.3471255,18.0744603 38.1797244,16.9779807 C38.0155694,15.8866074 37.6279039,14.9461044 37.0278569,14.1838607 C36.3786562,13.3919072 35.5295945,13.0103211 34.4259533,13.0103211 C33.9733677,13.0103211 33.5217095,13.0720619 33.1187413,13.1871876 Z" id="Fill-22" fill="#FFFFFF"></path>
                <path d="M57.3733892,24.9826538 L57.3766352,24.9775474 C57.3757078,24.9784758 57.3743166,24.9817253 57.3733892,24.9826538 M45.3835799,27.824588 C44.3708268,27.1008743 43.6325929,26.0744913 43.1892816,24.7728279 C42.7315951,23.4637369 42.6272593,22.0566963 42.8693184,20.4686112 C43.0427477,19.3465996 43.3613197,18.2570832 43.8148328,17.2283791 C44.2850396,16.1834275 44.898998,15.2726344 45.6905591,14.4472573 C46.4501239,13.636735 47.3562226,12.9924023 48.3870605,12.5277215 C49.0557372,12.2269091 49.7823783,12.0226538 50.5475077,11.9195977 C50.9861819,11.8634275 51.3872951,11.8365029 51.771251,11.8365029 C52.8660816,11.8365029 53.8528666,12.0648975 54.7056381,12.5165803 C55.5644379,12.955265 56.279486,13.5763868 56.8354801,14.3636983 C57.4155873,15.1663288 57.811136,16.0641238 58.0128519,17.0361934 C58.155676,17.6605648 58.2261607,18.3048975 58.2261607,19.0142205 C58.2261607,19.3869865 58.2057572,19.7797137 58.1672689,20.1951876 C57.952569,21.807412 57.4591764,23.2320928 56.6601959,24.5486112 L56.6564862,24.5541818 C55.8686348,25.898089 54.8150748,26.9815706 53.5268751,27.7739884 C52.5915624,28.3482244 51.5509865,28.7177408 50.4352887,28.8713965 C50.0063525,28.9284952 49.6228604,28.9568124 49.2658,28.9568124 C47.7406421,28.9568124 46.4343576,28.5752263 45.3835799,27.824588 M50.4385347,11.0918994 C49.5922552,11.2051683 48.7867827,11.431706 48.044839,11.765942 C46.9124475,12.2756518 45.9163882,12.9849749 45.0844839,13.8720928 C44.2298575,14.7643172 43.5648905,15.7512418 43.0524857,16.8881083 C42.5683675,17.9855164 42.2289283,19.1465222 42.0434423,20.3418801 C41.7846895,22.0455551 41.9043279,23.6276054 42.3995753,25.0462515 C42.8999235,26.5127118 43.7411022,27.6783598 44.8980705,28.5051296 C46.0939909,29.358824 47.5630394,29.7914739 49.2658,29.7914739 C49.6599576,29.7914739 50.0791557,29.761764 50.5475077,29.699559 C51.7800616,29.5291915 52.9291468,29.1206809 53.9632307,28.4860967 C55.3687502,27.6221896 56.5159806,26.4426151 57.3743166,24.9812611 C58.2233784,23.5811838 58.7691707,22.0056325 58.9954635,20.2996364 L58.9977821,20.2829246 C59.0390527,19.8358839 59.0603836,19.4134468 59.0603836,19.0105068 C59.0603836,18.2403714 58.9838706,17.5375474 58.8275988,16.8579342 C58.6040882,15.7777021 58.1612406,14.7722089 57.5148222,13.8771992 C56.8818515,12.9821896 56.0652498,12.273795 55.0909851,11.7752263 C54.1213575,11.2618027 53.0028774,11.0004487 51.771251,11.0004487 C51.3511254,11.0004487 50.9152335,11.0301586 50.4385347,11.0918994" id="Fill-24" fill="#FFFFFF"></path>
                <path d="M46.7579841,25.1513037 C46.2437244,23.887706 46.1245497,22.3567195 46.3897946,20.4636441 C46.7120764,18.4053075 47.3816805,16.7480542 48.3772761,15.5471257 C49.0204485,14.7579574 49.7702753,14.2357137 50.6100628,13.9896789 C50.9606312,13.8940503 51.3144455,13.8457718 51.6835625,13.8457718 C52.5474631,13.8457718 53.1688409,14.1178027 53.635338,14.7027157 C54.1431057,15.3126963 54.4616777,16.0949014 54.6133125,17.1027157 C54.6907528,17.6096402 54.7292412,18.1221354 54.7292412,18.6364874 C54.7292412,19.1508395 54.6907528,19.6675126 54.6133125,20.1818646 C54.3374022,22.1807814 53.7178792,23.8343211 52.7714374,25.1039536 C52.1046155,26.064882 51.3302118,26.6381896 50.3958266,26.8689052 C50.1222348,26.9334313 49.8398325,26.9640696 49.5323896,26.9640696 C48.1315073,26.9640696 47.2244812,26.371265 46.7579841,25.1513037 M50.3823788,13.1865841 C49.3719443,13.4822901 48.4825394,14.0973772 47.73364,15.0155977 C46.6420554,16.3325803 45.9112409,18.1249207 45.5639186,20.3410909 C45.2773428,22.3915358 45.4141387,24.0631799 45.982653,25.4586151 C46.5743531,27.0086344 47.7702735,27.7991954 49.5323896,27.7991954 C49.9047526,27.7991954 50.2502201,27.7615938 50.5868771,27.6831412 L50.5924416,27.6812843 C51.7188048,27.404147 52.6791581,26.7003946 53.448461,25.5923095 C54.4723432,24.2196209 55.1451933,22.4361006 55.4401159,20.3011683 C55.6056621,19.1940116 55.6056621,18.0743211 55.4391885,16.9783056 C55.2634406,15.8149787 54.8845856,14.8976867 54.2822201,14.1744371 C53.6571326,13.3936248 52.8057523,13.010646 51.6835625,13.010646 C51.23886,13.010646 50.814561,13.0677447 50.3823788,13.1865841" id="Fill-26" fill="#FFFFFF"></path>
                <path d="M76.873384,1.2323559 C76.7472535,2.14686267 73.2054001,27.8941741 73.1098748,28.5853926 L70.7546675,28.5853926 C70.8678139,27.7674429 71.5949186,22.5264371 71.5949186,22.5264371 L70.8019664,22.2957215 C70.0748616,23.888913 69.0528342,25.3832263 67.6765288,26.8668627 C67.6756013,26.8677911 67.4993897,27.0441934 67.4993897,27.0441934 L67.3129764,27.2303443 C66.120302,28.3727814 64.800106,28.956766 63.3955139,28.956766 C61.873602,28.956766 60.8891355,28.3393578 60.3864687,27.0683327 C59.836503,25.7499574 59.7576715,24.1168433 60.1425548,22.0673269 C60.4416508,20.608294 60.912785,19.26253 61.5415822,18.073207 C62.219997,16.8356054 63.0069209,15.7595513 63.9445522,14.7870174 C64.8868207,13.8441934 65.8550571,13.1371915 66.9016614,12.6298027 C67.1924105,12.4766112 67.4571917,12.3591644 67.7502594,12.2542515 C68.4717996,11.9761857 69.1924124,11.8364565 69.901896,11.8364565 C71.0324326,11.8364565 71.9450233,11.8884487 72.6118452,11.9910406 L73.0338256,12.0560309 C73.0338256,12.0560309 74.3660782,1.9272882 74.4546477,1.25556673 C74.9327376,1.24999613 76.2626716,1.2379265 76.873384,1.2323559 Z M73.722442,0.426475822 C73.722442,0.426475822 72.4161575,10.3523559 72.3159951,11.1127427 C71.6635484,11.0398607 70.8599307,11.0004023 69.901896,11.0004023 C69.0885403,11.0004023 68.2677651,11.1596286 67.4585828,11.4720464 C67.1376922,11.5862437 66.8376687,11.7190097 66.5255887,11.8838066 C65.4066449,12.4255474 64.362823,13.1863985 63.3486787,14.2021044 C62.3540105,15.2331296 61.5244248,16.367675 60.8075217,17.6763017 C60.1383813,18.9417563 59.6398879,20.3627234 59.3240982,21.9057795 C58.9058274,24.1284487 59.0013527,25.9175397 59.6139199,27.3830716 C60.244572,28.9790484 61.5183965,29.7914275 63.3955139,29.7914275 C65.0226891,29.7914275 66.5367178,29.1308472 67.8986481,27.8263985 C67.9051401,27.8185068 68.2779668,27.4452766 68.2779668,27.4452766 C69.1316657,26.5256634 69.8508874,25.6028008 70.4574263,24.6581199 C70.1884717,26.5925106 69.7957053,29.4205184 69.7957053,29.4205184 L73.837907,29.4205184 L77.830955,0.387945841 L73.722442,0.426475822 Z" id="Fill-28" fill="#FFFFFF"></path>
                <path d="M67.6201874,25.3629865 C67.6201874,25.3629865 67.6238971,25.3592727 67.6262157,25.3560232 C67.6248246,25.3588085 67.6201874,25.3629865 67.6201874,25.3629865 M67.6262157,25.3560232 C67.6299254,25.3527737 67.6359537,25.3462747 67.6359537,25.3462747 C67.6359537,25.3462747 67.6308529,25.3518453 67.6262157,25.3560232 M67.8464802,14.3243791 C68.4043291,13.936294 68.9765531,13.7394662 69.5459949,13.7394662 C70.4956828,13.7394662 71.2478281,13.936294 71.8520485,14.3192727 C71.7899107,14.7802398 71.3767408,17.8380348 71.3623657,17.9424836 C71.2065575,18.3050368 70.7688108,19.2408975 69.7741426,20.9232186 C68.9028225,22.3752882 68.1131162,23.5047273 67.2914136,24.4763327 C67.2886314,24.4795822 67.0270962,24.7743598 67.0270962,24.7743598 L67.0122573,24.7906074 C65.8571438,26.0876286 65.0938693,26.3596596 64.65705,26.3596596 C64.2624287,26.3596596 63.9707521,26.2389632 63.7667176,25.9882863 C63.5455257,25.7190406 63.3410274,25.1995822 63.3410274,24.2075513 C63.3410274,23.5692534 63.426351,22.7336634 63.6438332,21.6427544 C63.89934,20.4232573 64.3472885,19.164766 64.9770132,17.904882 C65.5631487,16.715559 66.2832977,15.7198143 67.1796584,14.8572998 C67.4124432,14.6586151 67.6336351,14.4710716 67.8464802,14.3243791 M67.3711726,13.6373385 C67.1203029,13.8104913 66.8805623,14.0152108 66.6264466,14.232 L66.6167086,14.2398917 L66.6078981,14.249176 C65.6507908,15.1673965 64.8508828,16.2722321 64.229505,17.5335087 C63.5691751,18.8546692 63.0966498,20.182793 62.826304,21.4751721 C62.3199275,24.0088665 62.4163802,25.6572998 63.1207629,26.5188859 C63.4884887,26.9673191 64.005067,27.1947853 64.65705,27.1947853 C65.5357895,27.1947853 66.5341674,26.5773772 67.6211148,25.362058 L67.9308763,25.0134313 C68.7799381,24.009795 69.5946849,22.8450754 70.4905819,21.3502979 C71.239945,20.0843791 71.8460202,18.9437988 72.1529994,18.2196209 L72.174794,18.1680928 L72.7484092,13.9167969 L72.5513304,13.7701044 C71.7792453,13.19494 70.7678833,12.903412 69.5459949,12.903412 C68.8026601,12.903412 68.0713819,13.149911 67.3711726,13.6373385" id="Fill-30" fill="#FFFFFF"></path>
                <path d="M82.7952999,1.22646035 C82.6700969,2.14143133 79.2780233,26.7309865 79.2780233,26.7309865 L86.198039,26.7309865 C86.1238446,27.2708704 86.0009602,28.1547389 85.941141,28.5855319 L76.5022267,28.5855319 C76.6288208,27.6779884 80.1994246,1.91628627 80.2954135,1.22646035 L82.7952999,1.22646035 Z M79.5687725,0.390870406 L75.5441919,29.4201934 L86.667782,29.4201934 L87.1570011,25.896325 L80.2355943,25.896325 C80.361261,24.981354 83.7533347,0.390870406 83.7533347,0.390870406 L79.5687725,0.390870406 Z" id="Fill-32" fill="#FFFFFF"></path>
                <path d="" id="Fill-34" fill="#D9291C"></path>
                <path d="M117.612814,52.2306847 L117.808502,52.2306847 C118.051952,52.2306847 118.240684,52.1517679 118.240684,51.9479768 C118.240684,51.7822515 118.1229,51.656913 117.840034,51.656913 C117.738481,51.656913 117.667069,51.656913 117.612814,51.6648046 L117.612814,52.2306847 Z M117.612814,53.3624449 L117.196398,53.3624449 L117.196398,51.3974159 C117.353597,51.3732766 117.526099,51.3421741 117.823804,51.3421741 C118.16278,51.3421741 118.366351,51.3974159 118.499437,51.4995435 C118.608873,51.5858878 118.672402,51.719118 118.672402,51.9243017 C118.672402,52.1596596 118.507784,52.3249207 118.295866,52.379234 L118.295866,52.3954816 C118.467904,52.4270484 118.578268,52.5844178 118.608873,52.8754816 C118.648753,53.1818646 118.687705,53.2997756 118.719701,53.3624449 L118.287519,53.3624449 C118.240684,53.2914197 118.208687,53.1187311 118.169735,52.8518066 C118.13913,52.6387311 118.013,52.5523868 117.801082,52.5523868 L117.612814,52.5523868 L117.612814,53.3624449 Z M117.910983,50.9178801 C117.172749,50.9178801 116.576875,51.5543211 116.576875,52.3402398 C116.576875,53.1345145 117.172749,53.7551721 117.918866,53.7551721 C118.665447,53.763528 119.269203,53.1345145 119.269203,52.3402398 C119.269203,51.5543211 118.665447,50.9178801 117.918866,50.9178801 L117.910983,50.9178801 Z M117.926285,50.564147 C118.899622,50.564147 119.676808,51.3574932 119.676808,52.3332766 C119.676808,53.3225222 118.899622,54.108441 117.918866,54.108441 C116.945528,54.108441 116.15304,53.3225222 116.15304,52.3332766 C116.15304,51.3574932 116.945528,50.564147 117.918866,50.564147 L117.926285,50.564147 Z" id="Fill-36" fill="#FFFFFF"></path>
            </g>
        </g>
    </g>
</svg>