<?xml version="1.0" encoding="UTF-8"?>
<svg width="70px" height="69px" viewBox="0 0 70 69" version="1.1" xmlns="http://www.w3.org/2000/svg" xmlns:xlink="http://www.w3.org/1999/xlink">
    <!-- Generator: Sketch 52.6 (67491) - http://www.bohemiancoding.com/sketch -->
    <title>logo-mobile</title>
    <desc>Created with Sketch.</desc>
    <g id="Side-By-Side" stroke="none" stroke-width="1" fill="none" fill-rule="evenodd">
        <g id="logo-mobile">
            <g id="Symbol_1_" transform="translate(14.807749, 15.121802)">
                <g id="Group">
                    <g id="XMLID_17_" fill="#ECCDB5">
                        <path d="M24.8007273,0.297609928 C38.4077615,0.297609928 49.4372816,11.3223686 49.4372816,24.9194423 C49.4372816,38.5219855 38.4074396,49.5467443 24.8007273,49.5467443 C11.1940149,49.5467443 0.162885246,38.5219855 0.162885246,24.9194423 C0.162885246,11.3223686 11.193693,0.297609928 24.8007273,0.297609928 Z" id="Path"></path>
                    </g>
                    <g id="Path" transform="translate(26.718331, 27.991421)" fill="#003C2D">
                        <path d="M12.3480537,3.42492723 C13.5764531,3.64242377 14.7906885,3.96416424 15.9656513,4.40784434 C16.4018361,4.56131454 16.8370552,4.73087176 17.2658361,4.92423778 C18.4642981,5.42197027 19.7467779,5.68097134 21.0456751,5.68097134 C23.4812279,5.68097134 25.8308316,4.77977632 27.6460686,3.14211737 L27.6460686,0.255140187 C25.8308316,1.89151218 23.4812279,2.79528114 21.0456751,2.79528114 C19.7467779,2.79528114 18.4639762,2.53628006 17.2658361,2.03758235 C16.8370552,1.8438946 16.4018361,1.67562433 15.9656513,1.51990195 C14.7906885,1.07750881 13.5764531,0.755768347 12.3480537,0.536984832 C11.1495916,0.31948828 9.92247987,0.215244369 8.69150522,0.215244369 C5.76600894,0.215244369 2.8801073,0.828481692 0.203767511,2.00476482 L0.203767511,4.891742 C2.8801073,3.7141719 5.76600894,3.10222155 8.69150522,3.10222155 C9.92247987,3.10189979 11.1499136,3.20485675 12.3480537,3.42492723 Z"></path>
                        <path d="M12.3480537,8.89805423 C13.5764531,9.11555079 14.7906885,9.43729126 15.9656513,9.88225832 C16.4018361,10.0357285 16.8370552,10.2052857 17.2658361,10.3976865 C18.4642981,10.8992799 19.7467779,11.1553853 21.0456751,11.1553853 C23.4812279,11.1553853 25.8308316,10.2516164 27.6460686,8.62425311 L27.6460686,5.73727593 C25.8308316,7.36592616 23.4812279,8.27098207 21.0456751,8.27098207 C19.7467779,8.27098207 18.4639762,8.011981 17.2658361,7.51328329 C16.8370552,7.31959553 16.4018361,7.15003831 15.9656513,6.99560288 C14.7906885,6.55192279 13.5764531,6.22889535 12.3480537,6.01139881 C11.1495916,5.79390225 9.92247987,5.68965834 8.69150522,5.68965834 C5.76600894,5.68965834 2.8801073,6.30289567 0.203767511,7.4791788 L0.203767511,10.366156 C2.8801073,9.18858588 5.76600894,8.57663551 8.69150522,8.57663551 C9.92247987,8.57631377 11.1499136,8.68055769 12.3480537,8.89805423 Z"></path>
                        <path d="M8.69150522,14.0510495 C9.92247987,14.0510495 11.1499136,14.1552934 12.3480537,14.3740769 C13.5764531,14.5928604 14.7906885,14.9133139 15.9656513,15.356994 C16.4018361,15.5114295 16.8370552,15.6800215 17.2658361,15.8733875 C18.4642981,16.372407 19.7467779,16.6310863 21.0456751,16.6310863 C23.4812279,16.6310863 25.8308316,15.7286043 27.6460686,14.0899801 L27.6460686,11.2042899 C25.8308316,12.8406619 23.4812279,13.745396 21.0456751,13.745396 C19.7467779,13.745396 18.4639762,13.485108 17.2658361,12.9876973 C16.8370552,12.7930443 16.4018361,12.6244523 15.9656513,12.4700169 C14.7906885,12.0276237 13.5764531,11.7058833 12.3480537,11.4870997 C11.1495916,11.2683162 9.92247987,11.1653593 8.69150522,11.1653593 C5.76600894,11.1653593 2.8801073,11.7773096 0.203767511,12.9548797 L0.203767511,15.8405699 C2.8801073,14.6629998 5.76600894,14.0510495 8.69150522,14.0510495 Z"></path>
                    </g>
                </g>
            </g>
            <g id="Name" fill="#003C2D">
                <g id="Group">
                    <path d="M11.2999225,62.9205301 L13.0894069,61.187636 C14.050301,61.3050713 15.053687,61.785108 15.8665037,62.6242071 C17.2507065,64.0520914 17.2629389,66.2981615 15.8825991,67.6343497 C14.5022593,68.9708595 12.2569538,68.8878504 10.8727511,67.4596445 C10.0798927,66.6414586 9.70519225,65.7142025 9.67847392,64.8261989 L10.9767273,64.7785813 C11.0011923,65.3866707 11.2847929,66.0259691 11.8020984,66.5597365 C12.6487153,67.4329401 14.0416095,67.4551402 14.9014247,66.6221541 C15.809848,65.7425157 15.8320596,64.3500229 14.9854426,63.4768193 C14.5621341,63.0402176 14.060924,62.7728513 13.5503785,62.6624942 L13.0926259,63.1058525 L14.2952727,64.3464839 L13.4631416,65.1524437 L11.2999225,62.9205301 Z" id="Path"></path>
                    <path d="M6.52796424,55.3155507 C8.18385693,54.3393902 10.3428912,54.9378275 11.3636602,56.666539 C12.3792787,58.3872069 11.8642265,60.5731117 10.2083338,61.5492723 C8.55244113,62.525111 6.38857825,61.9183086 5.37295976,60.1979623 C4.35186885,58.4692508 4.87207154,56.2913897 6.52796424,55.3155507 Z M7.24420864,56.528834 C6.21249478,57.1369236 5.86934128,58.4930596 6.48740387,59.5403249 C7.10578838,60.58759 8.45490314,60.9353915 9.48661699,60.3269802 C10.5267005,59.7140647 10.8666349,58.3707983 10.2482504,57.323533 C9.63050969,56.2765895 8.2842921,55.9159184 7.24420864,56.528834 Z" id="Shape" fill-rule="nonzero"></path>
                    <path d="M3.78724292,46.6951585 C5.6327392,46.1597824 7.57545156,47.2746131 8.13524888,49.202482 C8.69247093,51.1210203 7.65174366,53.1113069 5.80592548,53.646683 C3.96075112,54.1820591 2.01546349,53.0582197 1.45824143,51.1393595 C0.898444113,49.2114907 1.94174665,47.2305346 3.78724292,46.6951585 Z M4.1802921,48.048399 C3.03043816,48.3820437 2.36183606,49.6110923 2.70080476,50.7790103 C3.03977347,51.9469282 4.2604471,52.6177569 5.41030104,52.2841122 C6.56949031,51.9478934 7.23165424,50.7307492 6.89236364,49.5628313 C6.55339493,48.3949135 5.33948137,47.7121802 4.1802921,48.048399 Z" id="Shape" fill-rule="nonzero"></path>
                    <path d="M6.79482563,41.5736938 L6.92680775,44.4857667 L0.125865872,44.7936725 L0.00386289121,42.1036005 C-0.0817645305,40.2140187 1.37293592,38.6117513 3.25416394,38.5268116 C5.05813413,38.4447679 6.71402682,39.7899647 6.79482563,41.5736938 Z M5.53648883,41.7467903 C5.48755887,40.6670292 4.45423547,39.8346867 3.31597019,39.8861652 C2.139076,39.9392523 1.21648882,40.9086564 1.26799404,42.0463306 L1.32915648,43.3960318 L5.60280179,43.2023441 L5.53648883,41.7467903 Z" id="Shape" fill-rule="nonzero"></path>
                    <polygon id="Path" points="9.22297467 27.3041826 9.04270641 27.8443848 4.19027123 28.2616823 7.82364232 31.4977478 7.64337407 32.03795 0.335749628 32.4304734 0.809275708 31.0112763 5.21586885 30.8626321 1.8844471 27.7880802 2.06471535 27.247878 6.57206558 26.7967978 3.13731147 24.0340126 3.61083755 22.6148153"></polygon>
                    <polygon id="Path" points="12.6203875 19.1133139 13.6221639 19.769021 10.7600835 24.1379348 5.06360656 20.4105715 7.81430701 16.2108932 8.81608346 16.8666003 6.80061998 19.9434044 8.24695082 20.889643 9.93439046 18.3134671 10.9039761 18.9479393 9.21685842 21.5244369 10.493544 22.3596751"></polygon>
                    <polygon id="Path" points="17.5372041 13.9883101 18.3825335 14.836418 14.6805961 18.5225984 9.87419374 13.7013176 13.4322384 10.1579899 14.2775678 11.0060978 11.6707601 13.6022215 12.8911118 14.826444 15.0736453 12.6527654 15.8919344 13.4735254 13.7094009 15.6472039 14.7865037 16.7276084"></polygon>
                    <polygon id="Path" points="24.7682145 10.5569481 23.2381879 11.5334304 20.1530253 10.6853225 19.9405663 11.8056228 20.7720537 13.107063 19.6405485 13.8290486 15.976918 8.09434656 17.1084232 7.37236096 18.8702236 10.1299985 19.6234873 5.7671978 21.0315112 4.86857667 20.3332935 9.29926459"></polygon>
                    <polygon id="Path" points="30.3961251 7.15840355 30.8117078 8.28095603 25.9116303 10.0923548 23.5497944 3.71031101 28.2596245 1.96905163 28.6752071 3.09160411 25.2243576 4.36730505 25.8240715 5.98759002 28.7135141 4.91973341 29.1155768 6.00592922 26.2261342 7.07410755 26.7556721 8.5042439"></polygon>
                    <polygon id="Path" points="37.5643636 0.341366631 38.4299732 7.09051632 37.7594396 7.17642102 33.1822355 3.44230121 33.7272251 7.69281447 32.3575082 7.86816302 31.4922206 1.11933507 32.1627541 1.03343037 36.7306229 4.7685154 36.1853115 0.518002146"></polygon>
                    <path d="M43.1014963,7.39456106 L40.2014307,7.08762066 L40.9183189,0.321096982 L43.5975559,0.60455033 C45.4797496,0.803707676 46.8459255,2.4815842 46.6476303,4.35314846 C46.4570611,6.14846024 44.8777825,7.58277922 43.1014963,7.39456106 Z M43.1192013,6.12529493 C44.1946946,6.23919105 45.1732935,5.34282212 45.2933651,4.2102957 C45.4176214,3.03948214 44.5974009,1.98224299 43.4639643,1.8622338 L42.1193563,1.72002452 L41.6693294,5.97182473 L43.1192013,6.12529493 Z" id="Shape" fill-rule="nonzero"></path>
                    <path d="M56.7175439,9.47010879 L57.2902175,10.7519228 C56.3463844,11.1766202 55.2235708,11.1939942 54.1966855,10.7004443 C52.4123517,9.84268424 51.6326915,7.7439712 52.4654665,6.01268577 C53.2982414,4.28172207 55.4299136,3.57067566 57.2142474,4.42811398 C58.2411327,4.92166386 58.9245424,5.81771105 59.1817467,6.81993259 L57.8223309,7.17352536 C57.7125604,6.51009652 57.2889299,5.92098974 56.6447929,5.61147541 C55.5741281,5.09701241 54.3183667,5.45736173 53.7537407,6.63203616 C53.1971624,7.78901487 53.6912907,9.01162861 54.7616333,9.52641337 C55.4057705,9.83560594 56.1310283,9.7986058 56.7175439,9.47010879 Z" id="Path"></path>
                    <path d="M65.1370372,14.0700322 C63.9318152,15.5667688 61.7000299,15.7665696 60.1349151,14.5075992 C58.5772041,13.2544201 58.2881312,11.0266891 59.4933532,9.5299525 C60.6985753,8.03321587 62.9377645,7.83952812 64.4954753,9.09238548 C66.0605902,10.3516777 66.3422593,12.5736173 65.1370372,14.0700322 Z M64.0383667,13.1862111 C64.7893771,12.2538073 64.6319643,10.8629232 63.6836245,10.1003983 C62.7352846,9.33787345 61.3501162,9.48748277 60.5994277,10.4198866 C59.8419792,11.3600123 59.9981043,12.7370614 60.9461223,13.4999081 C61.8941401,14.2627547 63.28124,14.1266585 64.0383667,13.1862111 Z" id="Shape" fill-rule="nonzero"></path>
                    <path d="M63.8577764,18.0242225 C63.5719225,17.709882 63.6018599,17.2263062 63.9308495,16.927731 C64.2524351,16.6355907 64.7372279,16.6523212 65.023082,16.9663399 C65.3086141,17.2806802 65.2851147,17.7713345 64.963529,18.0634748 C64.6345394,18.36205 64.1436303,18.3385629 63.8577764,18.0242225 Z" id="Path"></path>
                </g>
            </g>
        </g>
    </g>
</svg>