<?xml version="1.0" encoding="UTF-8"?>
<svg width="72px" height="72px" viewBox="0 0 42 42" version="1.1" xmlns="http://www.w3.org/2000/svg" xmlns:xlink="http://www.w3.org/1999/xlink">
    <!-- Generator: Sketch 52.6 (67491) - http://www.bohemiancoding.com/sketch -->
    <title>gosailaw</title>
    <desc>Created with Sketch.</desc>
    <g id="Page-1" stroke="none" stroke-width="1" fill="none" fill-rule="evenodd">
        <g id="gosailaw" fill="#143544" fill-rule="nonzero">
            <path d="M0,41.59 L0,0 L41.591,0 L41.591,41.59 L0,41.59 Z M37.916,5.715 L37.916,3.674 L3.674,3.674 L3.674,27.276 L10.64,27.276 L10.64,19.553 L10.64,15.643 L14.314,14.305 L27.276,9.588 L30.951,8.25 L37.916,5.715 Z M27.276,27.276 L27.276,13.498 L14.314,18.216 L14.314,27.276 L27.276,27.276 Z M3.674,37.916 L37.916,37.916 L37.916,9.626 L30.951,12.161 L30.951,27.276 L30.951,30.951 L27.276,30.951 L14.314,30.951 L10.64,30.951 L3.674,30.951 L3.674,37.916 Z" id="Combined-Shape-Copy"></path>
        </g>
    </g>
</svg>