<?xml version="1.0" encoding="UTF-8"?>
<svg width="55px" height="98px" viewBox="0 0 55 98" version="1.1" xmlns="http://www.w3.org/2000/svg" xmlns:xlink="http://www.w3.org/1999/xlink">
    <!-- Generator: Sketch 52.6 (67491) - http://www.bohemiancoding.com/sketch -->
    <title>Shape</title>
    <desc>Created with Sketch.</desc>
    <g id="Page-1" stroke="none" stroke-width="1" fill="none" fill-rule="evenodd">
        <g id="Artboard" transform="translate(-2264.000000, -3667.000000)" fill="#C49A6C" fill-rule="nonzero">
            <g id="logo-white" transform="translate(2200.000000, 3667.000000)">
                <g id="Group">
                    <path d="M107.327213,40.0832556 L107.327213,38.7915664 L106.204298,39.3688577 L106.010733,39.2449806 L105.800337,39.5757204 L93.5829235,45.8609788 L93.5829235,8.97086545 L81.9462041,1.56229444 L81.9462041,0 L80.823289,0.84789652 L80.5936564,0.701168328 L80.2017181,1.31574297 L64,13.5555201 L64,66.1840361 L70.1026953,73.8199156 L70.1026953,16.594718 L75.8447111,12.2566148 L75.8447111,61.849541 L101.22572,48.7931373 L101.22572,90.3641206 L107.327213,98 L107.327213,47.3186392 L112.898507,50.8653723 L112.898507,75.1176182 L119,67.4805361 L119,47.5146777 L107.327213,40.0832556 Z M87.4826327,12.3215601 L87.4826327,49 L81.9474064,51.8491728 L81.9474064,8.79647538 L87.4826327,12.3215601 Z" id="Shape"></path>
                </g>
            </g>
        </g>
    </g>
</svg>