<?xml version="1.0" encoding="UTF-8"?>
<svg width="55px" height="98px" viewBox="0 0 55 98" version="1.1" xmlns="http://www.w3.org/2000/svg" xmlns:xlink="http://www.w3.org/1999/xlink">
    <!-- Generator: Sketch 52.6 (67491) - http://www.bohemiancoding.com/sketch -->
    <title>Shape</title>
    <desc>Created with Sketch.</desc>
    <g id="Page-1" stroke="none" stroke-width="1" fill="none" fill-rule="evenodd">
        <g id="Artboard" transform="translate(-1766.000000, -3635.000000)" fill="#FFFFFF" fill-rule="nonzero">
            <g id="logo-white" transform="translate(1598.000000, 3493.000000)">
                <g id="Group">
                    <path d="M211.327213,182.083256 L211.327213,180.791566 L210.204298,181.368858 L210.010733,181.244981 L209.800337,181.57572 L197.582923,187.860979 L197.582923,150.970865 L185.946204,143.562294 L185.946204,142 L184.823289,142.847897 L184.593656,142.701168 L184.201718,143.315743 L168,155.55552 L168,208.184036 L174.102695,215.819916 L174.102695,158.594718 L179.844711,154.256615 L179.844711,203.849541 L205.22572,190.793137 L205.22572,232.364121 L211.327213,240 L211.327213,189.318639 L216.898507,192.865372 L216.898507,217.117618 L223,209.480536 L223,189.514678 L211.327213,182.083256 Z M191.482633,154.32156 L191.482633,191 L185.947406,193.849173 L185.947406,150.796475 L191.482633,154.32156 Z" id="Shape"></path>
                </g>
            </g>
        </g>
    </g>
</svg>