<?xml version="1.0" encoding="UTF-8"?>
<svg width="67px" height="77px" viewBox="0 0 67 77" version="1.1" xmlns="http://www.w3.org/2000/svg" xmlns:xlink="http://www.w3.org/1999/xlink">
    <!-- Generator: Sketch 52.6 (67491) - http://www.bohemiancoding.com/sketch -->
    <title>Group 4</title>
    <desc>Created with Sketch.</desc>
    <g id="Page-1" stroke="none" stroke-width="1" fill="none" fill-rule="evenodd">
        <g id="Artboard" transform="translate(-2732.000000, -3912.000000)" stroke="#FFFFFF" stroke-width="6">
            <g id="Group-4" transform="translate(2734.000000, 3915.000000)">
                <polyline id="Path-3" points="0 32 6.29596481 26.6034587 31.5 5 62.5 32"></polyline>
                <polyline id="Path-4" points="6 26 6 67 42.5 67"></polyline>
                <polyline id="Path-5" points="39 11.5 39 0 49 0 49 20.5"></polyline>
                <path d="M49.7857143,70.5 C42.7857143,67.8333333 38.452381,64.1666667 36.7857143,59.5 C35.1190476,54.8333333 34.6190476,49 35.2857143,42 C38.5607185,41.8009153 40.8736168,41.467582 42.2244092,41 C43.5752016,40.532418 46.2623033,38.532418 50.2857143,35" id="Path-6"></path>
                <path d="M60.5651596,70.5 C53.9401596,67.8333333 49.7943262,64.1666667 48.1276596,59.5 C46.4609929,54.8333333 45.7734929,49 46.0651596,42 C49.7151638,41.8009153 52.2155621,41.467582 53.5663545,41 C54.9171469,40.532418 57.6042486,38.532418 61.6276596,35" id="Path-6" transform="translate(53.813830, 52.750000) scale(-1, 1) translate(-53.813830, -52.750000) "></path>
                <path d="M55,41.5 L55,26" id="Path-7"></path>
            </g>
        </g>
    </g>
</svg>