<?xml version="1.0" encoding="UTF-8"?>
<svg width="120px" height="45px" viewBox="0 0 120 45" version="1.1" xmlns="http://www.w3.org/2000/svg" xmlns:xlink="http://www.w3.org/1999/xlink">
    <!-- Generator: Sketch 49.3 (51167) - http://www.bohemiancoding.com/sketch -->
    <title>Group 2</title>
    <desc>Created with Sketch.</desc>
    <defs></defs>
    <g id="Page-1" stroke="none" stroke-width="1" fill="none" fill-rule="evenodd">
        <g id="Group-2" transform="translate(0.000000, -1.000000)" fill-rule="nonzero">
            <g id="pplogo10">
                <g id="Group" transform="translate(60.000000, 23.514724) scale(-1, 1) rotate(-180.000000) translate(-60.000000, -23.514724) translate(0.000000, 0.854010)">
                    <path d="M38.2737999,42.1622411 L38.2737999,39.827615 L39.1708421,39.827615 L40.0678843,39.827615 L40.0678843,34.9324313 L40.0678843,30.0372475 L39.1708421,30.0372475 L38.2737999,30.0372475 L38.2737999,27.7026214 L38.2737999,25.3679954 L43.8803136,25.3679954 L49.4868272,25.3679954 L49.4868272,27.7026214 L49.4868272,30.0372475 L48.5150315,30.0372475 L47.5432358,30.0372475 L47.5432358,31.3024642 L47.5432358,32.5526189 L50.6529821,32.6429915 C55.0036367,32.7634883 56.4239535,33.155103 57.8891224,34.6161271 C58.9207209,35.6554122 59.2496363,36.5139522 59.3243898,38.2912804 L59.3841927,39.827615 L59.8925166,39.827615 L60.4008405,39.827615 L60.4008405,34.9324313 L60.4008405,30.0372475 L59.6533053,30.0372475 L58.9057702,30.0372475 L58.9057702,27.7026214 L58.9057702,25.3679954 L68.025699,25.3679954 L77.1456279,25.3679954 L77.1456279,28.5310372 L77.1456279,31.6940789 L74.6040084,31.6940789 L72.0623889,31.6940789 L72.0623889,30.8656632 L72.0623889,30.0372475 L69.9692904,30.0372475 L67.876192,30.0372475 L67.876192,31.5434579 L67.876192,33.0496683 L69.7450299,33.0496683 L71.6138678,33.0496683 L71.6138678,35.0830523 L71.6138678,37.1164363 L69.7450299,37.1164363 L67.876192,37.1164363 L67.876192,38.4720257 L67.876192,39.827615 L69.9692904,39.827615 L72.0623889,39.827615 L72.0623889,39.0745098 L72.0623889,38.3214046 L74.6040084,38.3214046 L77.1456279,38.3214046 L77.1456279,41.4091359 L77.1456279,44.4968672 L68.025699,44.4968672 L58.9057702,44.4968672 L58.8908195,42.8099115 C58.8908195,41.424198 58.8609181,41.1681422 58.711411,41.3940738 C58.2030871,42.2224895 57.2761435,43.0358431 56.3043478,43.5328925 C54.5102635,44.4215566 53.7627283,44.4818051 45.569743,44.4968672 L38.2737999,44.4968672 L38.2737999,42.1622411 Z M50.2343624,40.1439192 C51.1463553,39.9631739 51.5799257,39.4360003 51.5799257,38.5021499 C51.5649749,37.2670573 51.0716017,36.9507532 49.0084047,36.8453184 L47.5432358,36.7700079 L47.5432358,38.5322741 L47.5432358,40.2794781 L48.5598836,40.2794781 C49.1130596,40.264416 49.8605948,40.2041676 50.2343624,40.1439192 Z" id="Shape" fill="#D14836"></path>
                    <polygon id="Shape" fill="#D14836" points="78.1921771 42.1622411 78.1921771 39.827615 78.9397123 39.827615 79.6872475 39.827615 79.6872475 34.9324313 79.6872475 30.0372475 78.9397123 30.0372475 78.1921771 30.0372475 78.1921771 27.7026214 78.1921771 25.3679954 87.2373525 25.3679954 96.2825279 25.3679954 96.2825279 28.5310372 96.2825279 31.6940789 93.7409084 31.6940789 91.1992888 31.6940789 91.1992888 30.8656632 91.1992888 30.0372475 89.1809439 30.0372475 87.162599 30.0372475 87.162599 31.5434579 87.162599 33.0496683 88.9566834 33.0496683 90.7507677 33.0496683 90.7507677 35.0830523 90.7507677 37.1164363 88.9566834 37.1164363 87.162599 37.1164363 87.162599 38.4720257 87.162599 39.827615 89.1809439 39.827615 91.1992888 39.827615 91.1992888 39.0745098 91.1992888 38.3214046 93.7409084 38.3214046 96.2825279 38.3214046 96.2825279 41.4091359 96.2825279 44.4968672 87.2373525 44.4968672 78.1921771 44.4968672"></polygon>
                    <path d="M97.3290771,42.1622411 L97.3290771,39.827615 L98.0766123,39.827615 L98.8241474,39.827615 L98.8241474,34.9324313 L98.8241474,30.0372475 L98.0766123,30.0372475 L97.3290771,30.0372475 L97.3290771,27.7026214 L97.3290771,25.3679954 L102.561823,25.3679954 L107.794569,25.3679954 L107.794569,27.7026214 L107.794569,30.0372475 L107.047034,30.0372475 L106.299499,30.0372475 L106.299499,31.6187684 L106.299499,33.2002893 L107.3909,33.2002893 L108.467351,33.2002893 L110.530548,29.2841423 L112.608696,25.3679954 L116.10716,25.3679954 L119.605625,25.3679954 L119.605625,27.6875593 L119.605625,30.0221854 L118.902942,30.0673717 L118.185308,30.112558 L116.929449,32.2061905 C115.778245,34.1190777 115.68854,34.2998229 115.942702,34.4504439 C116.10716,34.5408166 116.510829,34.8571207 116.854695,35.188487 C118.304914,36.5440764 118.753435,39.0443856 117.886294,41.0024591 C117.392921,42.1321169 116.346371,43.1563399 115.180217,43.6985757 C113.670196,44.3914324 112.264829,44.4968672 104.475513,44.4968672 L97.3290771,44.4968672 L97.3290771,42.1622411 Z M109.618555,39.9932981 C110.067076,39.827615 110.635203,39.0293235 110.635203,38.5774604 C110.635203,38.0352246 110.15678,37.2971816 109.663407,37.0561879 C109.319541,36.8905048 108.736464,36.8151942 107.734766,36.8151942 L106.299499,36.8151942 L106.299499,38.5623983 L106.299499,40.3246644 L107.764668,40.2342918 C108.557055,40.1891055 109.394294,40.0836708 109.618555,39.9932981 Z" id="Shape" fill="#D14836"></path>
                    <polygon id="Shape" fill="#FFFFFF" points="0.897042185 34.5558787 0.897042185 31.995321 2.09309843 31.995321 3.28915468 31.995321 3.28915468 33.0496683 3.28915468 34.1040156 3.81242929 34.1040156 4.3357039 34.1040156 4.3357039 31.1669053 4.3357039 28.2297951 3.8871828 28.2297951 3.43866171 28.2297951 3.43866171 26.7988952 3.43866171 25.3679954 6.72781639 25.3679954 10.0169711 25.3679954 10.0169711 26.7988952 10.0169711 28.2297951 9.49369646 28.2297951 8.97042185 28.2297951 8.97042185 31.1669053 8.97042185 34.1040156 9.56844998 34.1040156 10.1664781 34.1040156 10.1664781 33.0496683 10.1664781 31.995321 11.2877808 31.995321 12.4090836 31.995321 12.4090836 34.5558787 12.4090836 37.1164363 6.65306287 37.1164363 0.897042185 37.1164363"></polygon>
                    <path d="M12.7080976,35.6102259 L12.7080976,34.1040156 L13.0818652,34.1040156 L13.4556328,34.1040156 L13.4556328,31.1669053 L13.4556328,28.2297951 L13.0818652,28.2297951 C12.7080976,28.2297951 12.7080976,28.2297951 12.7080976,26.7988952 L12.7080976,25.3679954 L15.7729918,25.3679954 L18.8378859,25.3679954 L18.8378859,26.7988952 C18.8378859,28.2297951 18.8378859,28.2297951 18.4641183,28.2297951 C18.1053014,28.2297951 18.0903507,28.2749814 18.0903507,29.1335213 L18.0903507,30.0372475 L19.3611605,30.0372475 L20.6319703,30.0372475 L20.6319703,29.1335213 C20.6319703,28.2749814 20.6170196,28.2297951 20.2582027,28.2297951 C19.8844351,28.2297951 19.8844351,28.2297951 19.8844351,26.7988952 L19.8844351,25.3679954 L22.9493292,25.3679954 L26.0142234,25.3679954 L26.0142234,26.7988952 L26.0142234,28.2297951 L25.5657023,28.2297951 L25.1171812,28.2297951 L25.1171812,31.1669053 L25.1171812,34.1040156 L25.5657023,34.1040156 L26.0142234,34.1040156 L26.0142234,35.6102259 L26.0142234,37.1164363 L22.9493292,37.1164363 L19.8844351,37.1164363 L19.8844351,35.6102259 L19.8844351,34.1040156 L20.2582027,34.1040156 C20.6020689,34.1040156 20.6319703,34.0588292 20.6319703,33.3509104 L20.6319703,32.5978052 L19.3611605,32.5978052 L18.0903507,32.5978052 L18.0903507,33.3509104 C18.0903507,34.0588292 18.1202521,34.1040156 18.4641183,34.1040156 L18.8378859,34.1040156 L18.8378859,35.6102259 L18.8378859,37.1164363 L15.7729918,37.1164363 L12.7080976,37.1164363 L12.7080976,35.6102259 Z" id="Shape" fill="#FFFFFF"></path>
                    <path d="M26.3132374,35.6102259 L26.3132374,34.1040156 L26.7617585,34.1040156 L27.2102796,34.1040156 L27.2102796,31.1669053 L27.2102796,28.2297951 L26.836512,28.2297951 C26.4627445,28.2297951 26.4627445,28.2297951 26.4627445,26.7988952 L26.4627445,25.3679954 L31.9945046,25.3679954 L37.5262647,25.3679954 L37.5262647,27.3260688 L37.5262647,29.2841423 L35.8816874,29.2841423 L34.2371101,29.2841423 L34.2371101,28.7569687 L34.2371101,28.2297951 L33.0410538,28.2297951 L31.8449976,28.2297951 L31.8449976,29.1335213 L31.8449976,30.0372475 L32.9663003,30.0372475 L34.087603,30.0372475 L34.087603,31.3175264 L34.087603,32.5978052 L32.9663003,32.5978052 L31.8449976,32.5978052 L31.8449976,33.3509104 L31.8449976,34.1040156 L33.0410538,34.1040156 L34.2371101,34.1040156 L34.2371101,33.6521524 L34.2371101,33.2002893 L35.8816874,33.2002893 L37.5262647,33.2002893 L37.5262647,35.1583628 L37.5262647,37.1164363 L31.9197511,37.1164363 L26.3132374,37.1164363 L26.3132374,35.6102259 Z" id="Shape" fill="#FFFFFF"></path>
                    <path d="M46.4219331,23.6509155 C44.463391,23.2593008 43.1776305,22.6116304 41.7274123,21.2409789 C39.8884758,19.4937749 39.0213351,17.4001425 39.0213351,14.7040259 C39.0213351,11.9175367 39.6941167,10.2004568 41.4882011,8.39300439 C43.3420882,6.51024141 45.6295458,5.6517015 48.7093907,5.63663939 C50.6380314,5.63663939 52.2377566,5.95294357 53.6580734,6.63073824 C54.5102635,7.03741504 55.0484888,7.42902974 55.9903831,8.39300439 C57.8741717,10.3058916 58.6067561,12.0380335 58.6067561,14.6739017 C58.6067561,17.3549561 57.8592209,19.1774707 55.9903831,21.10542 C54.6896719,22.4308851 53.7029255,23.0183072 51.9536932,23.5002945 C50.7426863,23.8316608 47.7525457,23.9069713 46.4219331,23.6509155 Z M49.8605948,19.2829054 C50.0400032,19.1624086 50.2941652,18.8310423 50.4287215,18.5599244 C51.1463553,17.0235899 51.161306,12.2790272 50.4436722,10.8782515 C50.1596089,10.3360158 49.397123,9.85402845 48.8140456,9.85402845 C48.2309682,9.85402845 47.4684823,10.3360158 47.1844189,10.8631894 C46.8405528,11.5560462 46.6461936,12.9568218 46.6461936,14.8094606 C46.6461936,16.7223478 46.8854049,18.1833718 47.3040246,18.8159802 C47.8123485,19.5992096 49.0383061,19.8251412 49.8605948,19.2829054 Z" id="Shape" fill="#000000"></path>
                    <path d="M90.9451269,23.6358534 C88.7025214,23.138804 86.5197188,21.3464136 85.4432681,19.1322844 L84.9199935,18.062875 L84.9199935,20.81924 L84.9199935,23.5605429 L76.6223533,23.5605429 L68.3247131,23.5605429 L68.3247131,21.3765379 L68.3247131,19.1925328 L68.9974947,19.1925328 L69.6702764,19.1925328 L69.6702764,14.6739017 L69.6702764,10.1552705 L68.9974947,10.1552705 L68.3247131,10.1552705 L68.3247131,8.046576 L68.3247131,5.93788147 L76.6223533,5.93788147 L84.9199935,5.93788147 L84.9199935,8.66412225 L84.9199935,11.4054251 L85.4582188,10.3209537 C86.5197188,8.18213493 88.3885567,6.64580035 90.7507677,5.99812988 C92.1860352,5.59145308 96.32738,5.59145308 97.4785841,5.99812988 C98.9138516,6.49517931 99.7660417,7.00729084 100.648133,7.91101706 C101.619929,8.90511591 102.591725,10.7426926 102.621626,11.6162946 L102.636577,12.1735924 L100.468725,12.9718839 C99.2726685,13.3936228 98.2560207,13.7551133 98.2111686,13.7551133 C98.1663165,13.7701754 98.0467108,13.4086849 97.9420559,12.986946 C97.7028447,11.8723504 97.0001616,10.7125684 96.32738,10.2908295 C95.6097462,9.83896635 94.4734928,9.80884214 93.7409084,10.230581 C91.6179085,11.4506115 91.6179085,18.0779371 93.7409084,19.2075949 C95.0565702,19.9155138 96.6263941,19.3130296 97.4038306,17.7917572 L97.8523517,16.9332172 L100.065056,16.9332172 L102.262809,16.9332172 L102.262809,20.2468801 L102.262809,23.5605429 L100.094957,23.5605429 L97.9271052,23.5605429 L97.9271052,23.0484314 L97.9271052,22.5212577 L97.0749151,22.9731209 C95.4452885,23.8015366 92.9634718,24.0726544 90.9451269,23.6358534 Z M80.2852756,18.5147381 L80.2852756,17.8369435 L82.6175853,17.8369435 C84.7555358,17.8369435 84.9349442,17.8218814 84.8601907,17.5808877 C84.441571,16.2403605 84.3668175,14.0864796 84.6807823,12.6103934 L84.8751414,11.6614809 L82.5727332,11.6614809 L80.2852756,11.6614809 L80.2852756,10.9083757 L80.2852756,10.1552705 L78.4164377,10.1552705 L76.5475998,10.1552705 L76.5475998,11.5108599 L76.5475998,12.8664492 L78.2669307,12.8664492 L79.9862615,12.8664492 L79.9862615,14.7492122 L79.9862615,16.6319752 L78.2669307,16.6319752 L76.5475998,16.6319752 L76.5475998,17.912254 L76.5475998,19.1925328 L78.4164377,19.1925328 L80.2852756,19.1925328 L80.2852756,18.5147381 Z" id="Shape" fill="#000000"></path>
                    <path d="M0,21.3916 L0,19.1925328 L0.82228867,19.1925328 L1.64457734,19.1925328 L1.64457734,14.6739017 L1.64457734,10.1552705 L0.82228867,10.1552705 L0,10.1552705 L0,8.046576 L0,5.93788147 L5.08323905,5.93788147 L10.1664781,5.93788147 L10.1664781,8.046576 L10.1664781,10.1552705 L9.34418943,10.1552705 L8.52190076,10.1552705 L8.52190076,11.3451767 L8.52190076,12.5350829 L11.631647,12.5953313 C15.1749636,12.685704 16.1168579,12.8965734 17.4175691,13.8756102 C18.7930338,14.9450195 19.3462098,16.1349257 19.3312591,18.062875 C19.3163084,20.096259 18.2249071,21.7530904 16.3112171,22.6417546 C15.7729918,22.8827482 14.9208017,23.1689282 14.4274285,23.2593008 C13.9041539,23.3647356 10.7645062,23.4701703 6.7726685,23.5153566 L0,23.5906671 L0,21.3916 Z M11.2728301,19.3431538 C12.1698723,18.9967255 12.5137385,17.5658256 11.8409568,16.903093 C11.5568935,16.6169131 10.2412316,16.3307331 9.16478099,16.3307331 L8.52190076,16.3307331 L8.52190076,17.912254 L8.52190076,19.4937749 L9.7030063,19.4937749 C10.3608372,19.4937749 11.0635203,19.4335265 11.2728301,19.3431538 Z" id="Shape" fill="#000000"></path>
                    <path d="M19.435914,21.3916 L19.435914,19.1925328 L20.1086957,19.1925328 L20.7814773,19.1925328 L20.7814773,14.6739017 L20.7814773,10.1552705 L20.1086957,10.1552705 L19.435914,10.1552705 L19.435914,8.046576 L19.435914,5.93788147 L24.220139,5.93788147 L29.004364,5.93788147 L29.004364,8.046576 L29.004364,10.1552705 L28.3315824,10.1552705 L27.6588007,10.1552705 L27.6588007,11.5861704 L27.6588007,13.0170702 L28.6754485,13.0170702 L29.6771456,13.0170702 L31.5459835,9.47747586 L33.4148214,5.93788147 L36.5843705,5.93788147 L39.7688702,5.93788147 L39.7688702,8.046576 L39.7688702,10.1552705 L39.1857928,10.1552705 L38.6027154,10.1552705 L37.4365605,12.1434682 C36.554469,13.6346165 36.3152578,14.146728 36.4797155,14.1919143 C36.5993212,14.2371007 37.0478422,14.6136533 37.4515112,15.0353922 C39.2007435,16.8127204 39.1409407,19.8251412 37.3468563,21.6325936 C36.9880394,21.9940841 36.3750606,22.4459472 35.9863423,22.6417546 C34.5959269,23.3195492 33.4297721,23.424984 26.2085825,23.5153566 L19.435914,23.6057292 L19.435914,21.3916 Z M30.5592371,19.3431538 C31.2320187,19.0870981 31.5459835,18.6502971 31.5459835,17.9423782 C31.5459835,16.7976583 30.7236948,16.3307331 28.750202,16.3307331 L27.6588007,16.3307331 L27.6588007,17.912254 L27.6588007,19.4937749 L28.9146598,19.4937749 C29.6173428,19.4937749 30.3499273,19.4335265 30.5592371,19.3431538 Z" id="Shape" fill="#000000"></path>
                    <path d="M57.5602069,21.3765379 L57.5602069,19.1925328 L58.3824956,19.1925328 L59.2047842,19.1925328 L59.2047842,12.986946 C59.1898335,9.56784848 59.1300307,6.4650551 59.0702279,6.10356461 C58.9057702,5.2600868 58.561904,4.98896893 57.8293195,5.07934155 L57.2611928,5.15465207 L57.2611928,2.92546071 L57.2611928,0.711331454 L57.9489252,0.605896727 C59.1001293,0.455275689 61.1633263,0.500462001 62.0603685,0.726393557 C64.3777275,1.26862929 65.6933894,2.8953365 65.9475513,5.54626677 C66.0073541,6.29937196 66.0821076,9.67328321 66.0821076,13.0622566 L66.0821076,19.1925328 L66.8296428,19.1925328 L67.577178,19.1925328 L67.577178,21.3765379 L67.577178,23.5605429 L62.5686924,23.5605429 L57.5602069,23.5605429 L57.5602069,21.3765379 Z" id="Shape" fill="#000000"></path>
                    <polygon id="Shape" fill="#000000" points="102.561823 19.795017 102.561823 16.029491 104.281154 16.029491 106.000485 16.029491 106.000485 17.6110119 106.000485 19.1925328 106.972281 19.1925328 107.944076 19.1925328 107.944076 14.6739017 107.944076 10.1552705 107.196541 10.1552705 106.449006 10.1552705 106.449006 8.046576 106.449006 5.93788147 111.382738 5.93788147 116.31647 5.93788147 116.31647 8.046576 116.31647 10.1552705 115.494181 10.1552705 114.671893 10.1552705 114.671893 14.6739017 114.671893 19.1925328 115.643688 19.1925328 116.615484 19.1925328 116.615484 17.6110119 116.615484 16.029491 118.260061 16.029491 119.904639 16.029491 119.904639 19.795017 119.904639 23.5605429 111.233231 23.5605429 102.561823 23.5605429"></polygon>
                </g>
            </g>
        </g>
    </g>
</svg>