<?xml version="1.0" encoding="UTF-8"?>
<svg viewBox="0 0 91 91" version="1.1" xmlns="http://www.w3.org/2000/svg" xmlns:xlink="http://www.w3.org/1999/xlink">
    <!-- Generator: Sketch 52.6 (67491) - http://www.bohemiancoding.com/sketch -->
    <title>logo-primary</title>
    <desc>Created with Sketch.</desc>
    <defs>
        <path d="M10.48,14 C10.35,13.67 10.29,13.49 10.29,13.49 C10.22,13.32 10.16,13.16 10.1,12.98 C10.03,12.81 9.97,12.65 9.91,12.47 C9.91,12.47 9.84,12.3 9.72,11.96 C9.83,11.91 9.94,11.86 10.05,11.81 C10.1,11.79 10.16,11.77 10.21,11.74 C10.26,11.71 10.31,11.68 10.36,11.65 C10.46,11.59 10.56,11.54 10.66,11.48 C10.75,11.41 10.84,11.35 10.93,11.29 C10.97,11.26 11.02,11.23 11.06,11.2 C11.1,11.17 11.14,11.13 11.18,11.09 C11.26,11.02 11.33,10.96 11.41,10.89 C11.48,10.82 11.55,10.74 11.61,10.68 C11.67,10.61 11.75,10.55 11.8,10.47 C12.27,9.9 12.54,9.33 12.69,8.87 C12.84,8.4 12.9,8.04 12.92,7.79 C12.94,7.54 12.95,7.42 12.95,7.42 C12.97,6.75 12.86,6.08 12.62,5.45 C12.43,5 12.2,4.56 11.9,4.17 C11.59,3.79 11.24,3.44 10.84,3.15 C10.43,2.87 10,2.65 9.53,2.48 C9.06,2.33 8.58,2.24 8.08,2.21 C7.41,2.19 6.74,2.3 6.11,2.54 C5.66,2.73 5.22,2.96 4.83,3.26 C4.45,3.57 4.1,3.92 3.81,4.32 C3.53,4.73 3.31,5.16 3.14,5.63 C2.99,6.1 2.9,6.58 2.87,7.08 C2.85,7.75 2.96,8.42 3.2,9.05 C3.48,9.76 3.91,10.4 4.47,10.92 C4.63,11.09 4.83,11.22 5.01,11.37 C5.11,11.43 5.21,11.5 5.31,11.56 C5.36,11.59 5.41,11.63 5.46,11.65 C5.51,11.68 5.57,11.7 5.61,11.73 C5.66,11.76 5.72,11.78 5.76,11.81 C5.81,11.84 5.87,11.86 5.92,11.88 C6.03,11.92 6.14,11.97 6.25,12.01 L5.07,13.88 C4.99,13.85 4.92,13.81 4.84,13.78 C4.77,13.74 4.69,13.71 4.62,13.67 C4.55,13.63 4.47,13.6 4.4,13.56 C4.33,13.53 4.25,13.47 4.19,13.43 C4.05,13.34 3.91,13.25 3.77,13.16 C3.51,12.95 3.23,12.76 3,12.52 C2.2,11.78 1.58,10.85 1.19,9.84 C0.85,8.95 0.68,7.98 0.72,7.02 C0.75,6.32 0.88,5.62 1.1,4.95 C1.33,4.29 1.66,3.66 2.06,3.08 C2.47,2.5 2.96,2 3.51,1.57 C4.07,1.14 4.69,0.81 5.34,0.54 C6.23,0.2 7.2,0.03 8.16,0.07 C8.86,0.1 9.56,0.23 10.23,0.45 C10.89,0.68 11.52,1.01 12.1,1.41 C12.68,1.82 13.18,2.31 13.61,2.86 C14.04,3.42 14.37,4.04 14.64,4.69 C14.98,5.58 15.15,6.55 15.11,7.51 C15.11,7.51 15.1,7.68 15.07,8.04 C15.04,8.39 14.95,8.91 14.74,9.58 C14.51,10.24 14.13,11.05 13.46,11.86 C13.38,11.97 13.29,12.06 13.19,12.16 C13.1,12.26 13,12.36 12.9,12.46 C12.79,12.55 12.68,12.65 12.57,12.75 C12.52,12.8 12.46,12.85 12.4,12.9 C12.34,12.95 12.28,12.99 12.22,13.04 C12.09,13.13 11.97,13.22 11.84,13.32 C11.71,13.41 11.56,13.48 11.42,13.57 C11.35,13.61 11.27,13.65 11.2,13.69 C11.13,13.73 11.05,13.76 10.97,13.8 C10.8,13.86 10.64,13.93 10.48,14 Z" id="path-1"></path>
    </defs>
    <g id="Page-1" stroke="none" stroke-width="1" fill="none" fill-rule="evenodd">
        <g id="logo-primary">
            <path d="M64.04,27.51 C59.13,22.6 52.59,19.89 45.65,19.89 C43.42,19.89 41.25,20.2 39.15,20.74 L41.1,22.69 C42.59,22.4 44.1,22.25 45.65,22.25 C51.97,22.25 57.91,24.71 62.37,29.18 C66.84,33.65 69.3,39.58 69.3,45.9 C69.3,47.45 69.15,48.97 68.86,50.45 L70.81,52.4 C71.35,50.3 71.66,48.12 71.66,45.9 C71.66,38.95 68.95,32.42 64.04,27.51 Z" id="Path" fill="#2A228E"></path>
            <path d="M28.92,62.62 C23.15,56.85 20.99,48.82 22.44,41.36 L20.49,39.41 C18.28,48.03 20.52,57.56 27.25,64.3 C32.32,69.37 38.98,71.9 45.64,71.9 C47.83,71.9 50,71.6 52.13,71.05 L50.18,69.1 C42.72,70.55 34.69,68.39 28.92,62.62 Z" id="Path" fill="#2A228E"></path>
            <path d="M8.11,66.2 C2.69,56.17 1.51,44.62 4.79,33.69 C8.07,22.76 15.39,13.77 25.43,8.35 C31.46,5.1 38.03,3.38 44.68,3.23 C49.11,3.13 53.58,3.73 57.94,5.03 C68.87,8.3 77.86,15.63 83.28,25.67 C88.69,35.71 89.87,47.25 86.6,58.18 C85.95,60.35 85.13,62.44 84.17,64.45 L85.96,66.16 C87.13,63.84 88.1,61.4 88.87,58.86 C92.32,47.33 91.08,35.15 85.37,24.55 C79.65,13.97 70.16,6.23 58.63,2.78 C47.1,-0.67 34.92,0.57 24.32,6.28 C13.71,11.99 5.98,21.49 2.53,33.02 C-0.92,44.55 0.32,56.73 6.03,67.33 C14.34,82.74 30.38,91.36 46.79,90.99 C53.67,90.84 60.62,89.1 67.08,85.61 C67.3,85.49 67.51,85.36 67.72,85.24 L65.94,83.54 C45.21,94.69 19.28,86.92 8.11,66.2 Z" id="Path" fill="#2A228E"></path>
            <path d="M30.94,30.77 C32,30.54 32.86,30.02 33.51,29.21 C34.16,28.39 34.48,27.42 34.48,26.29 C34.48,25.87 34.43,25.49 34.34,25.12 C34.16,24.32 33.76,23.64 33.19,23.06 C33.1,22.97 33.03,22.87 32.93,22.78 C31.99,21.99 30.47,21.59 28.35,21.59 L25.52,21.59 L25.52,29.42 L25.52,33.52 L25.52,37.58 L27.93,37.58 L27.93,31.03 L28.36,31.03 L32.93,37.58 L35.88,37.58 L30.94,30.77 Z M28.7,28.94 L27.94,28.94 L27.94,26.89 L27.94,23.86 L28.8,23.86 C29.78,23.86 30.53,24.03 31.08,24.35 C31.77,24.75 32.13,25.4 32.13,26.31 C32.13,26.38 32.12,26.45 32.11,26.52 C32.03,27.99 31.07,28.78 29.22,28.91 C29.05,28.92 28.88,28.94 28.7,28.94 Z" id="Shape" fill="#2A228E" fill-rule="nonzero"></path>
            <path d="M68.03,63.58 C67.57,63 66.9,62.49 66.02,62.04 C65.76,61.91 65.48,61.78 65.18,61.66 L63.76,61.08 L63.58,61.01 C62.42,60.54 61.84,59.91 61.84,59.12 C61.84,58.55 62.06,58.08 62.5,57.71 C62.94,57.33 63.5,57.14 64.17,57.14 C64.72,57.14 65.16,57.25 65.51,57.47 C65.66,57.56 65.83,57.71 65.99,57.9 C66.17,58.11 66.36,58.38 66.55,58.71 L68.5,57.55 C68.08,56.83 67.61,56.27 67.07,55.84 C66.25,55.19 65.29,54.86 64.19,54.86 C62.82,54.86 61.68,55.27 60.76,56.08 C59.84,56.89 59.38,57.89 59.38,59.09 C59.38,60.7 60.28,61.95 62.07,62.87 C62.26,62.97 62.45,63.06 62.67,63.15 L64.21,63.79 C64.28,63.82 64.33,63.85 64.39,63.88 C64.71,64.03 65,64.18 65.24,64.33 C65.53,64.52 65.77,64.73 65.95,64.94 C66.13,65.16 66.26,65.39 66.35,65.66 C66.44,65.92 66.48,66.2 66.48,66.52 C66.48,67.29 66.23,67.93 65.73,68.44 C65.23,68.94 64.61,69.2 63.86,69.2 C62.91,69.2 62.18,68.86 61.68,68.16 C61.46,67.87 61.29,67.38 61.18,66.71 C61.15,66.55 61.13,66.4 61.11,66.21 L58.67,66.75 C58.75,67.27 58.88,67.73 59.03,68.16 C59.33,68.98 59.75,69.68 60.34,70.22 C61.24,71.04 62.39,71.45 63.77,71.45 C65.24,71.45 66.46,70.97 67.45,70 C68.43,69.04 68.92,67.82 68.92,66.36 C68.94,65.26 68.64,64.33 68.03,63.58 Z" id="Path" fill="#2A228E"></path>
            <g id="Clipped" transform="translate(38.000000, 40.000000)">
                <mask id="mask-2" fill="white">
                    <use xlink:href="#path-1"></use>
                </mask>
                <use id="SVGID_1_" fill="#2A228E" xlink:href="#path-1"></use>
            </g>
            <path d="M81.49,75.95 C81.03,75.37 80.36,74.86 79.48,74.41 C79.22,74.28 78.94,74.15 78.64,74.03 L77.22,73.45 L77.04,73.38 C75.88,72.91 75.3,72.28 75.3,71.49 C75.3,70.92 75.52,70.45 75.96,70.08 C76.4,69.7 76.96,69.51 77.63,69.51 C78.18,69.51 78.62,69.62 78.97,69.84 C79.12,69.93 79.29,70.08 79.45,70.27 C79.63,70.48 79.82,70.75 80.01,71.08 L81.96,69.92 C81.54,69.2 81.07,68.64 80.53,68.21 C79.71,67.56 78.75,67.23 77.65,67.23 C76.28,67.23 75.14,67.64 74.22,68.45 C73.3,69.26 72.84,70.26 72.84,71.46 C72.84,73.07 73.74,74.32 75.53,75.24 C75.72,75.34 75.91,75.43 76.13,75.52 L77.67,76.16 C77.74,76.19 77.79,76.22 77.85,76.25 C78.17,76.4 78.46,76.55 78.7,76.7 C78.99,76.89 79.23,77.1 79.41,77.31 C79.59,77.53 79.72,77.76 79.81,78.03 C79.9,78.29 79.94,78.57 79.94,78.89 C79.94,79.66 79.69,80.3 79.19,80.81 C78.69,81.31 78.07,81.57 77.32,81.57 C76.37,81.57 75.64,81.23 75.14,80.53 C74.92,80.24 74.75,79.75 74.64,79.08 C74.61,78.92 74.59,78.77 74.57,78.58 L72.13,79.12 C72.21,79.64 72.34,80.1 72.49,80.53 C72.79,81.35 73.21,82.05 73.8,82.59 C74.7,83.41 75.85,83.82 77.23,83.82 C78.7,83.82 79.92,83.34 80.91,82.37 C81.89,81.41 82.38,80.19 82.38,78.73 C82.4,77.64 82.09,76.71 81.49,75.95 Z" id="Path" fill="#2A228E"></path>
        </g>
    </g>
</svg>