<?xml version="1.0" encoding="UTF-8"?>
<svg width="85px" height="81px" viewBox="0 0 85 81" version="1.1" xmlns="http://www.w3.org/2000/svg" xmlns:xlink="http://www.w3.org/1999/xlink">
    <!-- Generator: Sketch 49.3 (51167) - http://www.bohemiancoding.com/sketch -->
    <title>Group 44</title>
    <desc>Created with Sketch.</desc>
    <defs></defs>
    <g id="Page-1" stroke="none" stroke-width="1" fill="none" fill-rule="evenodd">
        <g id="Group-44" fill="#271935">
            <path d="M52.6955904,41.1666667 L46.2355064,41.1666667 L46.2355064,35.4722222 C46.2355064,33.5066602 44.6286502,31.9131944 42.6465708,31.9131944 L38.3398481,31.9131944 L38.3398481,28.0053819 L48.0873971,21.1008681 C48.2453103,20.9900043 48.3514531,20.8205946 48.3816899,20.6310764 C48.4103116,20.442181 48.3611432,20.2498155 48.2453103,20.0972222 L46.091949,17.25 C45.8599243,16.9441016 45.4254836,16.8748785 45.1085806,17.0934028 L37.7512627,22.1401042 C39.0522518,19.7094661 38.1198464,16.6931011 35.6687828,15.4030425 C33.2177193,14.112895 30.1760067,15.0375304 28.8751072,17.4681684 C27.8290222,19.4225195 28.2079241,21.8268207 29.8053593,23.3715278 L29.0086156,23.3715278 C28.8061099,23.3719727 28.6131149,23.4573003 28.4774532,23.6064236 L23.8405484,28.7171875 C22.5674632,30.1277192 22.6305388,32.2795964 23.9841058,33.6144097 L27.7811997,37.4012153 C27.9304097,37.5493598 28.1378501,37.6249002 28.3482515,37.6076389 C28.5613445,37.5913563 28.7560443,37.4818273 28.879414,37.3086806 L29.7264027,36.1199653 L29.7264027,48.9965278 C29.7264027,49.3896224 30.0477919,49.7083333 30.4441899,49.7083333 L34.7509126,49.7083333 C35.1473105,49.7083333 35.4686997,49.3896224 35.4686997,48.9965278 L35.4686997,37.6076389 L40.4932095,37.6076389 L40.4932095,41.1666667 L38.3398481,41.1666667 C37.9434502,41.1666667 37.622061,41.4853776 37.622061,41.8784722 L37.622061,48.9965278 C37.622061,49.3896224 37.9434502,49.7083333 38.3398481,49.7083333 L52.6955904,49.7083333 C53.0919884,49.7083333 53.4133775,49.3896224 53.4133775,48.9965278 L53.4133775,41.8784722 C53.4133775,41.4853776 53.0920781,41.1666667 52.6955904,41.1666667 Z M29.7264027,19.8125 C29.7264027,17.8469379 31.3332589,16.2534722 33.3153383,16.2534722 C35.2974177,16.2534722 36.9042739,17.8469379 36.9042739,19.8125 C36.9042739,21.7780621 35.2974177,23.3715278 33.3153383,23.3715278 C31.3332589,23.3715278 29.7264027,21.7780621 29.7264027,19.8125 Z M35.0236717,24.7951389 L34.0331254,26.7597222 L33.0425792,24.7951389 L35.0236717,24.7951389 Z M29.7264027,32.4185764 L28.5779434,31.2013889 L29.7264027,30.0625 L29.7264027,32.4185764 Z M34.7509126,36.1840278 C34.3545146,36.1840278 34.0331254,36.5027387 34.0331254,36.8958333 L34.0331254,48.2847222 L31.161977,48.2847222 L31.161977,28.3541667 C31.1605414,28.0667752 30.9849527,27.8084787 30.716949,27.6993056 C30.449663,27.587819 30.1410145,27.6468099 29.934561,27.8487847 L27.0634126,30.6960069 C26.7898459,30.9728103 26.7898459,31.4157313 27.0634126,31.6925347 L29.4105764,34.1197917 L28.1975162,35.7996528 L24.9818299,32.625 C24.1618479,31.8203038 24.1270352,30.5176997 24.9028733,29.6710069 L29.3316198,24.7951389 L31.4347361,24.7951389 L33.3942949,28.6744792 C33.5750875,29.0243316 34.0075543,29.1626888 34.3604364,28.9834028 C34.4943934,28.9153364 34.6034073,28.8073199 34.671956,28.6744792 L36.7463607,24.5673611 L45.3598061,18.6522569 L46.6590008,20.3677083 L37.2057445,27.0657986 C37.0175048,27.1986393 36.9053506,27.4132487 36.9042739,27.6423611 L36.9042739,32.625 C36.9042739,33.0180946 37.2256631,33.3368056 37.622061,33.3368056 L42.6465708,33.3368056 C43.8358543,33.3368056 44.7999322,34.2928494 44.7999322,35.4722222 L44.7999322,41.1666667 L41.9287837,41.1666667 L41.9287837,36.8958333 C41.9287837,36.5027387 41.6073945,36.1840278 41.2109966,36.1840278 L34.7509126,36.1840278 Z M51.9778033,48.2847222 L39.0576352,48.2847222 L39.0576352,42.5902778 L51.9778033,42.5902778 L51.9778033,48.2847222 Z" id="Shape" fill-rule="nonzero"></path>
            <rect id="Rectangle-path" fill-rule="nonzero" transform="translate(51.698866, 20.710338) rotate(-36.271704) translate(-51.698866, -20.710338) " x="47.248699" y="19.9985505" width="8.90033326" height="1.42357481"></rect>
            <rect id="Rectangle-path" fill-rule="nonzero" transform="translate(52.256587, 15.963450) rotate(-33.691657) translate(-52.256587, -15.963450) " x="49.6690729" y="15.2516743" width="5.17502797" height="1.42355138"></rect>
            <rect id="Rectangle-path" fill-rule="nonzero" transform="translate(57.256587, 20.963450) rotate(-33.691657) translate(-57.256587, -20.963450) " x="54.6690729" y="20.2516743" width="5.17502797" height="1.42355138"></rect>
            <path d="M67.1238333,24.794 C68.0144489,24.9511675 69.0753133,25.173818 70.3064583,25.4619583 C71.5376034,25.7500987 72.7556329,26.090623 73.9605833,26.4835417 C75.1655338,26.8764603 76.3049807,27.3217614 77.3789583,27.8194583 C78.4529359,28.3171553 79.2780527,28.854136 79.8543333,29.4304167 C80.6401706,30.2686431 81.2557339,31.4997697 81.7010417,33.1238333 C82.1463494,34.747897 82.4999709,36.4243247 82.7619167,38.1531667 C83.0238624,39.9343978 83.2203188,41.6501167 83.3512917,43.300375 C83.4822645,44.9506333 83.6001384,46.2472453 83.7049167,47.19025 C83.9144733,50.8051014 84.1371238,54.4198986 84.372875,58.03475 C84.6086262,61.6496014 84.7265,65.2643986 84.7265,68.87925 L84.7265,72.7298333 C84.6741108,73.1489465 84.6479167,73.5680535 84.6479167,73.9871667 C84.6479167,74.4062799 84.6217225,74.7729984 84.5693333,75.0873333 C84.464555,75.6112248 84.4121667,75.925555 84.4121667,76.0303333 C83.6787186,77.0781163 82.9714756,77.602 82.2904167,77.602 C81.8713035,77.602 81.4652936,77.5103204 81.072375,77.3269583 C80.6794564,77.1435963 80.3258349,76.9471399 80.0115,76.7375833 C79.3828302,76.3184701 78.8589465,75.9255574 78.4398333,75.5588333 L78.2040833,75.3230833 L78.1255,75.00875 C78.0731108,74.1181344 78.0338196,73.2406293 78.007625,72.3762083 C77.9814304,71.5117873 77.9421392,70.6342822 77.88975,69.7436667 C77.7849717,65.5001454 77.6540008,61.2959792 77.4968333,57.1310417 C77.3396659,52.9661042 77.1039182,48.7881321 76.7895833,44.597 C76.7371942,43.9683302 76.6586116,43.0646309 76.5538333,41.885875 C76.449055,40.7071191 76.2787928,39.4890896 76.0430417,38.23175 C75.8072905,36.9744104 75.5191545,35.8218663 75.178625,34.7740833 C74.8380955,33.7263003 74.4582799,32.9928632 74.0391667,32.57375 C73.8819992,32.4165825 73.5414748,32.2201262 73.0175833,31.984375 C72.4936918,31.7486238 71.9305169,31.5259733 71.3280417,31.3164167 C70.7255664,31.1068601 70.1361973,30.9365979 69.5599167,30.805625 C68.983636,30.6746521 68.5645291,30.6091667 68.3025833,30.6091667 C68.0930267,31.0282799 67.9751529,31.3557072 67.9489583,31.5914583 C67.9227638,31.8272095 67.9096667,32.0498601 67.9096667,32.2594167 C67.9096667,35.2455983 68.0668318,38.3496089 68.3811667,41.5715417 C68.6955016,44.7934744 69.0622201,47.8974851 69.4813333,50.8836667 C69.7432791,52.5601195 69.9004442,54.2627414 69.9528333,55.9915833 C70.0052225,57.7204253 70.083805,59.4230472 70.1885833,61.0995 C70.2933616,63.0902877 70.3850413,65.1072398 70.463625,67.1504167 C70.5422087,69.1935935 70.5815,71.2105456 70.5815,73.2013333 L70.5815,74.2229167 C70.5291108,74.3800841 70.5029167,74.5503463 70.5029167,74.7337083 C70.5029167,74.9170704 70.4767225,75.0873325 70.4243333,75.2445 C70.2671659,76.1875047 69.7956706,76.9602331 69.0098333,77.5627083 C68.2239961,78.1651836 67.346491,78.6497759 66.3772917,79.0165 C65.4080924,79.3832241 64.4127134,79.6451659 63.391125,79.8023333 C62.3695366,79.9595008 61.5444198,80.0380833 60.91575,80.0380833 C60.0251344,80.0380833 58.9904642,79.9333066 57.8117083,79.72375 C56.6329524,79.5141934 55.6768648,78.9641156 54.9434167,78.0735 C54.8386384,77.9163325 54.6290849,77.6281965 54.31475,77.2090833 C54.0004151,76.8947484 53.84325,76.5018357 53.84325,76.0303333 C53.84325,75.5064418 54.0789976,75.1397233 54.5505,74.9301667 C54.8648349,74.7729992 55.1791651,74.6944167 55.4935,74.6944167 C55.7030566,74.6944167 56.0697752,74.746805 56.5936667,74.8515833 L57.5366667,75.0873333 C58.1653365,75.2445008 58.7154143,75.3230833 59.1869167,75.3230833 C59.8679756,75.3230833 60.5228302,75.2445008 61.1515,75.0873333 C61.9897264,74.982555 62.5659984,74.8515841 62.8803333,74.6944167 C63.1946682,74.5372492 63.4042217,74.3800841 63.509,74.2229167 C63.6661675,73.7514143 63.7578471,73.2930161 63.7840417,72.8477083 C63.8102362,72.4024006 63.8233333,71.9440024 63.8233333,71.4725 C63.8233333,69.9532146 63.7840421,68.4208549 63.7054583,66.875375 C63.6268746,65.3298951 63.535195,63.7975354 63.4304167,62.27825 C63.3256384,59.9207382 63.2077645,57.6025531 63.0767917,55.323625 C62.9458188,53.0446969 62.7493624,50.7265118 62.4874167,48.369 C62.1730818,45.6971533 61.9111399,43.0515409 61.7015833,40.4320833 C61.4920267,37.8126258 61.38725,35.1670134 61.38725,32.4951667 C61.38725,31.9712752 61.4003471,31.4604886 61.4265417,30.9627917 C61.4527362,30.4650947 61.4658333,29.9543082 61.4658333,29.4304167 L61.4658333,28.566 C61.4658333,28.3564434 61.413445,28.1468899 61.3086667,27.9373333 C61.2562775,26.418048 61.6229961,25.4619603 62.4088333,25.0690417 C63.1946706,24.676123 63.9281077,24.4796667 64.6091667,24.4796667 C65.6045605,24.4796667 66.4427744,24.5844434 67.1238333,24.794 Z" id="ת"></path>
            <path d="M48.45175,53.9750833 C48.5235004,54.1185841 48.5892705,54.2800199 48.6490625,54.4593958 C48.7088545,54.6387717 48.7626664,54.824124 48.8105,55.0154583 C49.0975014,56.2591312 49.2828537,57.6283467 49.3665625,59.1231458 C49.4502713,60.617945 49.492125,61.9991187 49.492125,63.2667083 C49.492125,64.2712134 49.5160414,65.2697242 49.563875,66.2622708 C49.6117086,67.2548175 49.6595414,68.2533283 49.707375,69.2578333 C49.7552086,69.8079194 49.7910832,70.346039 49.815,70.8722083 C49.8389168,71.3983776 49.850875,71.9364972 49.850875,72.4865833 C49.850875,72.7975016 49.8389168,73.1861435 49.815,73.6525208 C49.7910832,74.1188982 49.7372713,74.5792894 49.6535625,75.0337083 C49.5698537,75.4881273 49.4383134,75.9066648 49.2589375,76.2893333 C49.0795616,76.6720019 48.8463764,76.958999 48.559375,77.1503333 C48.3919575,77.2460005 48.1228977,77.3476453 47.7521875,77.4552708 C47.3814773,77.5628964 46.9928354,77.652583 46.58625,77.7243333 C46.1796646,77.7960837 45.7730854,77.8558748 45.3665,77.9037083 C44.9599146,77.9515419 44.6370429,77.9754583 44.397875,77.9754583 C43.8717057,77.9754583 43.5189384,77.8259807 43.3395625,77.5270208 C43.1601866,77.228061 43.0705,76.8992101 43.0705,76.5404583 C43.0705,76.3012905 43.1422493,76.1159382 43.28575,75.9843958 C43.4292507,75.8528535 43.5966657,75.7512087 43.788,75.6794583 C43.9793343,75.607708 44.188603,75.5598751 44.4158125,75.5359583 C44.643022,75.5120415 44.8403325,75.4881251 45.00775,75.4642083 C45.1990843,75.4402915 45.3963948,75.4223542 45.5996875,75.4103958 C45.8029802,75.3984374 46.0002907,75.3805001 46.191625,75.3565833 C46.2633754,75.3565833 46.3351246,75.3506042 46.406875,75.3386458 C46.4786254,75.3266874 46.5384164,75.3207083 46.58625,75.3207083 C46.7775843,75.1532908 46.927062,74.8603146 47.0346875,74.4417708 C47.142313,74.0232271 47.196125,73.682418 47.196125,73.4193333 C47.196125,73.2040823 47.1901459,72.9948135 47.1781875,72.7915208 C47.1662291,72.5882282 47.1482918,72.3789594 47.124375,72.1637083 C46.9808743,70.7765347 46.8911877,69.3893819 46.8553125,68.0022083 C46.8194373,66.6150347 46.7775836,65.2278819 46.72975,63.8407083 C46.6819164,62.4296179 46.6221254,61.0305069 46.550375,59.6433333 C46.4786246,58.2561597 46.44275,56.8570487 46.44275,55.4459583 L46.44275,54.9078333 C46.44275,54.5490815 46.5264575,54.2082724 46.693875,53.8853958 C46.8612925,53.5625192 47.1602478,53.4010833 47.59075,53.4010833 C47.8060011,53.4010833 47.9793952,53.4668535 48.1109375,53.5983958 C48.2424798,53.7299382 48.3560829,53.8554994 48.45175,53.9750833 Z M34.424625,55.9840833 C34.4007082,56.1036673 34.3827709,56.199333 34.3708125,56.2710833 C34.3588541,56.3428337 34.352875,56.4384994 34.352875,56.5580833 C34.3289582,56.7494176 34.317,56.9766237 34.317,57.2397083 C34.317,57.502793 34.3050418,57.7658737 34.281125,58.0289583 L34.281125,60.4325833 C34.281125,60.6717512 34.2751459,61.0006021 34.2631875,61.4191458 C34.2512291,61.8376896 34.24525,62.2741644 34.24525,62.7285833 C34.2691668,63.2069191 34.2871041,63.6433939 34.2990625,64.0380208 C34.3110209,64.4326478 34.3409164,64.725624 34.38875,64.9169583 C34.4844171,65.2278766 34.6877068,65.3833333 34.998625,65.3833333 C35.1899593,65.3833333 35.4111862,65.4072498 35.6623125,65.4550833 C35.9134388,65.5029169 36.1406448,65.5746662 36.3439375,65.6703333 C36.5472302,65.7660005 36.7206243,65.8975408 36.864125,66.0649583 C37.0076257,66.2323758 37.079375,66.4476237 37.079375,66.7107083 C37.079375,67.308628 36.8162943,67.7271655 36.290125,67.9663333 C36.0987907,68.0141669 35.8596264,68.0619998 35.572625,68.1098333 L34.926875,68.1098333 C34.0419539,68.1098333 33.3543566,67.9962303 32.8640625,67.7690208 C32.3737684,67.5418114 32.0090429,66.9498798 31.769875,65.9932083 C31.6742079,65.6105398 31.6144168,65.233856 31.5905,64.8631458 C31.5665832,64.4924356 31.554625,64.175543 31.554625,63.9124583 C31.554625,62.5731183 31.5785414,61.2457566 31.626375,59.9303333 C31.6742086,58.6149101 31.7220414,57.2875484 31.769875,55.9482083 C31.43504,55.8286244 31.1241264,55.6791467 30.837125,55.4997708 C30.5501236,55.3203949 30.406625,55.0154605 30.406625,54.5849583 C30.406625,54.2262065 30.5501236,53.9272512 30.837125,53.6880833 C30.9567089,53.5684994 31.0822702,53.4847919 31.2138125,53.4369583 C31.3453548,53.3891248 31.4709161,53.3532501 31.5905,53.3293333 C31.7579175,53.3054165 31.9193534,53.2934583 32.0748125,53.2934583 L33.95825,53.2934583 C34.1495843,53.2934583 34.3528739,53.3054165 34.568125,53.3293333 L34.711625,53.3293333 C35.0703768,53.3293333 35.3454157,53.3054169 35.53675,53.2575833 C35.5845836,53.2575833 35.6383955,53.2516042 35.6981875,53.2396458 C35.7579795,53.2276874 35.8237496,53.2217083 35.8955,53.2217083 C36.230335,53.2217083 36.5831023,53.2276874 36.9538125,53.2396458 C37.3245227,53.2516042 37.6892482,53.293458 38.048,53.3652083 C38.2632511,53.4130419 38.4725198,53.5146867 38.6758125,53.6701458 C38.8791052,53.8256049 39.0584784,53.998999 39.2139375,54.1903333 C39.3693966,54.3816676 39.5128952,54.572999 39.6444375,54.7643333 C39.7759798,54.9556676 39.8776246,55.1230826 39.949375,55.2665833 C40.0689589,55.5057512 40.1526664,55.7449155 40.2005,55.9840833 L40.344,56.7015833 C40.4157504,57.3951701 40.451625,58.0947256 40.451625,58.8002708 C40.451625,59.505816 40.4635832,60.2053715 40.4875,60.8989583 C40.5114168,61.8795466 40.523375,62.8481619 40.523375,63.8048333 L40.523375,70.0650208 C40.523375,71.1771514 40.5114168,72.3072026 40.4875,73.4552083 L40.4875,74.8902083 C40.4875,75.1772098 40.4755418,75.4522487 40.451625,75.7153333 C40.4277082,75.978418 40.3918336,76.205624 40.344,76.3969583 C40.2483329,76.7796269 40.0570014,77.0845614 39.77,77.3117708 C39.4829986,77.5389803 39.2079596,77.7243326 38.944875,77.8678333 C38.7535407,77.9635005 38.4964391,78.0412289 38.1735625,78.1010208 C37.8506859,78.1608128 37.5158559,78.2026665 37.1690625,78.2265833 C36.8222691,78.2505001 36.48146,78.2684374 36.146625,78.2803958 C35.81179,78.2923542 35.5247929,78.2983333 35.285625,78.2983333 L34.67575,78.2983333 C34.3887486,78.2983333 34.077835,78.2744169 33.743,78.2265833 C33.3842482,78.2265833 33.0613764,78.1907087 32.774375,78.1189583 C32.6308743,78.1189583 32.4993339,78.0830837 32.37975,78.0113333 C32.3319164,77.9874165 32.2781045,77.9635001 32.2183125,77.9395833 C32.1585205,77.9156665 32.1047086,77.8678337 32.056875,77.7960833 C31.9372911,77.6764994 31.8595627,77.5449591 31.8236875,77.4014583 C31.7878123,77.2579576 31.769875,77.1144591 31.769875,76.9709583 C31.769875,76.8274576 31.7878123,76.6839591 31.8236875,76.5404583 C31.8595627,76.3969576 31.9372911,76.2534591 32.056875,76.1099583 C32.1047086,76.0621248 32.1465623,76.0322292 32.1824375,76.0202708 C32.2183127,76.0083124 32.2601664,75.9903751 32.308,75.9664583 C32.3558336,75.9425415 32.3976873,75.9305833 32.4335625,75.9305833 C32.4694377,75.9305833 32.5112914,75.9186251 32.559125,75.8947083 C32.7982929,75.8468748 33.0374571,75.8229583 33.276625,75.8229583 C33.5397096,75.7990415 33.8267068,75.7811042 34.137625,75.7691458 C34.4485432,75.7571874 34.771415,75.7392501 35.10625,75.7153333 C35.441085,75.6674998 35.7699359,75.6376042 36.0928125,75.6256458 C36.4156891,75.6136874 36.7086654,75.5837919 36.97175,75.5359583 C37.2826682,75.4881248 37.4859579,75.4402919 37.581625,75.3924583 C37.6772921,75.320708 37.7311041,75.2609169 37.7430625,75.2130833 C37.7550209,75.1652498 37.761,75.1174169 37.761,75.0695833 C37.7849168,74.9499994 37.796875,74.8184591 37.796875,74.6749583 L37.796875,74.1727083 C37.8207918,73.7900398 37.8387291,73.3655232 37.8506875,72.8991458 C37.8626459,72.4327685 37.868625,71.9484608 37.868625,71.4462083 L37.868625,69.9394583 C37.868625,69.4372058 37.8746041,68.9768146 37.8865625,68.5582708 C37.8985209,68.1397271 37.9045,67.7750016 37.9045,67.4640833 L37.9045,66.8183333 C37.9045,65.7899115 37.8925418,64.7734634 37.868625,63.7689583 C37.8447082,62.7644533 37.8088336,61.7480051 37.761,60.7195833 C37.7131664,60.0977469 37.6832709,59.4520033 37.6713125,58.7823333 C37.6593541,58.1126633 37.6055421,57.4669198 37.509875,56.8450833 C37.4859582,56.773333 37.4680209,56.6896255 37.4560625,56.5939583 C37.4441041,56.4982912 37.4142086,56.3906673 37.366375,56.2710833 C37.3185414,56.079749 37.2587504,55.9601669 37.187,55.9123333 C37.0674161,55.8884165 36.9597921,55.8764583 36.864125,55.8764583 L36.613,55.8764583 C36.4934161,55.8525415 36.3738339,55.8405833 36.25425,55.8405833 L35.4470625,55.8405833 C35.2916034,55.8405833 35.1301675,55.8525415 34.96275,55.8764583 C34.8909996,55.9003751 34.8192504,55.9123333 34.7475,55.9123333 C34.6757496,55.9123333 34.6159586,55.9242915 34.568125,55.9482083 L34.424625,55.9840833 Z M25.707,53.5087083 C26.2331693,53.771793 26.7354143,54.1185812 27.21375,54.5490833 C27.6920857,54.9795855 27.93125,55.5416215 27.93125,56.2352083 C27.93125,57.0244623 27.8415634,57.8077253 27.6621875,58.5850208 C27.4828116,59.3623164 27.1061279,60.0379555 26.532125,60.6119583 C26.2929571,60.8032926 25.9940018,60.8989583 25.63525,60.8989583 C25.2286646,60.8989583 24.8938346,60.7973135 24.63075,60.5940208 C24.3676654,60.3907282 24.236125,60.0738355 24.236125,59.6433333 C24.236125,59.4759158 24.2480832,59.3204591 24.272,59.1769583 C24.2959168,59.0334576 24.3317914,58.8899591 24.379625,58.7464583 C24.4992089,58.4594569 24.5709582,58.1545224 24.594875,57.8316458 C24.6187918,57.5087692 24.63075,57.1799183 24.63075,56.8450833 L24.63075,56.3069583 C24.4394157,56.0677905 24.2959171,55.9183128 24.20025,55.8585208 C24.1045829,55.7987289 23.9969589,55.7449169 23.877375,55.6970833 C23.7099575,55.625333 23.5545007,55.571521 23.411,55.5356458 C23.2674993,55.4997707 23.1359589,55.4579169 23.016375,55.4100833 C22.6576232,55.338333 22.3467096,55.1828762 22.083625,54.9437083 L21.724875,54.5849583 C21.6770414,54.5371248 21.6292086,54.4653755 21.581375,54.3697083 C21.5335414,54.2740412 21.509625,54.1664173 21.509625,54.0468333 C21.509625,53.8315823 21.5993116,53.6462299 21.7786875,53.4907708 C21.9580634,53.3353117 22.1314575,53.2097505 22.298875,53.1140833 C22.4902093,53.0184162 22.6875198,52.9406878 22.8908125,52.8808958 C23.0941052,52.8211039 23.2674993,52.7912083 23.411,52.7912083 C23.8175854,52.7912083 24.2241646,52.8749158 24.63075,53.0423333 C25.0373354,53.2097508 25.3960818,53.3652076 25.707,53.5087083 Z M8.307625,70.2264583 C8.61854322,70.154708 8.82183285,69.9992512 8.9175,69.7600833 C8.98925036,69.6404994 9.04306232,69.5029799 9.0789375,69.3475208 C9.11481268,69.1920617 9.15666643,69.0545423 9.2045,68.9349583 C9.30016714,68.4805394 9.37789553,67.9723153 9.4376875,67.4102708 C9.49747947,66.8482264 9.53933321,66.2802112 9.56325,65.7062083 C9.58716679,65.1322055 9.60510411,64.5641903 9.6170625,64.0021458 C9.62902089,63.4401014 9.635,62.9199191 9.635,62.4415833 C9.635,61.2218272 9.59314625,60.0200268 9.5094375,58.8361458 C9.42572875,57.6522649 9.32408393,56.4624226 9.2045,55.2665833 C9.18058321,55.1709162 9.168625,55.0752505 9.168625,54.9795833 L9.168625,54.6925833 C9.168625,54.3577483 9.28820714,54.0468348 9.527375,53.7598333 C9.76654286,53.4728319 10.0894146,53.3293333 10.496,53.3293333 C11.0460861,53.3293333 11.4466862,53.4907692 11.6978125,53.8136458 C11.9489388,54.1365224 12.0984164,54.4892898 12.14625,54.8719583 C12.2180004,55.2307101 12.253875,55.613373 12.253875,56.0199583 C12.253875,56.1873758 12.2478959,56.3488117 12.2359375,56.5042708 C12.2239791,56.6597299 12.218,56.7972494 12.218,56.9168333 L12.218,58.7105833 C12.218,58.9975848 12.2419164,59.2726237 12.28975,59.5357083 C12.3375836,59.8944601 12.3674791,60.2890812 12.3794375,60.7195833 C12.3913959,61.1500855 12.397375,61.5985185 12.397375,62.0648958 C12.397375,62.5312732 12.3913959,62.9797062 12.3794375,63.4102083 C12.3674791,63.8407105 12.3615,64.2353315 12.3615,64.5940833 L12.3615,65.8497083 C12.3615,66.3280441 12.3375836,66.8183308 12.28975,67.3205833 C12.2419164,68.3250884 12.0745014,69.2638081 11.7875,70.1367708 C11.5004986,71.0097335 10.8786714,71.6853726 9.922,72.1637083 C9.68283214,72.3072091 9.35996037,72.4507076 8.953375,72.5942083 C8.92945821,72.7855426 8.98327018,73.0486233 9.1148125,73.3834583 C9.24635482,73.7182933 9.40779071,74.0531233 9.599125,74.3879583 C9.79045929,74.7227933 9.98776982,75.0097905 10.1910625,75.2489583 C10.3943552,75.4881262 10.5557911,75.6077083 10.675375,75.6077083 C10.8427925,75.6077083 10.9982493,75.5479173 11.14175,75.4283333 C11.7635864,74.8064969 12.3375807,73.9933384 12.86375,72.9888333 C13.3899193,71.9843283 13.8443314,70.9140682 14.227,69.7780208 C14.6096686,68.6419735 14.9325404,67.5119223 15.195625,66.3878333 C15.4587096,65.2637444 15.6380829,64.2712126 15.73375,63.4102083 C15.8533339,62.5013705 15.9310623,61.580588 15.9669375,60.6478333 C16.0028127,59.7150787 16.02075,58.7942962 16.02075,57.8854583 L16.02075,53.9033333 C16.0446668,53.7837494 16.056625,53.6821046 16.056625,53.5983958 L16.056625,53.3652083 C16.1762089,52.9825398 16.3137284,52.7433755 16.4691875,52.6477083 C16.6246466,52.5520412 16.7980407,52.5042083 16.989375,52.5042083 C17.4198772,52.5042083 17.7965609,52.6118323 18.1194375,52.8270833 C18.4423141,53.0423344 18.7233321,53.3173733 18.9625,53.6522083 L19.070125,53.7598333 L19.070125,57.8495833 C19.070125,59.3324241 19.0342504,60.8032844 18.9625,62.2622083 C18.8907496,63.7211323 18.6276689,65.1680762 18.17325,66.6030833 C18.0775829,66.8183344 17.9699589,67.129248 17.850375,67.5358333 C17.7307911,67.9424187 17.671,68.2652905 17.671,68.5044583 C17.671,68.9827941 17.5514179,69.6165794 17.31225,70.4058333 C17.0730821,71.1950873 16.7681477,72.0082458 16.3974375,72.8453333 C16.0267273,73.6824209 15.620148,74.4656839 15.1776875,75.1951458 C14.735227,75.9246078 14.3226686,76.4567483 13.94,76.7915833 C13.5573314,77.1264183 13.0491073,77.3775408 12.4153125,77.5449583 C11.7815177,77.7123758 11.2254607,77.7960833 10.747125,77.7960833 C9.67086962,77.7960833 8.7859618,77.5270235 8.092375,76.9888958 C7.3987882,76.4507681 6.84871037,75.715338 6.442125,74.7825833 C5.96378927,73.8019951 5.61700108,72.8333798 5.40175,71.8767083 C5.18649892,70.800453 5.01908393,69.7361719 4.8995,68.6838333 C4.77991607,67.6314947 4.66033393,66.5672137 4.54075,65.4909583 C4.3733325,63.9363672 4.18798018,62.3997368 3.9846875,60.8810208 C3.78139482,59.3623049 3.51233501,57.8495909 3.1775,56.3428333 C3.12966643,56.151499 3.08781268,55.9601676 3.0519375,55.7688333 C3.01606232,55.577499 2.97420857,55.3861676 2.926375,55.1948333 C2.87854143,55.003499 2.84266679,54.8061885 2.81875,54.6028958 C2.79483321,54.3996032 2.782875,54.2022926 2.782875,54.0109583 C2.782875,53.7957073 2.84266607,53.5744803 2.96225,53.3472708 C3.08183393,53.1200614 3.33295642,53.0064583 3.715625,53.0064583 C4.07437679,53.0064583 4.43910231,53.0841867 4.8098125,53.2396458 C5.18052269,53.3951049 5.46154071,53.6641648 5.652875,54.0468333 C5.74854214,54.2142508 5.85616607,54.501248 5.97575,54.9078333 C6.09533393,55.3144187 6.20893696,55.7389353 6.3165625,56.1813958 C6.42418804,56.6238564 6.51387464,57.048373 6.585625,57.4549583 C6.65737536,57.8615437 6.69325,58.1724573 6.69325,58.3877083 C6.69325,58.6986266 6.74108285,58.949749 6.83675,59.1410833 C6.95633393,59.4520016 7.06993696,59.9602256 7.1775625,60.6657708 C7.28518804,61.371316 7.38683285,62.1187044 7.4825,62.9079583 C7.57816714,63.6972123 7.65589553,64.4446006 7.7156875,65.1501458 C7.77547947,65.855691 7.82929143,66.3758733 7.877125,66.7107083 C7.90104179,66.8063755 7.93093732,67.0455398 7.9668125,67.4282083 C8.00268768,67.8108769 8.04454143,68.2294144 8.092375,68.6838333 C8.11629179,69.0904187 8.17608285,69.4850398 8.27175,69.8677083 C8.27175,69.9394587 8.27772911,70.0052289 8.2896875,70.0650208 C8.30164589,70.1248128 8.307625,70.1786248 8.307625,70.2264583 Z" id="נפיש"></path>
            <path d="M15.304875,47.9515 C15.304875,48.0471671 15.2450839,48.1308746 15.1255,48.202625 C15.1015832,48.2265418 15.0178757,48.2863329 14.874375,48.382 C14.7787079,48.4298336 14.6710839,48.4776664 14.5515,48.5255 L14.19275,48.669 C13.9535821,48.7885839 13.720397,48.8842496 13.4931875,48.956 C13.265978,49.0277504 13.1284586,49.0755832 13.080625,49.0995 C12.9610411,49.1473336 12.787647,49.2131037 12.5604375,49.2968125 C12.333228,49.3805213 12.0880846,49.4702079 11.825,49.565875 C11.5619154,49.6376254 11.3048138,49.7033955 11.0536875,49.7631875 C10.8025612,49.8229795 10.5932925,49.852875 10.425875,49.852875 C10.0192896,49.852875 9.70239697,49.7213346 9.4751875,49.45825 C9.24797803,49.1951654 9.134375,48.9081682 9.134375,48.59725 C9.134375,48.0949975 9.31972731,47.7482093 9.6904375,47.556875 C10.0611477,47.3655407 10.4497896,47.2340004 10.856375,47.16225 C11.1194596,47.1144164 11.3765612,47.0486463 11.6276875,46.9649375 C11.8788138,46.8812287 12.1239571,46.8035004 12.363125,46.73175 C12.5305425,46.6599996 12.6381664,46.6002086 12.686,46.552375 C12.7816671,46.4567079 12.8892911,46.3670213 13.008875,46.2833125 C13.1284589,46.1996037 13.2480411,46.1099171 13.367625,46.01425 C13.4872089,45.9185829 13.6187493,45.8288963 13.76225,45.7451875 C13.9057507,45.6614787 14.0492493,45.5717921 14.19275,45.476125 C14.5754186,45.1891236 14.8145829,44.9678966 14.91025,44.8124375 C15.0059171,44.6569784 15.05375,44.3400857 15.05375,43.86175 C15.05375,42.0919078 15.0118963,40.3400295 14.9281875,38.6060625 C14.8444787,36.8720955 14.802625,35.1202172 14.802625,33.350375 L14.802625,32.274125 C14.802625,31.7479557 14.7787086,31.1978779 14.730875,30.623875 C14.7069582,30.3368736 14.6830418,30.0558555 14.659125,29.7808125 C14.6352082,29.5057695 14.5993336,29.2606261 14.5515,29.045375 C14.4797496,28.5670393 14.3960421,28.3039586 14.300375,28.256125 C13.9894568,28.1604579 13.7502925,28.112625 13.582875,28.112625 C13.3437071,28.0887082 13.0985638,28.07675 12.8474375,28.07675 C12.5963112,28.07675 12.3392096,28.0647918 12.076125,28.040875 C11.8608739,28.040875 11.5977932,28.0289168 11.286875,28.005 C10.9759568,27.9810832 10.6710223,27.9212921 10.3720625,27.825625 C10.0731027,27.7299579 9.81600108,27.5924384 9.60075,27.4130625 C9.38549892,27.2336866 9.277875,27.0005014 9.277875,26.7135 C9.25395821,26.6656664 9.242,26.5460843 9.242,26.35475 C9.21808321,26.2112493 9.206125,26.0617716 9.206125,25.9063125 C9.206125,25.7508534 9.19416679,25.5774593 9.17025,25.386125 L9.17025,22.372625 C9.17025,22.0856236 9.17622911,21.7986264 9.1881875,21.511625 C9.20014589,21.2246236 9.23004143,21.0213339 9.277875,20.90175 C9.34962536,20.6864989 9.49312392,20.5430004 9.708375,20.47125 C10.378045,20.4473332 10.8563736,20.5429989 11.143375,20.75825 C11.2868757,20.8539171 11.3825414,21.0093739 11.430375,21.224625 C11.5260421,21.4398761 11.5858332,21.6551239 11.60975,21.870375 C11.6575836,22.1095429 11.6874791,22.3666445 11.6994375,22.6416875 C11.7113959,22.9167305 11.7293332,23.2097068 11.75325,23.520625 C11.7771668,23.9989607 11.7831459,24.4473937 11.7711875,24.8659375 C11.7592291,25.2844813 11.75325,25.6133321 11.75325,25.8525 L11.9685,25.888375 C12.2555014,25.9601254 12.5544568,25.996 12.865375,25.996 L13.3855625,25.996 C13.5410216,25.996 13.7024575,26.0079582 13.869875,26.031875 C14.5873786,26.031875 15.1733311,26.145478 15.62775,26.3726875 C16.0821689,26.599897 16.4349362,26.9108105 16.6860625,27.3054375 C16.9371888,27.7000645 17.116562,28.1664348 17.2241875,28.7045625 C17.331813,29.2426902 17.3975832,29.8107053 17.4215,30.408625 C17.4693336,30.7912936 17.49325,31.1619982 17.49325,31.52075 C17.49325,31.8795018 17.5052082,32.22629 17.529125,32.561125 C17.5769586,33.900465 17.6068541,35.2338059 17.6188125,36.5611875 C17.6307709,37.8885691 17.63675,39.22191 17.63675,40.56125 C17.63675,40.8482514 17.6427291,41.2249352 17.6546875,41.6913125 C17.6666459,42.1576898 17.6606668,42.6419975 17.63675,43.14425 C17.63675,43.6225857 17.6247918,44.1009143 17.600875,44.57925 C17.5769582,45.0575857 17.5291254,45.4402486 17.457375,45.72725 C17.3377911,46.1338354 17.1464596,46.4806236 16.883375,46.767625 C16.6202904,47.0546264 16.321335,47.2937907 15.9865,47.485125 C15.9625832,47.5090418 15.9087713,47.5449164 15.8250625,47.59275 C15.7413537,47.6405836 15.6516671,47.7003746 15.556,47.772125 C15.5081664,47.8199586 15.4663127,47.8498541 15.4304375,47.8618125 C15.3945623,47.8737709 15.3646668,47.9036664 15.34075,47.9515 L15.304875,47.9515 Z M4.398875,26.175375 C4.9250443,26.4384596 5.42728928,26.7852478 5.905625,27.21575 C6.38396073,27.6462522 6.623125,28.2082882 6.623125,28.901875 C6.623125,29.6911289 6.5334384,30.4743919 6.3540625,31.2516875 C6.1746866,32.0289831 5.79800287,32.7046221 5.224,33.278625 C4.98483214,33.4699593 4.68587679,33.565625 4.327125,33.565625 C3.92053963,33.565625 3.58570965,33.4639802 3.322625,33.2606875 C3.05954035,33.0573948 2.928,32.7405022 2.928,32.31 C2.928,32.1425825 2.93995821,31.9871257 2.963875,31.843625 C2.98779179,31.7001243 3.02366643,31.5566257 3.0715,31.413125 C3.19108393,31.1261236 3.26283321,30.8211891 3.28675,30.4983125 C3.31066679,30.1754359 3.322625,29.846585 3.322625,29.51175 L3.322625,28.973625 C3.13129071,28.7344571 2.98779215,28.5849795 2.892125,28.5251875 C2.79645786,28.4653955 2.68883393,28.4115836 2.56925,28.36375 C2.4018325,28.2919996 2.24637572,28.2381877 2.102875,28.2023125 C1.95937428,28.1664373 1.82783393,28.1245836 1.70825,28.07675 C1.34949821,28.0049996 1.03858465,27.8495429 0.7755,27.610375 L0.41675,27.251625 C0.368916428,27.2037914 0.321083573,27.1320421 0.27325,27.036375 C0.225416428,26.9407079 0.2015,26.8330839 0.2015,26.7135 C0.2015,26.4982489 0.291186603,26.3128966 0.4705625,26.1574375 C0.649938397,26.0019784 0.823332496,25.8764171 0.99075,25.78075 C1.18208429,25.6850829 1.37939482,25.6073545 1.5826875,25.5475625 C1.78598018,25.4877705 1.95937428,25.457875 2.102875,25.457875 C2.50946037,25.457875 2.91603963,25.5415825 3.322625,25.709 C3.72921037,25.8764175 4.08795678,26.0318743 4.398875,26.175375 Z" id="לי"></path>
            <path d="M75.375,0 L59.625,0 C58.1753438,0 57,1.268625 57,2.83333333 L57,14.1666667 C57,15.731375 58.1753438,17 59.625,17 L75.375,17 C76.8246563,17 78,15.731375 78,14.1666667 L78,2.83333333 C78,1.268625 76.8246563,0 75.375,0 Z M71.05425,7.56061719 L76.6105957,2.42103906 C76.6490684,2.55385156 76.6875,2.68666406 76.6875,2.83333333 L76.6875,14.1666667 C76.6875,14.2649036 76.6528828,14.3520729 76.634959,14.4447318 L71.05425,7.56061719 Z M75.375,1.41666667 C75.4621582,1.41666667 75.5390625,1.45265885 75.6210938,1.47063281 L67.5,8.98423437 L59.3789062,1.47063281 C59.4609375,1.45265885 59.5378418,1.41666667 59.625,1.41666667 L75.375,1.41666667 Z M58.3644258,14.4433594 C58.3464609,14.3506563 58.3125,14.2649036 58.3125,14.1666667 L58.3125,2.83333333 C58.3125,2.68666406 58.3515879,2.55385156 58.3900605,2.42103906 L63.9444785,7.55924479 L58.3644258,14.4433594 Z M59.625,15.5833333 C59.4923555,15.5833333 59.3718516,15.5418073 59.2507324,15.5016979 L64.9416504,8.48198177 L67.0731914,10.4534063 C67.195582,10.5682891 67.3481191,10.625 67.5,10.625 C67.6518809,10.625 67.804418,10.5682891 67.9268086,10.4534505 L70.0583496,8.48202604 L75.7492676,15.5017422 C75.6288047,15.5418073 75.5083008,15.5833333 75.375,15.5833333 L59.625,15.5833333 Z" id="Shape" fill-rule="nonzero"></path>
        </g>
    </g>
</svg>